solid Visualization Toolkit generated SLA File
 facet normal -0.8819662947003527 -0.47131248128235526 -0
  outer loop
   vertex -0.01671300083398819 -0.01116700004786253 -0.070000000298023224
   vertex -0.01671300083398819 -0.01116700004786253 -0.066040001809597015
   vertex -0.018570000305771828 -0.0076919998973608017 -0.066040001809597015
  endloop
 endfacet
 facet normal -0.8819662947003527 -0.47131248128235526 -0
  outer loop
   vertex -0.01671300083398819 -0.01116700004786253 -0.070000000298023224
   vertex -0.018570000305771828 -0.0076919998973608017 -0.066040001809597015
   vertex -0.018570000305771828 -0.0076919998973608017 -0.070000000298023224
  endloop
 endfacet
 facet normal -0.77298400719413363 -0.63442550754371452 -0
  outer loop
   vertex -0.014213000424206257 -0.014213000424206257 -0.070000000298023224
   vertex -0.014213000424206257 -0.014213000424206257 -0.066040001809597015
   vertex -0.01671300083398819 -0.01116700004786253 -0.066040001809597015
  endloop
 endfacet
 facet normal -0.77298400719413363 -0.63442550754371452 -0
  outer loop
   vertex -0.014213000424206257 -0.014213000424206257 -0.070000000298023224
   vertex -0.01671300083398819 -0.01116700004786253 -0.066040001809597015
   vertex -0.01671300083398819 -0.01116700004786253 -0.070000000298023224
  endloop
 endfacet
 facet normal -0.95693476458246995 -0.29030304223947212 -0
  outer loop
   vertex -0.018570000305771828 -0.0076919998973608017 -0.070000000298023224
   vertex -0.018570000305771828 -0.0076919998973608017 -0.066040001809597015
   vertex -0.019713999703526497 -0.0039209998212754726 -0.066040001809597015
  endloop
 endfacet
 facet normal -0.95693476458246995 -0.29030304223947212 -0
  outer loop
   vertex -0.018570000305771828 -0.0076919998973608017 -0.070000000298023224
   vertex -0.019713999703526497 -0.0039209998212754726 -0.066040001809597015
   vertex -0.019713999703526497 -0.0039209998212754726 -0.070000000298023224
  endloop
 endfacet
 facet normal -0.99518930816631768 -0.09797061248887827 -0
  outer loop
   vertex -0.019713999703526497 -0.0039209998212754726 -0.070000000298023224
   vertex -0.019713999703526497 -0.0039209998212754726 -0.066040001809597015
   vertex -0.020099999383091927 0 -0.066040001809597015
  endloop
 endfacet
 facet normal -0.99518930816631768 -0.09797061248887827 -0
  outer loop
   vertex -0.019713999703526497 -0.0039209998212754726 -0.070000000298023224
   vertex -0.020099999383091927 0 -0.066040001809597015
   vertex -0.020099999383091927 0 -0.070000000298023224
  endloop
 endfacet
 facet normal -0.99518930816631768 0.09797061248887827 0
  outer loop
   vertex -0.020099999383091927 0 -0.070000000298023224
   vertex -0.020099999383091927 0 -0.066040001809597015
   vertex -0.019713999703526497 0.0039209998212754726 -0.066040001809597015
  endloop
 endfacet
 facet normal -0.99518930816631768 0.09797061248887827 0
  outer loop
   vertex -0.020099999383091927 0 -0.070000000298023224
   vertex -0.019713999703526497 0.0039209998212754726 -0.066040001809597015
   vertex -0.019713999703526497 0.0039209998212754726 -0.070000000298023224
  endloop
 endfacet
 facet normal -0.95693476458246995 0.29030304223947212 0
  outer loop
   vertex -0.019713999703526497 0.0039209998212754726 -0.070000000298023224
   vertex -0.019713999703526497 0.0039209998212754726 -0.066040001809597015
   vertex -0.018570000305771828 0.0076919998973608017 -0.066040001809597015
  endloop
 endfacet
 facet normal -0.95693476458246995 0.29030304223947212 0
  outer loop
   vertex -0.019713999703526497 0.0039209998212754726 -0.070000000298023224
   vertex -0.018570000305771828 0.0076919998973608017 -0.066040001809597015
   vertex -0.018570000305771828 0.0076919998973608017 -0.070000000298023224
  endloop
 endfacet
 facet normal -0.8819662947003527 0.47131248128235526 0
  outer loop
   vertex -0.018570000305771828 0.0076919998973608017 -0.070000000298023224
   vertex -0.018570000305771828 0.0076919998973608017 -0.066040001809597015
   vertex -0.01671300083398819 0.01116700004786253 -0.066040001809597015
  endloop
 endfacet
 facet normal -0.8819662947003527 0.47131248128235526 0
  outer loop
   vertex -0.018570000305771828 0.0076919998973608017 -0.070000000298023224
   vertex -0.01671300083398819 0.01116700004786253 -0.066040001809597015
   vertex -0.01671300083398819 0.01116700004786253 -0.070000000298023224
  endloop
 endfacet
 facet normal -0.77298400719413363 0.63442550754371452 0
  outer loop
   vertex -0.01671300083398819 0.01116700004786253 -0.070000000298023224
   vertex -0.01671300083398819 0.01116700004786253 -0.066040001809597015
   vertex -0.014213000424206257 0.014213000424206257 -0.066040001809597015
  endloop
 endfacet
 facet normal -0.77298400719413363 0.63442550754371452 0
  outer loop
   vertex -0.01671300083398819 0.01116700004786253 -0.070000000298023224
   vertex -0.014213000424206257 0.014213000424206257 -0.066040001809597015
   vertex -0.014213000424206257 0.014213000424206257 -0.070000000298023224
  endloop
 endfacet
 facet normal -0.63442550754371452 0.77298400719413363 0
  outer loop
   vertex -0.014213000424206257 0.014213000424206257 -0.070000000298023224
   vertex -0.014213000424206257 0.014213000424206257 -0.066040001809597015
   vertex -0.01116700004786253 0.01671300083398819 -0.066040001809597015
  endloop
 endfacet
 facet normal -0.63442550754371452 0.77298400719413363 0
  outer loop
   vertex -0.014213000424206257 0.014213000424206257 -0.070000000298023224
   vertex -0.01116700004786253 0.01671300083398819 -0.066040001809597015
   vertex -0.01116700004786253 0.01671300083398819 -0.070000000298023224
  endloop
 endfacet
 facet normal -0.47131248128235531 0.88196629470035282 0
  outer loop
   vertex -0.01116700004786253 0.01671300083398819 -0.066040001809597015
   vertex -0.01116700004786253 0.01671300083398819 -0.033959999680519104
   vertex -0.0076919998973608017 0.018570000305771828 -0.033959999680519104
  endloop
 endfacet
 facet normal -0.47131248128235531 0.88196629470035282 0
  outer loop
   vertex -0.01116700004786253 0.01671300083398819 -0.066040001809597015
   vertex -0.0076919998973608017 0.018570000305771828 -0.033959999680519104
   vertex -0.0076919998973608017 0.018570000305771828 -0.066040001809597015
  endloop
 endfacet
 facet normal -0.63442550754371441 0.77298400719413352 0
  outer loop
   vertex -0.014213000424206257 0.014213000424206257 -0.066040001809597015
   vertex -0.014213000424206257 0.014213000424206257 -0.033959999680519104
   vertex -0.01116700004786253 0.01671300083398819 -0.033959999680519104
  endloop
 endfacet
 facet normal -0.63442550754371441 0.77298400719413352 0
  outer loop
   vertex -0.014213000424206257 0.014213000424206257 -0.066040001809597015
   vertex -0.01116700004786253 0.01671300083398819 -0.033959999680519104
   vertex -0.01116700004786253 0.01671300083398819 -0.066040001809597015
  endloop
 endfacet
 facet normal -0.77298400719413352 0.63442550754371441 0
  outer loop
   vertex -0.01671300083398819 0.01116700004786253 -0.066040001809597015
   vertex -0.01671300083398819 0.01116700004786253 -0.033959999680519104
   vertex -0.014213000424206257 0.014213000424206257 -0.033959999680519104
  endloop
 endfacet
 facet normal -0.77298400719413352 0.63442550754371441 0
  outer loop
   vertex -0.01671300083398819 0.01116700004786253 -0.066040001809597015
   vertex -0.014213000424206257 0.014213000424206257 -0.033959999680519104
   vertex -0.014213000424206257 0.014213000424206257 -0.066040001809597015
  endloop
 endfacet
 facet normal -0.88196629470035282 0.47131248128235531 0
  outer loop
   vertex -0.018570000305771828 0.0076919998973608017 -0.066040001809597015
   vertex -0.018570000305771828 0.0076919998973608017 -0.033959999680519104
   vertex -0.01671300083398819 0.01116700004786253 -0.033959999680519104
  endloop
 endfacet
 facet normal -0.88196629470035282 0.47131248128235531 0
  outer loop
   vertex -0.018570000305771828 0.0076919998973608017 -0.066040001809597015
   vertex -0.01671300083398819 0.01116700004786253 -0.033959999680519104
   vertex -0.01671300083398819 0.01116700004786253 -0.066040001809597015
  endloop
 endfacet
 facet normal -0.95693476458246984 0.29030304223947206 0
  outer loop
   vertex -0.019713999703526497 0.0039209998212754726 -0.066040001809597015
   vertex -0.019713999703526497 0.0039209998212754726 -0.033959999680519104
   vertex -0.018570000305771828 0.0076919998973608017 -0.033959999680519104
  endloop
 endfacet
 facet normal -0.95693476458246984 0.29030304223947206 0
  outer loop
   vertex -0.019713999703526497 0.0039209998212754726 -0.066040001809597015
   vertex -0.018570000305771828 0.0076919998973608017 -0.033959999680519104
   vertex -0.018570000305771828 0.0076919998973608017 -0.066040001809597015
  endloop
 endfacet
 facet normal 0 0 1
  outer loop
   vertex -0.019713999703526497 -0.0039209998212754726 -0.033959999680519104
   vertex -0.020099999383091927 0 -0.033959999680519104
   vertex -0.095100000500679016 0 -0.033959999680519104
  endloop
 endfacet
 facet normal 0 0 1
  outer loop
   vertex -0.019713999703526497 -0.0039209998212754726 -0.033959999680519104
   vertex -0.095100000500679016 0 -0.033959999680519104
   vertex -0.094714000821113586 -0.0039209998212754726 -0.033959999680519104
  endloop
 endfacet
 facet normal -0 -1 -0
  outer loop
   vertex -0.019713999703526497 -0.0039209998212754726 -0.066040001809597015
   vertex -0.019713999703526497 -0.0039209998212754726 -0.033959999680519104
   vertex -0.094714000821113586 -0.0039209998212754726 -0.033959999680519104
  endloop
 endfacet
 facet normal 0 -1 0
  outer loop
   vertex -0.019713999703526497 -0.0039209998212754726 -0.066040001809597015
   vertex -0.094714000821113586 -0.0039209998212754726 -0.033959999680519104
   vertex -0.094714000821113586 -0.0039209998212754726 -0.066040001809597015
  endloop
 endfacet
 facet normal -0.95693476458246984 -0.29030304223947206 -0
  outer loop
   vertex -0.018570000305771828 -0.0076919998973608017 -0.066040001809597015
   vertex -0.018570000305771828 -0.0076919998973608017 -0.033959999680519104
   vertex -0.019713999703526497 -0.0039209998212754726 -0.033959999680519104
  endloop
 endfacet
 facet normal -0.95693476458246984 -0.29030304223947206 -0
  outer loop
   vertex -0.018570000305771828 -0.0076919998973608017 -0.066040001809597015
   vertex -0.019713999703526497 -0.0039209998212754726 -0.033959999680519104
   vertex -0.019713999703526497 -0.0039209998212754726 -0.066040001809597015
  endloop
 endfacet
 facet normal -0.77298400719413352 -0.63442550754371441 -0
  outer loop
   vertex -0.014213000424206257 -0.014213000424206257 -0.066040001809597015
   vertex -0.014213000424206257 -0.014213000424206257 -0.033959999680519104
   vertex -0.01671300083398819 -0.01116700004786253 -0.033959999680519104
  endloop
 endfacet
 facet normal -0.77298400719413352 -0.63442550754371441 -0
  outer loop
   vertex -0.014213000424206257 -0.014213000424206257 -0.066040001809597015
   vertex -0.01671300083398819 -0.01116700004786253 -0.033959999680519104
   vertex -0.01671300083398819 -0.01116700004786253 -0.066040001809597015
  endloop
 endfacet
 facet normal -0.88196629470035282 -0.47131248128235531 -0
  outer loop
   vertex -0.01671300083398819 -0.01116700004786253 -0.066040001809597015
   vertex -0.01671300083398819 -0.01116700004786253 -0.033959999680519104
   vertex -0.018570000305771828 -0.0076919998973608017 -0.033959999680519104
  endloop
 endfacet
 facet normal -0.88196629470035282 -0.47131248128235531 -0
  outer loop
   vertex -0.01671300083398819 -0.01116700004786253 -0.066040001809597015
   vertex -0.018570000305771828 -0.0076919998973608017 -0.033959999680519104
   vertex -0.018570000305771828 -0.0076919998973608017 -0.066040001809597015
  endloop
 endfacet
 facet normal -0.29030304223947206 -0.95693476458246984 -0
  outer loop
   vertex -0.0039209998212754726 -0.019713999703526497 -0.066040001809597015
   vertex -0.0039209998212754726 -0.019713999703526497 -0.033959999680519104
   vertex -0.0076919998973608017 -0.018570000305771828 -0.033959999680519104
  endloop
 endfacet
 facet normal -0.29030304223947206 -0.95693476458246984 -0
  outer loop
   vertex -0.0039209998212754726 -0.019713999703526497 -0.066040001809597015
   vertex -0.0076919998973608017 -0.018570000305771828 -0.033959999680519104
   vertex -0.0076919998973608017 -0.018570000305771828 -0.066040001809597015
  endloop
 endfacet
 facet normal 1 0 0
  outer loop
   vertex 0.0039209998212754726 -0.019713999703526497 -0.066040001809597015
   vertex 0.0039209998212754726 -0.019713999703526497 -0.033959999680519104
   vertex 0.0039209998212754726 -0.094714000821113586 -0.033959999680519104
  endloop
 endfacet
 facet normal 1 0 0
  outer loop
   vertex 0.0039209998212754726 -0.019713999703526497 -0.066040001809597015
   vertex 0.0039209998212754726 -0.094714000821113586 -0.033959999680519104
   vertex 0.0039209998212754726 -0.094714000821113586 -0.066040001809597015
  endloop
 endfacet
 facet normal -1 0 0
  outer loop
   vertex -0.0039209998212754726 -0.019713999703526497 -0.033959999680519104
   vertex -0.0039209998212754726 -0.019713999703526497 -0.066040001809597015
   vertex -0.0039209998212754726 -0.094714000821113586 -0.066040001809597015
  endloop
 endfacet
 facet normal -1 0 0
  outer loop
   vertex -0.0039209998212754726 -0.019713999703526497 -0.033959999680519104
   vertex -0.0039209998212754726 -0.094714000821113586 -0.066040001809597015
   vertex -0.0039209998212754726 -0.094714000821113586 -0.033959999680519104
  endloop
 endfacet
 facet normal 0.29030304223947206 -0.95693476458246984 0
  outer loop
   vertex 0.0076919998973608017 -0.018570000305771828 -0.066040001809597015
   vertex 0.0076919998973608017 -0.018570000305771828 -0.033959999680519104
   vertex 0.0039209998212754726 -0.019713999703526497 -0.033959999680519104
  endloop
 endfacet
 facet normal 0.29030304223947206 -0.95693476458246984 0
  outer loop
   vertex 0.0076919998973608017 -0.018570000305771828 -0.066040001809597015
   vertex 0.0039209998212754726 -0.019713999703526497 -0.033959999680519104
   vertex 0.0039209998212754726 -0.019713999703526497 -0.066040001809597015
  endloop
 endfacet
 facet normal 0.47131248128235531 -0.88196629470035282 0
  outer loop
   vertex 0.01116700004786253 -0.01671300083398819 -0.066040001809597015
   vertex 0.01116700004786253 -0.01671300083398819 -0.033959999680519104
   vertex 0.0076919998973608017 -0.018570000305771828 -0.033959999680519104
  endloop
 endfacet
 facet normal 0.47131248128235531 -0.88196629470035282 0
  outer loop
   vertex 0.01116700004786253 -0.01671300083398819 -0.066040001809597015
   vertex 0.0076919998973608017 -0.018570000305771828 -0.033959999680519104
   vertex 0.0076919998973608017 -0.018570000305771828 -0.066040001809597015
  endloop
 endfacet
 facet normal 0.63442550754371441 -0.77298400719413352 0
  outer loop
   vertex 0.014213000424206257 -0.014213000424206257 -0.066040001809597015
   vertex 0.014213000424206257 -0.014213000424206257 -0.033959999680519104
   vertex 0.01116700004786253 -0.01671300083398819 -0.033959999680519104
  endloop
 endfacet
 facet normal 0.63442550754371441 -0.77298400719413352 0
  outer loop
   vertex 0.014213000424206257 -0.014213000424206257 -0.066040001809597015
   vertex 0.01116700004786253 -0.01671300083398819 -0.033959999680519104
   vertex 0.01116700004786253 -0.01671300083398819 -0.066040001809597015
  endloop
 endfacet
 facet normal 0.77298400719413352 -0.63442550754371441 0
  outer loop
   vertex 0.01671300083398819 -0.01116700004786253 -0.066040001809597015
   vertex 0.01671300083398819 -0.01116700004786253 -0.033959999680519104
   vertex 0.014213000424206257 -0.014213000424206257 -0.033959999680519104
  endloop
 endfacet
 facet normal 0.77298400719413352 -0.63442550754371441 0
  outer loop
   vertex 0.01671300083398819 -0.01116700004786253 -0.066040001809597015
   vertex 0.014213000424206257 -0.014213000424206257 -0.033959999680519104
   vertex 0.014213000424206257 -0.014213000424206257 -0.066040001809597015
  endloop
 endfacet
 facet normal 0.88196629470035282 -0.47131248128235531 0
  outer loop
   vertex 0.018570000305771828 -0.0076919998973608017 -0.066040001809597015
   vertex 0.018570000305771828 -0.0076919998973608017 -0.033959999680519104
   vertex 0.01671300083398819 -0.01116700004786253 -0.033959999680519104
  endloop
 endfacet
 facet normal 0.88196629470035282 -0.47131248128235531 0
  outer loop
   vertex 0.018570000305771828 -0.0076919998973608017 -0.066040001809597015
   vertex 0.01671300083398819 -0.01116700004786253 -0.033959999680519104
   vertex 0.01671300083398819 -0.01116700004786253 -0.066040001809597015
  endloop
 endfacet
 facet normal 0 -0 -1
  outer loop
   vertex 0.019713999703526497 -0.0039209998212754726 -0.066040001809597015
   vertex 0.020099999383091927 0 -0.066040001809597015
   vertex 0.095100000500679016 0 -0.066040001809597015
  endloop
 endfacet
 facet normal 0 0 -1
  outer loop
   vertex 0.019713999703526497 -0.0039209998212754726 -0.066040001809597015
   vertex 0.095100000500679016 0 -0.066040001809597015
   vertex 0.094714000821113586 -0.0039209998212754726 -0.066040001809597015
  endloop
 endfacet
 facet normal 0.95693476458246984 -0.29030304223947206 0
  outer loop
   vertex 0.019713999703526497 -0.0039209998212754726 -0.066040001809597015
   vertex 0.019713999703526497 -0.0039209998212754726 -0.033959999680519104
   vertex 0.018570000305771828 -0.0076919998973608017 -0.033959999680519104
  endloop
 endfacet
 facet normal 0.95693476458246984 -0.29030304223947206 0
  outer loop
   vertex 0.019713999703526497 -0.0039209998212754726 -0.066040001809597015
   vertex 0.018570000305771828 -0.0076919998973608017 -0.033959999680519104
   vertex 0.018570000305771828 -0.0076919998973608017 -0.066040001809597015
  endloop
 endfacet
 facet normal -0.09797061248887827 -0.99518930816631768 -0
  outer loop
   vertex 0 -0.020099999383091927 -0.070000000298023224
   vertex 0 -0.020099999383091927 -0.066040001809597015
   vertex -0.0039209998212754726 -0.019713999703526497 -0.066040001809597015
  endloop
 endfacet
 facet normal -0.09797061248887827 -0.99518930816631768 -0
  outer loop
   vertex 0 -0.020099999383091927 -0.070000000298023224
   vertex -0.0039209998212754726 -0.019713999703526497 -0.066040001809597015
   vertex -0.0039209998212754726 -0.019713999703526497 -0.070000000298023224
  endloop
 endfacet
 facet normal 0.29030304223947212 -0.95693476458246995 0
  outer loop
   vertex 0.0076919998973608017 -0.018570000305771828 -0.070000000298023224
   vertex 0.0076919998973608017 -0.018570000305771828 -0.066040001809597015
   vertex 0.0039209998212754726 -0.019713999703526497 -0.066040001809597015
  endloop
 endfacet
 facet normal 0.29030304223947212 -0.95693476458246995 0
  outer loop
   vertex 0.0076919998973608017 -0.018570000305771828 -0.070000000298023224
   vertex 0.0039209998212754726 -0.019713999703526497 -0.066040001809597015
   vertex 0.0039209998212754726 -0.019713999703526497 -0.070000000298023224
  endloop
 endfacet
 facet normal -0.29030304223947212 -0.95693476458246995 -0
  outer loop
   vertex -0.0039209998212754726 -0.019713999703526497 -0.070000000298023224
   vertex -0.0039209998212754726 -0.019713999703526497 -0.066040001809597015
   vertex -0.0076919998973608017 -0.018570000305771828 -0.066040001809597015
  endloop
 endfacet
 facet normal -0.29030304223947212 -0.95693476458246995 -0
  outer loop
   vertex -0.0039209998212754726 -0.019713999703526497 -0.070000000298023224
   vertex -0.0076919998973608017 -0.018570000305771828 -0.066040001809597015
   vertex -0.0076919998973608017 -0.018570000305771828 -0.070000000298023224
  endloop
 endfacet
 facet normal 0.09797061248887827 -0.99518930816631768 0
  outer loop
   vertex 0.0039209998212754726 -0.019713999703526497 -0.070000000298023224
   vertex 0.0039209998212754726 -0.019713999703526497 -0.066040001809597015
   vertex 0 -0.020099999383091927 -0.066040001809597015
  endloop
 endfacet
 facet normal 0.09797061248887827 -0.99518930816631768 0
  outer loop
   vertex 0.0039209998212754726 -0.019713999703526497 -0.070000000298023224
   vertex 0 -0.020099999383091927 -0.066040001809597015
   vertex 0 -0.020099999383091927 -0.070000000298023224
  endloop
 endfacet
 facet normal 0.99518930816631768 -0.09797061248887827 0
  outer loop
   vertex 0.020099999383091927 0 -0.070000000298023224
   vertex 0.020099999383091927 0 -0.066040001809597015
   vertex 0.019713999703526497 -0.0039209998212754726 -0.066040001809597015
  endloop
 endfacet
 facet normal 0.99518930816631768 -0.09797061248887827 0
  outer loop
   vertex 0.020099999383091927 0 -0.070000000298023224
   vertex 0.019713999703526497 -0.0039209998212754726 -0.066040001809597015
   vertex 0.019713999703526497 -0.0039209998212754726 -0.070000000298023224
  endloop
 endfacet
 facet normal 0.95693476458246995 -0.29030304223947212 0
  outer loop
   vertex 0.019713999703526497 -0.0039209998212754726 -0.070000000298023224
   vertex 0.019713999703526497 -0.0039209998212754726 -0.066040001809597015
   vertex 0.018570000305771828 -0.0076919998973608017 -0.066040001809597015
  endloop
 endfacet
 facet normal 0.95693476458246995 -0.29030304223947212 0
  outer loop
   vertex 0.019713999703526497 -0.0039209998212754726 -0.070000000298023224
   vertex 0.018570000305771828 -0.0076919998973608017 -0.066040001809597015
   vertex 0.018570000305771828 -0.0076919998973608017 -0.070000000298023224
  endloop
 endfacet
 facet normal 0.09797061248887827 0.99518930816631768 0
  outer loop
   vertex 0 0.020099999383091927 -0.070000000298023224
   vertex 0 0.020099999383091927 -0.066040001809597015
   vertex 0.0039209998212754726 0.019713999703526497 -0.066040001809597015
  endloop
 endfacet
 facet normal 0.09797061248887827 0.99518930816631768 0
  outer loop
   vertex 0 0.020099999383091927 -0.070000000298023224
   vertex 0.0039209998212754726 0.019713999703526497 -0.066040001809597015
   vertex 0.0039209998212754726 0.019713999703526497 -0.070000000298023224
  endloop
 endfacet
 facet normal 0.29030304223947212 0.95693476458246995 0
  outer loop
   vertex 0.0039209998212754726 0.019713999703526497 -0.070000000298023224
   vertex 0.0039209998212754726 0.019713999703526497 -0.066040001809597015
   vertex 0.0076919998973608017 0.018570000305771828 -0.066040001809597015
  endloop
 endfacet
 facet normal 0.29030304223947212 0.95693476458246995 0
  outer loop
   vertex 0.0039209998212754726 0.019713999703526497 -0.070000000298023224
   vertex 0.0076919998973608017 0.018570000305771828 -0.066040001809597015
   vertex 0.0076919998973608017 0.018570000305771828 -0.070000000298023224
  endloop
 endfacet
 facet normal 0.47131248128235526 0.8819662947003527 0
  outer loop
   vertex 0.0076919998973608017 0.018570000305771828 -0.070000000298023224
   vertex 0.0076919998973608017 0.018570000305771828 -0.066040001809597015
   vertex 0.01116700004786253 0.01671300083398819 -0.066040001809597015
  endloop
 endfacet
 facet normal 0.47131248128235526 0.8819662947003527 0
  outer loop
   vertex 0.0076919998973608017 0.018570000305771828 -0.070000000298023224
   vertex 0.01116700004786253 0.01671300083398819 -0.066040001809597015
   vertex 0.01116700004786253 0.01671300083398819 -0.070000000298023224
  endloop
 endfacet
 facet normal 0.63442550754371452 0.77298400719413363 0
  outer loop
   vertex 0.01116700004786253 0.01671300083398819 -0.070000000298023224
   vertex 0.01116700004786253 0.01671300083398819 -0.066040001809597015
   vertex 0.014213000424206257 0.014213000424206257 -0.066040001809597015
  endloop
 endfacet
 facet normal 0.63442550754371452 0.77298400719413363 0
  outer loop
   vertex 0.01116700004786253 0.01671300083398819 -0.070000000298023224
   vertex 0.014213000424206257 0.014213000424206257 -0.066040001809597015
   vertex 0.014213000424206257 0.014213000424206257 -0.070000000298023224
  endloop
 endfacet
 facet normal 0.77298400719413363 0.63442550754371452 0
  outer loop
   vertex 0.014213000424206257 0.014213000424206257 -0.070000000298023224
   vertex 0.014213000424206257 0.014213000424206257 -0.066040001809597015
   vertex 0.01671300083398819 0.01116700004786253 -0.066040001809597015
  endloop
 endfacet
 facet normal 0.77298400719413363 0.63442550754371452 0
  outer loop
   vertex 0.014213000424206257 0.014213000424206257 -0.070000000298023224
   vertex 0.01671300083398819 0.01116700004786253 -0.066040001809597015
   vertex 0.01671300083398819 0.01116700004786253 -0.070000000298023224
  endloop
 endfacet
 facet normal 0.8819662947003527 0.47131248128235526 0
  outer loop
   vertex 0.01671300083398819 0.01116700004786253 -0.070000000298023224
   vertex 0.01671300083398819 0.01116700004786253 -0.066040001809597015
   vertex 0.018570000305771828 0.0076919998973608017 -0.066040001809597015
  endloop
 endfacet
 facet normal 0.8819662947003527 0.47131248128235526 0
  outer loop
   vertex 0.01671300083398819 0.01116700004786253 -0.070000000298023224
   vertex 0.018570000305771828 0.0076919998973608017 -0.066040001809597015
   vertex 0.018570000305771828 0.0076919998973608017 -0.070000000298023224
  endloop
 endfacet
 facet normal 0.95693476458246995 0.29030304223947212 0
  outer loop
   vertex 0.018570000305771828 0.0076919998973608017 -0.070000000298023224
   vertex 0.018570000305771828 0.0076919998973608017 -0.066040001809597015
   vertex 0.019713999703526497 0.0039209998212754726 -0.066040001809597015
  endloop
 endfacet
 facet normal 0.95693476458246995 0.29030304223947212 0
  outer loop
   vertex 0.018570000305771828 0.0076919998973608017 -0.070000000298023224
   vertex 0.019713999703526497 0.0039209998212754726 -0.066040001809597015
   vertex 0.019713999703526497 0.0039209998212754726 -0.070000000298023224
  endloop
 endfacet
 facet normal 0.99518930816631768 0.09797061248887827 0
  outer loop
   vertex 0.019713999703526497 0.0039209998212754726 -0.070000000298023224
   vertex 0.019713999703526497 0.0039209998212754726 -0.066040001809597015
   vertex 0.020099999383091927 0 -0.066040001809597015
  endloop
 endfacet
 facet normal 0.99518930816631768 0.09797061248887827 0
  outer loop
   vertex 0.019713999703526497 0.0039209998212754726 -0.070000000298023224
   vertex 0.020099999383091927 0 -0.066040001809597015
   vertex 0.020099999383091927 0 -0.070000000298023224
  endloop
 endfacet
 facet normal -0.63442550754371452 -0.77298400719413363 -0
  outer loop
   vertex -0.01116700004786253 -0.01671300083398819 -0.070000000298023224
   vertex -0.01116700004786253 -0.01671300083398819 -0.066040001809597015
   vertex -0.014213000424206257 -0.014213000424206257 -0.066040001809597015
  endloop
 endfacet
 facet normal -0.63442550754371452 -0.77298400719413363 -0
  outer loop
   vertex -0.01116700004786253 -0.01671300083398819 -0.070000000298023224
   vertex -0.014213000424206257 -0.014213000424206257 -0.066040001809597015
   vertex -0.014213000424206257 -0.014213000424206257 -0.070000000298023224
  endloop
 endfacet
 facet normal -0.47131248128235526 -0.8819662947003527 -0
  outer loop
   vertex -0.0076919998973608017 -0.018570000305771828 -0.070000000298023224
   vertex -0.0076919998973608017 -0.018570000305771828 -0.066040001809597015
   vertex -0.01116700004786253 -0.01671300083398819 -0.066040001809597015
  endloop
 endfacet
 facet normal -0.47131248128235526 -0.8819662947003527 -0
  outer loop
   vertex -0.0076919998973608017 -0.018570000305771828 -0.070000000298023224
   vertex -0.01116700004786253 -0.01671300083398819 -0.066040001809597015
   vertex -0.01116700004786253 -0.01671300083398819 -0.070000000298023224
  endloop
 endfacet
 facet normal -0.29030304223947212 0.95693476458246995 0
  outer loop
   vertex -0.0076919998973608017 0.018570000305771828 -0.070000000298023224
   vertex -0.0076919998973608017 0.018570000305771828 -0.066040001809597015
   vertex -0.0039209998212754726 0.019713999703526497 -0.066040001809597015
  endloop
 endfacet
 facet normal -0.29030304223947212 0.95693476458246995 0
  outer loop
   vertex -0.0076919998973608017 0.018570000305771828 -0.070000000298023224
   vertex -0.0039209998212754726 0.019713999703526497 -0.066040001809597015
   vertex -0.0039209998212754726 0.019713999703526497 -0.070000000298023224
  endloop
 endfacet
 facet normal -0.09797061248887827 0.99518930816631768 0
  outer loop
   vertex -0.0039209998212754726 0.019713999703526497 -0.070000000298023224
   vertex -0.0039209998212754726 0.019713999703526497 -0.066040001809597015
   vertex 0 0.020099999383091927 -0.066040001809597015
  endloop
 endfacet
 facet normal -0.09797061248887827 0.99518930816631768 0
  outer loop
   vertex -0.0039209998212754726 0.019713999703526497 -0.070000000298023224
   vertex 0 0.020099999383091927 -0.066040001809597015
   vertex 0 0.020099999383091927 -0.070000000298023224
  endloop
 endfacet
 facet normal -1 0 0
  outer loop
   vertex -0.0039209998212754726 0.019713999703526497 -0.066040001809597015
   vertex -0.0039209998212754726 0.019713999703526497 -0.033959999680519104
   vertex -0.0039209998212754726 0.094714000821113586 -0.033959999680519104
  endloop
 endfacet
 facet normal -1 0 -0
  outer loop
   vertex -0.0039209998212754726 0.019713999703526497 -0.066040001809597015
   vertex -0.0039209998212754726 0.094714000821113586 -0.033959999680519104
   vertex -0.0039209998212754726 0.094714000821113586 -0.066040001809597015
  endloop
 endfacet
 facet normal 0.29030304223947206 0.95693476458246984 0
  outer loop
   vertex 0.0039209998212754726 0.019713999703526497 -0.066040001809597015
   vertex 0.0039209998212754726 0.019713999703526497 -0.033959999680519104
   vertex 0.0076919998973608017 0.018570000305771828 -0.033959999680519104
  endloop
 endfacet
 facet normal 0.29030304223947206 0.95693476458246984 0
  outer loop
   vertex 0.0039209998212754726 0.019713999703526497 -0.066040001809597015
   vertex 0.0076919998973608017 0.018570000305771828 -0.033959999680519104
   vertex 0.0076919998973608017 0.018570000305771828 -0.066040001809597015
  endloop
 endfacet
 facet normal 0.47131248128235531 0.88196629470035282 0
  outer loop
   vertex 0.0076919998973608017 0.018570000305771828 -0.066040001809597015
   vertex 0.0076919998973608017 0.018570000305771828 -0.033959999680519104
   vertex 0.01116700004786253 0.01671300083398819 -0.033959999680519104
  endloop
 endfacet
 facet normal 0.47131248128235531 0.88196629470035282 0
  outer loop
   vertex 0.0076919998973608017 0.018570000305771828 -0.066040001809597015
   vertex 0.01116700004786253 0.01671300083398819 -0.033959999680519104
   vertex 0.01116700004786253 0.01671300083398819 -0.066040001809597015
  endloop
 endfacet
 facet normal 0.63442550754371441 0.77298400719413352 0
  outer loop
   vertex 0.01116700004786253 0.01671300083398819 -0.066040001809597015
   vertex 0.01116700004786253 0.01671300083398819 -0.033959999680519104
   vertex 0.014213000424206257 0.014213000424206257 -0.033959999680519104
  endloop
 endfacet
 facet normal 0.63442550754371441 0.77298400719413352 0
  outer loop
   vertex 0.01116700004786253 0.01671300083398819 -0.066040001809597015
   vertex 0.014213000424206257 0.014213000424206257 -0.033959999680519104
   vertex 0.014213000424206257 0.014213000424206257 -0.066040001809597015
  endloop
 endfacet
 facet normal 0.77298400719413352 0.63442550754371441 0
  outer loop
   vertex 0.014213000424206257 0.014213000424206257 -0.066040001809597015
   vertex 0.014213000424206257 0.014213000424206257 -0.033959999680519104
   vertex 0.01671300083398819 0.01116700004786253 -0.033959999680519104
  endloop
 endfacet
 facet normal 0.77298400719413352 0.63442550754371441 0
  outer loop
   vertex 0.014213000424206257 0.014213000424206257 -0.066040001809597015
   vertex 0.01671300083398819 0.01116700004786253 -0.033959999680519104
   vertex 0.01671300083398819 0.01116700004786253 -0.066040001809597015
  endloop
 endfacet
 facet normal 0.88196629470035282 0.47131248128235531 0
  outer loop
   vertex 0.01671300083398819 0.01116700004786253 -0.066040001809597015
   vertex 0.01671300083398819 0.01116700004786253 -0.033959999680519104
   vertex 0.018570000305771828 0.0076919998973608017 -0.033959999680519104
  endloop
 endfacet
 facet normal 0.88196629470035282 0.47131248128235531 0
  outer loop
   vertex 0.01671300083398819 0.01116700004786253 -0.066040001809597015
   vertex 0.018570000305771828 0.0076919998973608017 -0.033959999680519104
   vertex 0.018570000305771828 0.0076919998973608017 -0.066040001809597015
  endloop
 endfacet
 facet normal 0.95693476458246984 0.29030304223947206 0
  outer loop
   vertex 0.018570000305771828 0.0076919998973608017 -0.066040001809597015
   vertex 0.018570000305771828 0.0076919998973608017 -0.033959999680519104
   vertex 0.019713999703526497 0.0039209998212754726 -0.033959999680519104
  endloop
 endfacet
 facet normal 0.95693476458246984 0.29030304223947206 0
  outer loop
   vertex 0.018570000305771828 0.0076919998973608017 -0.066040001809597015
   vertex 0.019713999703526497 0.0039209998212754726 -0.033959999680519104
   vertex 0.019713999703526497 0.0039209998212754726 -0.066040001809597015
  endloop
 endfacet
 facet normal 0 0 1
  outer loop
   vertex 0.020099999383091927 0 -0.033959999680519104
   vertex 0.019713999703526497 -0.0039209998212754726 -0.033959999680519104
   vertex 0.094714000821113586 -0.0039209998212754726 -0.033959999680519104
  endloop
 endfacet
 facet normal 0 -0 1
  outer loop
   vertex 0.020099999383091927 0 -0.033959999680519104
   vertex 0.094714000821113586 -0.0039209998212754726 -0.033959999680519104
   vertex 0.095100000500679016 0 -0.033959999680519104
  endloop
 endfacet
 facet normal 0.8819662947003527 -0.47131248128235526 0
  outer loop
   vertex 0.018570000305771828 -0.0076919998973608017 -0.070000000298023224
   vertex 0.018570000305771828 -0.0076919998973608017 -0.066040001809597015
   vertex 0.01671300083398819 -0.01116700004786253 -0.066040001809597015
  endloop
 endfacet
 facet normal 0.8819662947003527 -0.47131248128235526 0
  outer loop
   vertex 0.018570000305771828 -0.0076919998973608017 -0.070000000298023224
   vertex 0.01671300083398819 -0.01116700004786253 -0.066040001809597015
   vertex 0.01671300083398819 -0.01116700004786253 -0.070000000298023224
  endloop
 endfacet
 facet normal 0.63442550754371452 -0.77298400719413363 0
  outer loop
   vertex 0.014213000424206257 -0.014213000424206257 -0.070000000298023224
   vertex 0.014213000424206257 -0.014213000424206257 -0.066040001809597015
   vertex 0.01116700004786253 -0.01671300083398819 -0.066040001809597015
  endloop
 endfacet
 facet normal 0.63442550754371452 -0.77298400719413363 0
  outer loop
   vertex 0.014213000424206257 -0.014213000424206257 -0.070000000298023224
   vertex 0.01116700004786253 -0.01671300083398819 -0.066040001809597015
   vertex 0.01116700004786253 -0.01671300083398819 -0.070000000298023224
  endloop
 endfacet
 facet normal 0.77298400719413363 -0.63442550754371452 0
  outer loop
   vertex 0.01671300083398819 -0.01116700004786253 -0.070000000298023224
   vertex 0.01671300083398819 -0.01116700004786253 -0.066040001809597015
   vertex 0.014213000424206257 -0.014213000424206257 -0.066040001809597015
  endloop
 endfacet
 facet normal 0.77298400719413363 -0.63442550754371452 0
  outer loop
   vertex 0.01671300083398819 -0.01116700004786253 -0.070000000298023224
   vertex 0.014213000424206257 -0.014213000424206257 -0.066040001809597015
   vertex 0.014213000424206257 -0.014213000424206257 -0.070000000298023224
  endloop
 endfacet
 facet normal 0.47131248128235526 -0.8819662947003527 0
  outer loop
   vertex 0.01116700004786253 -0.01671300083398819 -0.070000000298023224
   vertex 0.01116700004786253 -0.01671300083398819 -0.066040001809597015
   vertex 0.0076919998973608017 -0.018570000305771828 -0.066040001809597015
  endloop
 endfacet
 facet normal 0.47131248128235526 -0.8819662947003527 0
  outer loop
   vertex 0.01116700004786253 -0.01671300083398819 -0.070000000298023224
   vertex 0.0076919998973608017 -0.018570000305771828 -0.066040001809597015
   vertex 0.0076919998973608017 -0.018570000305771828 -0.070000000298023224
  endloop
 endfacet
 facet normal -0.63442550754371441 -0.77298400719413352 -0
  outer loop
   vertex -0.01116700004786253 -0.01671300083398819 -0.066040001809597015
   vertex -0.01116700004786253 -0.01671300083398819 -0.033959999680519104
   vertex -0.014213000424206257 -0.014213000424206257 -0.033959999680519104
  endloop
 endfacet
 facet normal -0.63442550754371441 -0.77298400719413352 -0
  outer loop
   vertex -0.01116700004786253 -0.01671300083398819 -0.066040001809597015
   vertex -0.014213000424206257 -0.014213000424206257 -0.033959999680519104
   vertex -0.014213000424206257 -0.014213000424206257 -0.066040001809597015
  endloop
 endfacet
 facet normal -0.47131248128235531 -0.88196629470035282 -0
  outer loop
   vertex -0.0076919998973608017 -0.018570000305771828 -0.066040001809597015
   vertex -0.0076919998973608017 -0.018570000305771828 -0.033959999680519104
   vertex -0.01116700004786253 -0.01671300083398819 -0.033959999680519104
  endloop
 endfacet
 facet normal -0.47131248128235531 -0.88196629470035282 -0
  outer loop
   vertex -0.0076919998973608017 -0.018570000305771828 -0.066040001809597015
   vertex -0.01116700004786253 -0.01671300083398819 -0.033959999680519104
   vertex -0.01116700004786253 -0.01671300083398819 -0.066040001809597015
  endloop
 endfacet
 facet normal -0.29030304223947206 0.95693476458246984 0
  outer loop
   vertex -0.0076919998973608017 0.018570000305771828 -0.066040001809597015
   vertex -0.0076919998973608017 0.018570000305771828 -0.033959999680519104
   vertex -0.0039209998212754726 0.019713999703526497 -0.033959999680519104
  endloop
 endfacet
 facet normal -0.29030304223947206 0.95693476458246984 0
  outer loop
   vertex -0.0076919998973608017 0.018570000305771828 -0.066040001809597015
   vertex -0.0039209998212754726 0.019713999703526497 -0.033959999680519104
   vertex -0.0039209998212754726 0.019713999703526497 -0.066040001809597015
  endloop
 endfacet
 facet normal -0.47131248128235526 0.8819662947003527 0
  outer loop
   vertex -0.01116700004786253 0.01671300083398819 -0.070000000298023224
   vertex -0.01116700004786253 0.01671300083398819 -0.066040001809597015
   vertex -0.0076919998973608017 0.018570000305771828 -0.066040001809597015
  endloop
 endfacet
 facet normal -0.47131248128235526 0.8819662947003527 0
  outer loop
   vertex -0.01116700004786253 0.01671300083398819 -0.070000000298023224
   vertex -0.0076919998973608017 0.018570000305771828 -0.066040001809597015
   vertex -0.0076919998973608017 0.018570000305771828 -0.070000000298023224
  endloop
 endfacet
 facet normal 0 -0 1
  outer loop
   vertex -0.0039209998212754726 0.019713999703526497 -0.033959999680519104
   vertex 0 0.020099999383091927 -0.033959999680519104
   vertex 0 0.095100000500679016 -0.033959999680519104
  endloop
 endfacet
 facet normal 0 0 1
  outer loop
   vertex -0.0039209998212754726 0.019713999703526497 -0.033959999680519104
   vertex 0 0.095100000500679016 -0.033959999680519104
   vertex -0.0039209998212754726 0.094714000821113586 -0.033959999680519104
  endloop
 endfacet
 facet normal 0.09797061248887827 0.99518930816631757 0
  outer loop
   vertex 0 0.020099999383091927 -0.033959999680519104
   vertex 0 0.020099999383091927 -0.029999999329447746
   vertex 0.0039209998212754726 0.019713999703526497 -0.029999999329447746
  endloop
 endfacet
 facet normal 0.09797061248887827 0.99518930816631757 0
  outer loop
   vertex 0 0.020099999383091927 -0.033959999680519104
   vertex 0.0039209998212754726 0.019713999703526497 -0.029999999329447746
   vertex 0.0039209998212754726 0.019713999703526497 -0.033959999680519104
  endloop
 endfacet
 facet normal 0.29030304223947212 0.95693476458247007 0
  outer loop
   vertex 0.0039209998212754726 0.019713999703526497 -0.033959999680519104
   vertex 0.0039209998212754726 0.019713999703526497 -0.029999999329447746
   vertex 0.0076919998973608017 0.018570000305771828 -0.029999999329447746
  endloop
 endfacet
 facet normal 0.29030304223947212 0.95693476458247007 0
  outer loop
   vertex 0.0039209998212754726 0.019713999703526497 -0.033959999680519104
   vertex 0.0076919998973608017 0.018570000305771828 -0.029999999329447746
   vertex 0.0076919998973608017 0.018570000305771828 -0.033959999680519104
  endloop
 endfacet
 facet normal 0.47131248128235531 0.88196629470035282 0
  outer loop
   vertex 0.0076919998973608017 0.018570000305771828 -0.033959999680519104
   vertex 0.0076919998973608017 0.018570000305771828 -0.029999999329447746
   vertex 0.01116700004786253 0.01671300083398819 -0.029999999329447746
  endloop
 endfacet
 facet normal 0.47131248128235531 0.88196629470035282 0
  outer loop
   vertex 0.0076919998973608017 0.018570000305771828 -0.033959999680519104
   vertex 0.01116700004786253 0.01671300083398819 -0.029999999329447746
   vertex 0.01116700004786253 0.01671300083398819 -0.033959999680519104
  endloop
 endfacet
 facet normal 0.63442550754371452 0.77298400719413352 0
  outer loop
   vertex 0.01116700004786253 0.01671300083398819 -0.033959999680519104
   vertex 0.01116700004786253 0.01671300083398819 -0.029999999329447746
   vertex 0.014213000424206257 0.014213000424206257 -0.029999999329447746
  endloop
 endfacet
 facet normal 0.63442550754371452 0.77298400719413352 0
  outer loop
   vertex 0.01116700004786253 0.01671300083398819 -0.033959999680519104
   vertex 0.014213000424206257 0.014213000424206257 -0.029999999329447746
   vertex 0.014213000424206257 0.014213000424206257 -0.033959999680519104
  endloop
 endfacet
 facet normal 0.77298400719413352 0.63442550754371452 0
  outer loop
   vertex 0.014213000424206257 0.014213000424206257 -0.033959999680519104
   vertex 0.014213000424206257 0.014213000424206257 -0.029999999329447746
   vertex 0.01671300083398819 0.01116700004786253 -0.029999999329447746
  endloop
 endfacet
 facet normal 0.77298400719413352 0.63442550754371452 0
  outer loop
   vertex 0.014213000424206257 0.014213000424206257 -0.033959999680519104
   vertex 0.01671300083398819 0.01116700004786253 -0.029999999329447746
   vertex 0.01671300083398819 0.01116700004786253 -0.033959999680519104
  endloop
 endfacet
 facet normal 0.88196629470035282 0.47131248128235531 0
  outer loop
   vertex 0.01671300083398819 0.01116700004786253 -0.033959999680519104
   vertex 0.01671300083398819 0.01116700004786253 -0.029999999329447746
   vertex 0.018570000305771828 0.0076919998973608017 -0.029999999329447746
  endloop
 endfacet
 facet normal 0.88196629470035282 0.47131248128235531 0
  outer loop
   vertex 0.01671300083398819 0.01116700004786253 -0.033959999680519104
   vertex 0.018570000305771828 0.0076919998973608017 -0.029999999329447746
   vertex 0.018570000305771828 0.0076919998973608017 -0.033959999680519104
  endloop
 endfacet
 facet normal 0.95693476458247007 0.29030304223947212 0
  outer loop
   vertex 0.018570000305771828 0.0076919998973608017 -0.033959999680519104
   vertex 0.018570000305771828 0.0076919998973608017 -0.029999999329447746
   vertex 0.019713999703526497 0.0039209998212754726 -0.029999999329447746
  endloop
 endfacet
 facet normal 0.95693476458247007 0.29030304223947212 0
  outer loop
   vertex 0.018570000305771828 0.0076919998973608017 -0.033959999680519104
   vertex 0.019713999703526497 0.0039209998212754726 -0.029999999329447746
   vertex 0.019713999703526497 0.0039209998212754726 -0.033959999680519104
  endloop
 endfacet
 facet normal 0.99518930816631757 0.09797061248887827 0
  outer loop
   vertex 0.019713999703526497 0.0039209998212754726 -0.033959999680519104
   vertex 0.019713999703526497 0.0039209998212754726 -0.029999999329447746
   vertex 0.020099999383091927 0 -0.029999999329447746
  endloop
 endfacet
 facet normal 0.99518930816631757 0.09797061248887827 0
  outer loop
   vertex 0.019713999703526497 0.0039209998212754726 -0.033959999680519104
   vertex 0.020099999383091927 0 -0.029999999329447746
   vertex 0.020099999383091927 0 -0.033959999680519104
  endloop
 endfacet
 facet normal 0.99518930816631757 -0.09797061248887827 0
  outer loop
   vertex 0.020099999383091927 0 -0.033959999680519104
   vertex 0.020099999383091927 0 -0.029999999329447746
   vertex 0.019713999703526497 -0.0039209998212754726 -0.029999999329447746
  endloop
 endfacet
 facet normal 0.99518930816631757 -0.09797061248887827 0
  outer loop
   vertex 0.020099999383091927 0 -0.033959999680519104
   vertex 0.019713999703526497 -0.0039209998212754726 -0.029999999329447746
   vertex 0.019713999703526497 -0.0039209998212754726 -0.033959999680519104
  endloop
 endfacet
 facet normal 0.95693476458247007 -0.29030304223947212 0
  outer loop
   vertex 0.019713999703526497 -0.0039209998212754726 -0.033959999680519104
   vertex 0.019713999703526497 -0.0039209998212754726 -0.029999999329447746
   vertex 0.018570000305771828 -0.0076919998973608017 -0.029999999329447746
  endloop
 endfacet
 facet normal 0.95693476458247007 -0.29030304223947212 0
  outer loop
   vertex 0.019713999703526497 -0.0039209998212754726 -0.033959999680519104
   vertex 0.018570000305771828 -0.0076919998973608017 -0.029999999329447746
   vertex 0.018570000305771828 -0.0076919998973608017 -0.033959999680519104
  endloop
 endfacet
 facet normal 0.88196629470035282 -0.47131248128235531 0
  outer loop
   vertex 0.018570000305771828 -0.0076919998973608017 -0.033959999680519104
   vertex 0.018570000305771828 -0.0076919998973608017 -0.029999999329447746
   vertex 0.01671300083398819 -0.01116700004786253 -0.029999999329447746
  endloop
 endfacet
 facet normal 0.88196629470035282 -0.47131248128235531 0
  outer loop
   vertex 0.018570000305771828 -0.0076919998973608017 -0.033959999680519104
   vertex 0.01671300083398819 -0.01116700004786253 -0.029999999329447746
   vertex 0.01671300083398819 -0.01116700004786253 -0.033959999680519104
  endloop
 endfacet
 facet normal 0.77298400719413352 -0.63442550754371452 0
  outer loop
   vertex 0.01671300083398819 -0.01116700004786253 -0.033959999680519104
   vertex 0.01671300083398819 -0.01116700004786253 -0.029999999329447746
   vertex 0.014213000424206257 -0.014213000424206257 -0.029999999329447746
  endloop
 endfacet
 facet normal 0.77298400719413352 -0.63442550754371452 0
  outer loop
   vertex 0.01671300083398819 -0.01116700004786253 -0.033959999680519104
   vertex 0.014213000424206257 -0.014213000424206257 -0.029999999329447746
   vertex 0.014213000424206257 -0.014213000424206257 -0.033959999680519104
  endloop
 endfacet
 facet normal 0.63442550754371452 -0.77298400719413352 0
  outer loop
   vertex 0.014213000424206257 -0.014213000424206257 -0.033959999680519104
   vertex 0.014213000424206257 -0.014213000424206257 -0.029999999329447746
   vertex 0.01116700004786253 -0.01671300083398819 -0.029999999329447746
  endloop
 endfacet
 facet normal 0.63442550754371452 -0.77298400719413352 0
  outer loop
   vertex 0.014213000424206257 -0.014213000424206257 -0.033959999680519104
   vertex 0.01116700004786253 -0.01671300083398819 -0.029999999329447746
   vertex 0.01116700004786253 -0.01671300083398819 -0.033959999680519104
  endloop
 endfacet
 facet normal 0.47131248128235531 -0.88196629470035282 0
  outer loop
   vertex 0.01116700004786253 -0.01671300083398819 -0.033959999680519104
   vertex 0.01116700004786253 -0.01671300083398819 -0.029999999329447746
   vertex 0.0076919998973608017 -0.018570000305771828 -0.029999999329447746
  endloop
 endfacet
 facet normal 0.47131248128235531 -0.88196629470035282 0
  outer loop
   vertex 0.01116700004786253 -0.01671300083398819 -0.033959999680519104
   vertex 0.0076919998973608017 -0.018570000305771828 -0.029999999329447746
   vertex 0.0076919998973608017 -0.018570000305771828 -0.033959999680519104
  endloop
 endfacet
 facet normal 0.29030304223947212 -0.95693476458247007 0
  outer loop
   vertex 0.0076919998973608017 -0.018570000305771828 -0.033959999680519104
   vertex 0.0076919998973608017 -0.018570000305771828 -0.029999999329447746
   vertex 0.0039209998212754726 -0.019713999703526497 -0.029999999329447746
  endloop
 endfacet
 facet normal 0.29030304223947212 -0.95693476458247007 0
  outer loop
   vertex 0.0076919998973608017 -0.018570000305771828 -0.033959999680519104
   vertex 0.0039209998212754726 -0.019713999703526497 -0.029999999329447746
   vertex 0.0039209998212754726 -0.019713999703526497 -0.033959999680519104
  endloop
 endfacet
 facet normal 0.09797061248887827 -0.99518930816631757 0
  outer loop
   vertex 0.0039209998212754726 -0.019713999703526497 -0.033959999680519104
   vertex 0.0039209998212754726 -0.019713999703526497 -0.029999999329447746
   vertex 0 -0.020099999383091927 -0.029999999329447746
  endloop
 endfacet
 facet normal 0.09797061248887827 -0.99518930816631757 0
  outer loop
   vertex 0.0039209998212754726 -0.019713999703526497 -0.033959999680519104
   vertex 0 -0.020099999383091927 -0.029999999329447746
   vertex 0 -0.020099999383091927 -0.033959999680519104
  endloop
 endfacet
 facet normal -0.09797061248887827 -0.99518930816631757 -0
  outer loop
   vertex 0 -0.020099999383091927 -0.033959999680519104
   vertex 0 -0.020099999383091927 -0.029999999329447746
   vertex -0.0039209998212754726 -0.019713999703526497 -0.029999999329447746
  endloop
 endfacet
 facet normal -0.09797061248887827 -0.99518930816631757 -0
  outer loop
   vertex 0 -0.020099999383091927 -0.033959999680519104
   vertex -0.0039209998212754726 -0.019713999703526497 -0.029999999329447746
   vertex -0.0039209998212754726 -0.019713999703526497 -0.033959999680519104
  endloop
 endfacet
 facet normal -0.29030304223947212 -0.95693476458247007 -0
  outer loop
   vertex -0.0039209998212754726 -0.019713999703526497 -0.033959999680519104
   vertex -0.0039209998212754726 -0.019713999703526497 -0.029999999329447746
   vertex -0.0076919998973608017 -0.018570000305771828 -0.029999999329447746
  endloop
 endfacet
 facet normal -0.29030304223947212 -0.95693476458247007 -0
  outer loop
   vertex -0.0039209998212754726 -0.019713999703526497 -0.033959999680519104
   vertex -0.0076919998973608017 -0.018570000305771828 -0.029999999329447746
   vertex -0.0076919998973608017 -0.018570000305771828 -0.033959999680519104
  endloop
 endfacet
 facet normal -0.47131248128235531 -0.88196629470035282 -0
  outer loop
   vertex -0.0076919998973608017 -0.018570000305771828 -0.033959999680519104
   vertex -0.0076919998973608017 -0.018570000305771828 -0.029999999329447746
   vertex -0.01116700004786253 -0.01671300083398819 -0.029999999329447746
  endloop
 endfacet
 facet normal -0.47131248128235531 -0.88196629470035282 -0
  outer loop
   vertex -0.0076919998973608017 -0.018570000305771828 -0.033959999680519104
   vertex -0.01116700004786253 -0.01671300083398819 -0.029999999329447746
   vertex -0.01116700004786253 -0.01671300083398819 -0.033959999680519104
  endloop
 endfacet
 facet normal -0.63442550754371452 -0.77298400719413352 -0
  outer loop
   vertex -0.01116700004786253 -0.01671300083398819 -0.033959999680519104
   vertex -0.01116700004786253 -0.01671300083398819 -0.029999999329447746
   vertex -0.014213000424206257 -0.014213000424206257 -0.029999999329447746
  endloop
 endfacet
 facet normal -0.63442550754371452 -0.77298400719413352 -0
  outer loop
   vertex -0.01116700004786253 -0.01671300083398819 -0.033959999680519104
   vertex -0.014213000424206257 -0.014213000424206257 -0.029999999329447746
   vertex -0.014213000424206257 -0.014213000424206257 -0.033959999680519104
  endloop
 endfacet
 facet normal -0.77298400719413352 -0.63442550754371452 -0
  outer loop
   vertex -0.014213000424206257 -0.014213000424206257 -0.033959999680519104
   vertex -0.014213000424206257 -0.014213000424206257 -0.029999999329447746
   vertex -0.01671300083398819 -0.01116700004786253 -0.029999999329447746
  endloop
 endfacet
 facet normal -0.77298400719413352 -0.63442550754371452 -0
  outer loop
   vertex -0.014213000424206257 -0.014213000424206257 -0.033959999680519104
   vertex -0.01671300083398819 -0.01116700004786253 -0.029999999329447746
   vertex -0.01671300083398819 -0.01116700004786253 -0.033959999680519104
  endloop
 endfacet
 facet normal -0.88196629470035282 -0.47131248128235531 -0
  outer loop
   vertex -0.01671300083398819 -0.01116700004786253 -0.033959999680519104
   vertex -0.01671300083398819 -0.01116700004786253 -0.029999999329447746
   vertex -0.018570000305771828 -0.0076919998973608017 -0.029999999329447746
  endloop
 endfacet
 facet normal -0.88196629470035282 -0.47131248128235531 -0
  outer loop
   vertex -0.01671300083398819 -0.01116700004786253 -0.033959999680519104
   vertex -0.018570000305771828 -0.0076919998973608017 -0.029999999329447746
   vertex -0.018570000305771828 -0.0076919998973608017 -0.033959999680519104
  endloop
 endfacet
 facet normal -0.95693476458247007 -0.29030304223947212 -0
  outer loop
   vertex -0.018570000305771828 -0.0076919998973608017 -0.033959999680519104
   vertex -0.018570000305771828 -0.0076919998973608017 -0.029999999329447746
   vertex -0.019713999703526497 -0.0039209998212754726 -0.029999999329447746
  endloop
 endfacet
 facet normal -0.95693476458247007 -0.29030304223947212 -0
  outer loop
   vertex -0.018570000305771828 -0.0076919998973608017 -0.033959999680519104
   vertex -0.019713999703526497 -0.0039209998212754726 -0.029999999329447746
   vertex -0.019713999703526497 -0.0039209998212754726 -0.033959999680519104
  endloop
 endfacet
 facet normal -0.99518930816631757 -0.09797061248887827 -0
  outer loop
   vertex -0.019713999703526497 -0.0039209998212754726 -0.033959999680519104
   vertex -0.019713999703526497 -0.0039209998212754726 -0.029999999329447746
   vertex -0.020099999383091927 0 -0.029999999329447746
  endloop
 endfacet
 facet normal -0.99518930816631757 -0.09797061248887827 -0
  outer loop
   vertex -0.019713999703526497 -0.0039209998212754726 -0.033959999680519104
   vertex -0.020099999383091927 0 -0.029999999329447746
   vertex -0.020099999383091927 0 -0.033959999680519104
  endloop
 endfacet
 facet normal -0.99518930816631757 0.09797061248887827 0
  outer loop
   vertex -0.020099999383091927 0 -0.033959999680519104
   vertex -0.020099999383091927 0 -0.029999999329447746
   vertex -0.019713999703526497 0.0039209998212754726 -0.029999999329447746
  endloop
 endfacet
 facet normal -0.99518930816631757 0.09797061248887827 0
  outer loop
   vertex -0.020099999383091927 0 -0.033959999680519104
   vertex -0.019713999703526497 0.0039209998212754726 -0.029999999329447746
   vertex -0.019713999703526497 0.0039209998212754726 -0.033959999680519104
  endloop
 endfacet
 facet normal -0.95693476458247007 0.29030304223947212 0
  outer loop
   vertex -0.019713999703526497 0.0039209998212754726 -0.033959999680519104
   vertex -0.019713999703526497 0.0039209998212754726 -0.029999999329447746
   vertex -0.018570000305771828 0.0076919998973608017 -0.029999999329447746
  endloop
 endfacet
 facet normal -0.95693476458247007 0.29030304223947212 0
  outer loop
   vertex -0.019713999703526497 0.0039209998212754726 -0.033959999680519104
   vertex -0.018570000305771828 0.0076919998973608017 -0.029999999329447746
   vertex -0.018570000305771828 0.0076919998973608017 -0.033959999680519104
  endloop
 endfacet
 facet normal -0.88196629470035282 0.47131248128235531 0
  outer loop
   vertex -0.018570000305771828 0.0076919998973608017 -0.033959999680519104
   vertex -0.018570000305771828 0.0076919998973608017 -0.029999999329447746
   vertex -0.01671300083398819 0.01116700004786253 -0.029999999329447746
  endloop
 endfacet
 facet normal -0.88196629470035282 0.47131248128235531 0
  outer loop
   vertex -0.018570000305771828 0.0076919998973608017 -0.033959999680519104
   vertex -0.01671300083398819 0.01116700004786253 -0.029999999329447746
   vertex -0.01671300083398819 0.01116700004786253 -0.033959999680519104
  endloop
 endfacet
 facet normal -0.77298400719413352 0.63442550754371452 0
  outer loop
   vertex -0.01671300083398819 0.01116700004786253 -0.033959999680519104
   vertex -0.01671300083398819 0.01116700004786253 -0.029999999329447746
   vertex -0.014213000424206257 0.014213000424206257 -0.029999999329447746
  endloop
 endfacet
 facet normal -0.77298400719413352 0.63442550754371452 0
  outer loop
   vertex -0.01671300083398819 0.01116700004786253 -0.033959999680519104
   vertex -0.014213000424206257 0.014213000424206257 -0.029999999329447746
   vertex -0.014213000424206257 0.014213000424206257 -0.033959999680519104
  endloop
 endfacet
 facet normal -0.63442550754371452 0.77298400719413352 0
  outer loop
   vertex -0.014213000424206257 0.014213000424206257 -0.033959999680519104
   vertex -0.014213000424206257 0.014213000424206257 -0.029999999329447746
   vertex -0.01116700004786253 0.01671300083398819 -0.029999999329447746
  endloop
 endfacet
 facet normal -0.63442550754371452 0.77298400719413352 0
  outer loop
   vertex -0.014213000424206257 0.014213000424206257 -0.033959999680519104
   vertex -0.01116700004786253 0.01671300083398819 -0.029999999329447746
   vertex -0.01116700004786253 0.01671300083398819 -0.033959999680519104
  endloop
 endfacet
 facet normal -0.47131248128235531 0.88196629470035282 0
  outer loop
   vertex -0.01116700004786253 0.01671300083398819 -0.033959999680519104
   vertex -0.01116700004786253 0.01671300083398819 -0.029999999329447746
   vertex -0.0076919998973608017 0.018570000305771828 -0.029999999329447746
  endloop
 endfacet
 facet normal -0.47131248128235531 0.88196629470035282 0
  outer loop
   vertex -0.01116700004786253 0.01671300083398819 -0.033959999680519104
   vertex -0.0076919998973608017 0.018570000305771828 -0.029999999329447746
   vertex -0.0076919998973608017 0.018570000305771828 -0.033959999680519104
  endloop
 endfacet
 facet normal -0.29030304223947212 0.95693476458247007 0
  outer loop
   vertex -0.0076919998973608017 0.018570000305771828 -0.033959999680519104
   vertex -0.0076919998973608017 0.018570000305771828 -0.029999999329447746
   vertex -0.0039209998212754726 0.019713999703526497 -0.029999999329447746
  endloop
 endfacet
 facet normal -0.29030304223947212 0.95693476458247007 0
  outer loop
   vertex -0.0076919998973608017 0.018570000305771828 -0.033959999680519104
   vertex -0.0039209998212754726 0.019713999703526497 -0.029999999329447746
   vertex -0.0039209998212754726 0.019713999703526497 -0.033959999680519104
  endloop
 endfacet
 facet normal -0.09797061248887827 0.99518930816631757 0
  outer loop
   vertex -0.0039209998212754726 0.019713999703526497 -0.033959999680519104
   vertex -0.0039209998212754726 0.019713999703526497 -0.029999999329447746
   vertex 0 0.020099999383091927 -0.029999999329447746
  endloop
 endfacet
 facet normal -0.09797061248887827 0.99518930816631757 0
  outer loop
   vertex -0.0039209998212754726 0.019713999703526497 -0.033959999680519104
   vertex 0 0.020099999383091927 -0.029999999329447746
   vertex 0 0.020099999383091927 -0.033959999680519104
  endloop
 endfacet
 facet normal 0.99518930816631779 -0.097970612488878284 0
  outer loop
   vertex 0.095100000500679016 0 -0.066040001809597015
   vertex 0.095100000500679016 0 -0.033959999680519104
   vertex 0.094714000821113586 -0.0039209998212754726 -0.033959999680519104
  endloop
 endfacet
 facet normal 0.99518930816631779 -0.097970612488878284 0
  outer loop
   vertex 0.095100000500679016 0 -0.066040001809597015
   vertex 0.094714000821113586 -0.0039209998212754726 -0.033959999680519104
   vertex 0.094714000821113586 -0.0039209998212754726 -0.066040001809597015
  endloop
 endfacet
 facet normal 0.99518930816631779 0.097970612488878284 0
  outer loop
   vertex 0.094714000821113586 0.0039209998212754726 -0.066040001809597015
   vertex 0.094714000821113586 0.0039209998212754726 -0.033959999680519104
   vertex 0.095100000500679016 0 -0.033959999680519104
  endloop
 endfacet
 facet normal 0.99518930816631779 0.097970612488878284 0
  outer loop
   vertex 0.094714000821113586 0.0039209998212754726 -0.066040001809597015
   vertex 0.095100000500679016 0 -0.033959999680519104
   vertex 0.095100000500679016 0 -0.066040001809597015
  endloop
 endfacet
 facet normal 0 0 -1
  outer loop
   vertex 0.020099999383091927 0 -0.066040001809597015
   vertex 0.019713999703526497 0.0039209998212754726 -0.066040001809597015
   vertex 0.094714000821113586 0.0039209998212754726 -0.066040001809597015
  endloop
 endfacet
 facet normal 0 -0 -1
  outer loop
   vertex 0.020099999383091927 0 -0.066040001809597015
   vertex 0.094714000821113586 0.0039209998212754726 -0.066040001809597015
   vertex 0.095100000500679016 0 -0.066040001809597015
  endloop
 endfacet
 facet normal 0 -0 1
  outer loop
   vertex 0.019713999703526497 0.0039209998212754726 -0.033959999680519104
   vertex 0.020099999383091927 0 -0.033959999680519104
   vertex 0.095100000500679016 0 -0.033959999680519104
  endloop
 endfacet
 facet normal 0 0 1
  outer loop
   vertex 0.019713999703526497 0.0039209998212754726 -0.033959999680519104
   vertex 0.095100000500679016 0 -0.033959999680519104
   vertex 0.094714000821113586 0.0039209998212754726 -0.033959999680519104
  endloop
 endfacet
 facet normal 0 -1 0
  outer loop
   vertex 0.019713999703526497 -0.0039209998212754726 -0.033959999680519104
   vertex 0.019713999703526497 -0.0039209998212754726 -0.066040001809597015
   vertex 0.094714000821113586 -0.0039209998212754726 -0.066040001809597015
  endloop
 endfacet
 facet normal 0 -1 0
  outer loop
   vertex 0.019713999703526497 -0.0039209998212754726 -0.033959999680519104
   vertex 0.094714000821113586 -0.0039209998212754726 -0.066040001809597015
   vertex 0.094714000821113586 -0.0039209998212754726 -0.033959999680519104
  endloop
 endfacet
 facet normal -0 1 0
  outer loop
   vertex 0.019713999703526497 0.0039209998212754726 -0.066040001809597015
   vertex 0.019713999703526497 0.0039209998212754726 -0.033959999680519104
   vertex 0.094714000821113586 0.0039209998212754726 -0.033959999680519104
  endloop
 endfacet
 facet normal 0 1 0
  outer loop
   vertex 0.019713999703526497 0.0039209998212754726 -0.066040001809597015
   vertex 0.094714000821113586 0.0039209998212754726 -0.033959999680519104
   vertex 0.094714000821113586 0.0039209998212754726 -0.066040001809597015
  endloop
 endfacet
 facet normal -0.99518930816631779 0.097970612488878284 0
  outer loop
   vertex -0.095100000500679016 0 -0.066040001809597015
   vertex -0.095100000500679016 0 -0.033959999680519104
   vertex -0.094714000821113586 0.0039209998212754726 -0.033959999680519104
  endloop
 endfacet
 facet normal -0.99518930816631779 0.097970612488878284 0
  outer loop
   vertex -0.095100000500679016 0 -0.066040001809597015
   vertex -0.094714000821113586 0.0039209998212754726 -0.033959999680519104
   vertex -0.094714000821113586 0.0039209998212754726 -0.066040001809597015
  endloop
 endfacet
 facet normal -0.99518930816631779 -0.097970612488878284 -0
  outer loop
   vertex -0.094714000821113586 -0.0039209998212754726 -0.066040001809597015
   vertex -0.094714000821113586 -0.0039209998212754726 -0.033959999680519104
   vertex -0.095100000500679016 0 -0.033959999680519104
  endloop
 endfacet
 facet normal -0.99518930816631779 -0.097970612488878284 -0
  outer loop
   vertex -0.094714000821113586 -0.0039209998212754726 -0.066040001809597015
   vertex -0.095100000500679016 0 -0.033959999680519104
   vertex -0.095100000500679016 0 -0.066040001809597015
  endloop
 endfacet
 facet normal 0 0 -1
  outer loop
   vertex -0.020099999383091927 0 -0.066040001809597015
   vertex -0.019713999703526497 -0.0039209998212754726 -0.066040001809597015
   vertex -0.094714000821113586 -0.0039209998212754726 -0.066040001809597015
  endloop
 endfacet
 facet normal 0 0 -1
  outer loop
   vertex -0.020099999383091927 0 -0.066040001809597015
   vertex -0.094714000821113586 -0.0039209998212754726 -0.066040001809597015
   vertex -0.095100000500679016 0 -0.066040001809597015
  endloop
 endfacet
 facet normal 0 1 -0
  outer loop
   vertex -0.019713999703526497 0.0039209998212754726 -0.033959999680519104
   vertex -0.019713999703526497 0.0039209998212754726 -0.066040001809597015
   vertex -0.094714000821113586 0.0039209998212754726 -0.066040001809597015
  endloop
 endfacet
 facet normal 0 1 0
  outer loop
   vertex -0.019713999703526497 0.0039209998212754726 -0.033959999680519104
   vertex -0.094714000821113586 0.0039209998212754726 -0.066040001809597015
   vertex -0.094714000821113586 0.0039209998212754726 -0.033959999680519104
  endloop
 endfacet
 facet normal 0 0 -1
  outer loop
   vertex -0.019713999703526497 0.0039209998212754726 -0.066040001809597015
   vertex -0.020099999383091927 0 -0.066040001809597015
   vertex -0.095100000500679016 0 -0.066040001809597015
  endloop
 endfacet
 facet normal 0 0 -1
  outer loop
   vertex -0.019713999703526497 0.0039209998212754726 -0.066040001809597015
   vertex -0.095100000500679016 0 -0.066040001809597015
   vertex -0.094714000821113586 0.0039209998212754726 -0.066040001809597015
  endloop
 endfacet
 facet normal 0 0 1
  outer loop
   vertex -0.020099999383091927 0 -0.033959999680519104
   vertex -0.019713999703526497 0.0039209998212754726 -0.033959999680519104
   vertex -0.094714000821113586 0.0039209998212754726 -0.033959999680519104
  endloop
 endfacet
 facet normal 0 0 1
  outer loop
   vertex -0.020099999383091927 0 -0.033959999680519104
   vertex -0.094714000821113586 0.0039209998212754726 -0.033959999680519104
   vertex -0.095100000500679016 0 -0.033959999680519104
  endloop
 endfacet
 facet normal 0.097970612488878284 0.99518930816631779 0
  outer loop
   vertex 0 0.095100000500679016 -0.066040001809597015
   vertex 0 0.095100000500679016 -0.033959999680519104
   vertex 0.0039209998212754726 0.094714000821113586 -0.033959999680519104
  endloop
 endfacet
 facet normal 0.097970612488878284 0.99518930816631779 0
  outer loop
   vertex 0 0.095100000500679016 -0.066040001809597015
   vertex 0.0039209998212754726 0.094714000821113586 -0.033959999680519104
   vertex 0.0039209998212754726 0.094714000821113586 -0.066040001809597015
  endloop
 endfacet
 facet normal -0.097970612488878284 0.99518930816631779 0
  outer loop
   vertex -0.0039209998212754726 0.094714000821113586 -0.066040001809597015
   vertex -0.0039209998212754726 0.094714000821113586 -0.033959999680519104
   vertex 0 0.095100000500679016 -0.033959999680519104
  endloop
 endfacet
 facet normal -0.097970612488878284 0.99518930816631779 0
  outer loop
   vertex -0.0039209998212754726 0.094714000821113586 -0.066040001809597015
   vertex 0 0.095100000500679016 -0.033959999680519104
   vertex 0 0.095100000500679016 -0.066040001809597015
  endloop
 endfacet
 facet normal 1 0 0
  outer loop
   vertex 0.0039209998212754726 0.019713999703526497 -0.033959999680519104
   vertex 0.0039209998212754726 0.019713999703526497 -0.066040001809597015
   vertex 0.0039209998212754726 0.094714000821113586 -0.066040001809597015
  endloop
 endfacet
 facet normal 1 0 -0
  outer loop
   vertex 0.0039209998212754726 0.019713999703526497 -0.033959999680519104
   vertex 0.0039209998212754726 0.094714000821113586 -0.066040001809597015
   vertex 0.0039209998212754726 0.094714000821113586 -0.033959999680519104
  endloop
 endfacet
 facet normal 0 0 -1
  outer loop
   vertex 0.0039209998212754726 0.019713999703526497 -0.066040001809597015
   vertex 0 0.020099999383091927 -0.066040001809597015
   vertex 0 0.095100000500679016 -0.066040001809597015
  endloop
 endfacet
 facet normal 0 0 -1
  outer loop
   vertex 0.0039209998212754726 0.019713999703526497 -0.066040001809597015
   vertex 0 0.095100000500679016 -0.066040001809597015
   vertex 0.0039209998212754726 0.094714000821113586 -0.066040001809597015
  endloop
 endfacet
 facet normal 0 -0 1
  outer loop
   vertex 0 0.020099999383091927 -0.033959999680519104
   vertex 0.0039209998212754726 0.019713999703526497 -0.033959999680519104
   vertex 0.0039209998212754726 0.094714000821113586 -0.033959999680519104
  endloop
 endfacet
 facet normal 0 0 1
  outer loop
   vertex 0 0.020099999383091927 -0.033959999680519104
   vertex 0.0039209998212754726 0.094714000821113586 -0.033959999680519104
   vertex 0 0.095100000500679016 -0.033959999680519104
  endloop
 endfacet
 facet normal 0 0 -1
  outer loop
   vertex 0 0.020099999383091927 -0.066040001809597015
   vertex -0.0039209998212754726 0.019713999703526497 -0.066040001809597015
   vertex -0.0039209998212754726 0.094714000821113586 -0.066040001809597015
  endloop
 endfacet
 facet normal 0 0 -1
  outer loop
   vertex 0 0.020099999383091927 -0.066040001809597015
   vertex -0.0039209998212754726 0.094714000821113586 -0.066040001809597015
   vertex 0 0.095100000500679016 -0.066040001809597015
  endloop
 endfacet
 facet normal -0.097970612488878284 -0.99518930816631779 -0
  outer loop
   vertex 0 -0.095100000500679016 -0.066040001809597015
   vertex 0 -0.095100000500679016 -0.033959999680519104
   vertex -0.0039209998212754726 -0.094714000821113586 -0.033959999680519104
  endloop
 endfacet
 facet normal -0.097970612488878284 -0.99518930816631779 -0
  outer loop
   vertex 0 -0.095100000500679016 -0.066040001809597015
   vertex -0.0039209998212754726 -0.094714000821113586 -0.033959999680519104
   vertex -0.0039209998212754726 -0.094714000821113586 -0.066040001809597015
  endloop
 endfacet
 facet normal 0.097970612488878284 -0.99518930816631779 0
  outer loop
   vertex 0.0039209998212754726 -0.094714000821113586 -0.066040001809597015
   vertex 0.0039209998212754726 -0.094714000821113586 -0.033959999680519104
   vertex 0 -0.095100000500679016 -0.033959999680519104
  endloop
 endfacet
 facet normal 0.097970612488878284 -0.99518930816631779 0
  outer loop
   vertex 0.0039209998212754726 -0.094714000821113586 -0.066040001809597015
   vertex 0 -0.095100000500679016 -0.033959999680519104
   vertex 0 -0.095100000500679016 -0.066040001809597015
  endloop
 endfacet
 facet normal 0 -0 -1
  outer loop
   vertex 0 -0.020099999383091927 -0.066040001809597015
   vertex 0.0039209998212754726 -0.019713999703526497 -0.066040001809597015
   vertex 0.0039209998212754726 -0.094714000821113586 -0.066040001809597015
  endloop
 endfacet
 facet normal -0 0 -1
  outer loop
   vertex 0 -0.020099999383091927 -0.066040001809597015
   vertex 0.0039209998212754726 -0.094714000821113586 -0.066040001809597015
   vertex 0 -0.095100000500679016 -0.066040001809597015
  endloop
 endfacet
 facet normal -0 -0 -1
  outer loop
   vertex -0.0039209998212754726 -0.019713999703526497 -0.066040001809597015
   vertex 0 -0.020099999383091927 -0.066040001809597015
   vertex 0 -0.095100000500679016 -0.066040001809597015
  endloop
 endfacet
 facet normal 0 0 -1
  outer loop
   vertex -0.0039209998212754726 -0.019713999703526497 -0.066040001809597015
   vertex 0 -0.095100000500679016 -0.066040001809597015
   vertex -0.0039209998212754726 -0.094714000821113586 -0.066040001809597015
  endloop
 endfacet
 facet normal -0 0 1
  outer loop
   vertex 0.0039209998212754726 -0.019713999703526497 -0.033959999680519104
   vertex 0 -0.020099999383091927 -0.033959999680519104
   vertex 0 -0.095100000500679016 -0.033959999680519104
  endloop
 endfacet
 facet normal 0 0 1
  outer loop
   vertex 0.0039209998212754726 -0.019713999703526497 -0.033959999680519104
   vertex 0 -0.095100000500679016 -0.033959999680519104
   vertex 0.0039209998212754726 -0.094714000821113586 -0.033959999680519104
  endloop
 endfacet
 facet normal 0 0 1
  outer loop
   vertex 0 -0.020099999383091927 -0.033959999680519104
   vertex -0.0039209998212754726 -0.019713999703526497 -0.033959999680519104
   vertex -0.0039209998212754726 -0.094714000821113586 -0.033959999680519104
  endloop
 endfacet
 facet normal -0 0 1
  outer loop
   vertex 0 -0.020099999383091927 -0.033959999680519104
   vertex -0.0039209998212754726 -0.094714000821113586 -0.033959999680519104
   vertex 0 -0.095100000500679016 -0.033959999680519104
  endloop
 endfacet
endsolid
