solid Visualization Toolkit generated SLA File
 facet normal 0 1 0
  outer loop
   vertex 0.029794000089168549 0 0.036905001848936081
   vertex 0.02500000037252903 0 0.043301001191139221
   vertex 0.032138999551534653 0 0.038302000612020493
  endloop
 endfacet
 facet normal 0 1 0
  outer loop
   vertex 0.029794000089168549 0 0.036905001848936081
   vertex 0.032138999551534653 0 0.038302000612020493
   vertex 0.038302000612020493 0 0.032138999551534653
  endloop
 endfacet
 facet normal 0 1 0
  outer loop
   vertex 0.038894001394510269 0 0
   vertex 0.038302000612020493 0 0.010214000009000301
   vertex 0.049240000545978546 0 0.0086820004507899284
  endloop
 endfacet
 facet normal 0 1 0
  outer loop
   vertex 0.038894001394510269 0 0
   vertex 0.049240000545978546 0 0.0086820004507899284
   vertex 0.05000000074505806 0 0
  endloop
 endfacet
 facet normal -0 1 0
  outer loop
   vertex 0.033682998269796371 0 -0.029040999710559845
   vertex 0.036547999829053879 0 -0.020023999735713005
   vertex 0.046985000371932983 0 -0.017100999131798744
  endloop
 endfacet
 facet normal 0 1 0
  outer loop
   vertex 0.033682998269796371 0 -0.029040999710559845
   vertex 0.046985000371932983 0 -0.017100999131798744
   vertex 0.043301001191139221 0 -0.02500000037252903
  endloop
 endfacet
 facet normal -0 1 0
  outer loop
   vertex 0.029794000089168549 0 -0.036905001848936081
   vertex 0.033682998269796371 0 -0.029040999710559845
   vertex 0.043301001191139221 0 -0.02500000037252903
  endloop
 endfacet
 facet normal 0 1 0
  outer loop
   vertex 0.029794000089168549 0 -0.036905001848936081
   vertex 0.043301001191139221 0 -0.02500000037252903
   vertex 0.038302000612020493 0 -0.032138999551534653
  endloop
 endfacet
 facet normal 0 1 0
  outer loop
   vertex 0.023040000349283218 0 0.032019000500440598
   vertex 0.020379999652504921 0 0.040417000651359558
   vertex 0.029794000089168549 0 0.036905001848936081
  endloop
 endfacet
 facet normal 0 1 0
  outer loop
   vertex 0.023040000349283218 0 0.032019000500440598
   vertex 0.029794000089168549 0 0.036905001848936081
   vertex 0.033682998269796371 0 0.029040999710559845
  endloop
 endfacet
 facet normal 0 1 0
  outer loop
   vertex 0.02500000037252903 0 0.022179000079631805
   vertex 0.023040000349283218 0 0.032019000500440598
   vertex 0.033682998269796371 0 0.029040999710559845
  endloop
 endfacet
 facet normal 0 1 0
  outer loop
   vertex 0.02500000037252903 0 0.022179000079631805
   vertex 0.033682998269796371 0 0.029040999710559845
   vertex 0.036547999829053879 0 0.020023999735713005
  endloop
 endfacet
 facet normal -0 1 0
  outer loop
   vertex 0.026200000196695328 0 -0.011343000456690788
   vertex 0.026605000719428062 0 0
   vertex 0.038894001394510269 0 0
  endloop
 endfacet
 facet normal 0 1 0
  outer loop
   vertex 0.026200000196695328 0 -0.011343000456690788
   vertex 0.038894001394510269 0 0
   vertex 0.038302000612020493 0 -0.010214000009000301
  endloop
 endfacet
 facet normal -0 1 0
  outer loop
   vertex 0.02500000037252903 0 -0.022179000079631805
   vertex 0.026200000196695328 0 -0.011343000456690788
   vertex 0.038302000612020493 0 -0.010214000009000301
  endloop
 endfacet
 facet normal 0 1 0
  outer loop
   vertex 0.02500000037252903 0 -0.022179000079631805
   vertex 0.038302000612020493 0 -0.010214000009000301
   vertex 0.036547999829053879 0 -0.020023999735713005
  endloop
 endfacet
 facet normal -0 1 0
  outer loop
   vertex 0.023040000349283218 0 -0.032019000500440598
   vertex 0.02500000037252903 0 -0.022179000079631805
   vertex 0.036547999829053879 0 -0.020023999735713005
  endloop
 endfacet
 facet normal 0 1 0
  outer loop
   vertex 0.023040000349283218 0 -0.032019000500440598
   vertex 0.036547999829053879 0 -0.020023999735713005
   vertex 0.033682998269796371 0 -0.029040999710559845
  endloop
 endfacet
 facet normal 0 1 0
  outer loop
   vertex 0.01169699989259243 0 0.033842001110315323
   vertex 0.010347000323235989 0 0.042566999793052673
   vertex 0.020379999652504921 0 0.040417000651359558
  endloop
 endfacet
 facet normal 0 1 0
  outer loop
   vertex 0.01169699989259243 0 0.033842001110315323
   vertex 0.020379999652504921 0 0.040417000651359558
   vertex 0.023040000349283218 0 0.032019000500440598
  endloop
 endfacet
 facet normal 0 1 0
  outer loop
   vertex 0.036547999829053879 0 0.020023999735713005
   vertex 0.033682998269796371 0 0.029040999710559845
   vertex 0.043301001191139221 0 0.02500000037252903
  endloop
 endfacet
 facet normal 0 1 0
  outer loop
   vertex 0.036547999829053879 0 0.020023999735713005
   vertex 0.043301001191139221 0 0.02500000037252903
   vertex 0.046985000371932983 0 0.017100999131798744
  endloop
 endfacet
 facet normal 0 1 0
  outer loop
   vertex 0.033682998269796371 0 0.029040999710559845
   vertex 0.029794000089168549 0 0.036905001848936081
   vertex 0.038302000612020493 0 0.032138999551534653
  endloop
 endfacet
 facet normal 0 1 0
  outer loop
   vertex 0.033682998269796371 0 0.029040999710559845
   vertex 0.038302000612020493 0 0.032138999551534653
   vertex 0.043301001191139221 0 0.02500000037252903
  endloop
 endfacet
 facet normal -0 1 0
  outer loop
   vertex 0.01169699989259243 0 -0.033842001110315323
   vertex 0.012691999785602093 0 -0.023497000336647034
   vertex 0.02500000037252903 0 -0.022179000079631805
  endloop
 endfacet
 facet normal 0 1 0
  outer loop
   vertex 0.01169699989259243 0 -0.033842001110315323
   vertex 0.02500000037252903 0 -0.022179000079631805
   vertex 0.023040000349283218 0 -0.032019000500440598
  endloop
 endfacet
 facet normal 0 1 0
  outer loop
   vertex 0 0 0.043292000889778137
   vertex 0 0 0.05000000074505806
   vertex 0.0086820004507899284 0 0.049240000545978546
  endloop
 endfacet
 facet normal 0 1 0
  outer loop
   vertex 0 0 0.043292000889778137
   vertex 0.0086820004507899284 0 0.049240000545978546
   vertex 0.010347000323235989 0 0.042566999793052673
  endloop
 endfacet
 facet normal 0 1 0
  outer loop
   vertex 0 0 0.034455999732017517
   vertex 0 0 0.043292000889778137
   vertex 0.010347000323235989 0 0.042566999793052673
  endloop
 endfacet
 facet normal 0 1 0
  outer loop
   vertex 0 0 0.034455999732017517
   vertex 0.010347000323235989 0 0.042566999793052673
   vertex 0.01169699989259243 0 0.033842001110315323
  endloop
 endfacet
 facet normal 0 1 0
  outer loop
   vertex 0 0 0.012265999801456928
   vertex 0 0 0.023941999301314354
   vertex 0.012691999785602093 0 0.023497000336647034
  endloop
 endfacet
 facet normal 0 1 0
  outer loop
   vertex 0 0 0.012265999801456928
   vertex 0.012691999785602093 0 0.023497000336647034
   vertex 0.013302000239491463 0 0.012033999897539616
  endloop
 endfacet
 facet normal 0 1 0
  outer loop
   vertex 0 0 0
   vertex 0 0 0.012265999801456928
   vertex 0.013302000239491463 0 0.012033999897539616
  endloop
 endfacet
 facet normal 0 1 0
  outer loop
   vertex 0 0 0
   vertex 0.013302000239491463 0 0.012033999897539616
   vertex 0.013507000170648098 0 0
  endloop
 endfacet
 facet normal -0 1 0
  outer loop
   vertex 0 0 -0.034455999732017517
   vertex 0 0 -0.023941999301314354
   vertex 0.012691999785602093 0 -0.023497000336647034
  endloop
 endfacet
 facet normal 0 1 0
  outer loop
   vertex 0 0 -0.034455999732017517
   vertex 0.012691999785602093 0 -0.023497000336647034
   vertex 0.01169699989259243 0 -0.033842001110315323
  endloop
 endfacet
 facet normal -0 1 0
  outer loop
   vertex 0 0 -0.05000000074505806
   vertex 0 0 -0.043292000889778137
   vertex 0.010347000323235989 0 -0.042566999793052673
  endloop
 endfacet
 facet normal 0 1 0
  outer loop
   vertex 0 0 -0.05000000074505806
   vertex 0.010347000323235989 0 -0.042566999793052673
   vertex 0.0086820004507899284 0 -0.049240000545978546
  endloop
 endfacet
 facet normal 0 1 0
  outer loop
   vertex 0.038302000612020493 0 0.010214000009000301
   vertex 0.036547999829053879 0 0.020023999735713005
   vertex 0.046985000371932983 0 0.017100999131798744
  endloop
 endfacet
 facet normal 0 1 0
  outer loop
   vertex 0.038302000612020493 0 0.010214000009000301
   vertex 0.046985000371932983 0 0.017100999131798744
   vertex 0.049240000545978546 0 0.0086820004507899284
  endloop
 endfacet
 facet normal -0 1 0
  outer loop
   vertex -0.012691999785602093 0 0.023497000336647034
   vertex -0.01169699989259243 0 0.033842001110315323
   vertex 0 0 0.034455999732017517
  endloop
 endfacet
 facet normal 0 1 0
  outer loop
   vertex -0.012691999785602093 0 0.023497000336647034
   vertex 0 0 0.034455999732017517
   vertex 0 0 0.023941999301314354
  endloop
 endfacet
 facet normal -0 1 0
  outer loop
   vertex -0.013302000239491463 0 -0.012033999897539616
   vertex -0.013507000170648098 0 0
   vertex 0 0 0
  endloop
 endfacet
 facet normal 0 1 0
  outer loop
   vertex -0.013302000239491463 0 -0.012033999897539616
   vertex 0 0 0
   vertex 0 0 -0.012265999801456928
  endloop
 endfacet
 facet normal 0 1 0
  outer loop
   vertex -0.012691999785602093 0 -0.023497000336647034
   vertex -0.013302000239491463 0 -0.012033999897539616
   vertex 0 0 -0.012265999801456928
  endloop
 endfacet
 facet normal 0 1 0
  outer loop
   vertex -0.012691999785602093 0 -0.023497000336647034
   vertex 0 0 -0.012265999801456928
   vertex 0 0 -0.023941999301314354
  endloop
 endfacet
 facet normal 0 1 0
  outer loop
   vertex -0.0086820004507899284 0 -0.049240000545978546
   vertex -0.010347000323235989 0 -0.042566999793052673
   vertex 0 0 -0.043292000889778137
  endloop
 endfacet
 facet normal 0 1 0
  outer loop
   vertex -0.0086820004507899284 0 -0.049240000545978546
   vertex 0 0 -0.043292000889778137
   vertex 0 0 -0.05000000074505806
  endloop
 endfacet
 facet normal -0 1 0
  outer loop
   vertex -0.020379999652504921 0 0.040417000651359558
   vertex -0.017100999131798744 0 0.046985000371932983
   vertex -0.0086820004507899284 0 0.049240000545978546
  endloop
 endfacet
 facet normal 0 1 0
  outer loop
   vertex -0.020379999652504921 0 0.040417000651359558
   vertex -0.0086820004507899284 0 0.049240000545978546
   vertex -0.010347000323235989 0 0.042566999793052673
  endloop
 endfacet
 facet normal -0 1 0
  outer loop
   vertex -0.026200000196695328 0 0.011343000456690788
   vertex -0.02500000037252903 0 0.022179000079631805
   vertex -0.012691999785602093 0 0.023497000336647034
  endloop
 endfacet
 facet normal 0 1 0
  outer loop
   vertex -0.026200000196695328 0 0.011343000456690788
   vertex -0.012691999785602093 0 0.023497000336647034
   vertex -0.013302000239491463 0 0.012033999897539616
  endloop
 endfacet
 facet normal -0 1 0
  outer loop
   vertex 0.036547999829053879 0 -0.020023999735713005
   vertex 0.038302000612020493 0 -0.010214000009000301
   vertex 0.049240000545978546 0 -0.0086820004507899284
  endloop
 endfacet
 facet normal 0 1 0
  outer loop
   vertex 0.036547999829053879 0 -0.020023999735713005
   vertex 0.049240000545978546 0 -0.0086820004507899284
   vertex 0.046985000371932983 0 -0.017100999131798744
  endloop
 endfacet
 facet normal -0 1 0
  outer loop
   vertex 0.038302000612020493 0 -0.010214000009000301
   vertex 0.038894001394510269 0 0
   vertex 0.05000000074505806 0 0
  endloop
 endfacet
 facet normal 0 1 0
  outer loop
   vertex 0.038302000612020493 0 -0.010214000009000301
   vertex 0.05000000074505806 0 0
   vertex 0.049240000545978546 0 -0.0086820004507899284
  endloop
 endfacet
 facet normal 0 1 0
  outer loop
   vertex 0.020379999652504921 0 0.040417000651359558
   vertex 0.017100999131798744 0 0.046985000371932983
   vertex 0.02500000037252903 0 0.043301001191139221
  endloop
 endfacet
 facet normal 0 1 0
  outer loop
   vertex 0.020379999652504921 0 0.040417000651359558
   vertex 0.02500000037252903 0 0.043301001191139221
   vertex 0.029794000089168549 0 0.036905001848936081
  endloop
 endfacet
 facet normal -0 1 0
  outer loop
   vertex 0.02500000037252903 0 -0.043301001191139221
   vertex 0.029794000089168549 0 -0.036905001848936081
   vertex 0.038302000612020493 0 -0.032138999551534653
  endloop
 endfacet
 facet normal 0 1 0
  outer loop
   vertex 0.02500000037252903 0 -0.043301001191139221
   vertex 0.038302000612020493 0 -0.032138999551534653
   vertex 0.032138999551534653 0 -0.038302000612020493
  endloop
 endfacet
 facet normal 0 1 0
  outer loop
   vertex 0.026605000719428062 0 0
   vertex 0.026200000196695328 0 0.011343000456690788
   vertex 0.038302000612020493 0 0.010214000009000301
  endloop
 endfacet
 facet normal 0 1 0
  outer loop
   vertex 0.026605000719428062 0 0
   vertex 0.038302000612020493 0 0.010214000009000301
   vertex 0.038894001394510269 0 0
  endloop
 endfacet
 facet normal 0 1 0
  outer loop
   vertex 0.026200000196695328 0 0.011343000456690788
   vertex 0.02500000037252903 0 0.022179000079631805
   vertex 0.036547999829053879 0 0.020023999735713005
  endloop
 endfacet
 facet normal 0 1 0
  outer loop
   vertex 0.026200000196695328 0 0.011343000456690788
   vertex 0.036547999829053879 0 0.020023999735713005
   vertex 0.038302000612020493 0 0.010214000009000301
  endloop
 endfacet
 facet normal -0 1 0
  outer loop
   vertex -0.026200000196695328 0 -0.011343000456690788
   vertex -0.026605000719428062 0 0
   vertex -0.013507000170648098 0 0
  endloop
 endfacet
 facet normal 0 1 0
  outer loop
   vertex -0.026200000196695328 0 -0.011343000456690788
   vertex -0.013507000170648098 0 0
   vertex -0.013302000239491463 0 -0.012033999897539616
  endloop
 endfacet
 facet normal -0 1 0
  outer loop
   vertex -0.029794000089168549 0 0.036905001848936081
   vertex -0.02500000037252903 0 0.043301001191139221
   vertex -0.017100999131798744 0 0.046985000371932983
  endloop
 endfacet
 facet normal 0 1 0
  outer loop
   vertex -0.029794000089168549 0 0.036905001848936081
   vertex -0.017100999131798744 0 0.046985000371932983
   vertex -0.020379999652504921 0 0.040417000651359558
  endloop
 endfacet
 facet normal 0 1 0
  outer loop
   vertex -0.023040000349283218 0 -0.032019000500440598
   vertex -0.02500000037252903 0 -0.022179000079631805
   vertex -0.012691999785602093 0 -0.023497000336647034
  endloop
 endfacet
 facet normal 0 1 0
  outer loop
   vertex -0.023040000349283218 0 -0.032019000500440598
   vertex -0.012691999785602093 0 -0.023497000336647034
   vertex -0.01169699989259243 0 -0.033842001110315323
  endloop
 endfacet
 facet normal 0 1 0
  outer loop
   vertex -0.02500000037252903 0 -0.022179000079631805
   vertex -0.026200000196695328 0 -0.011343000456690788
   vertex -0.013302000239491463 0 -0.012033999897539616
  endloop
 endfacet
 facet normal 0 1 0
  outer loop
   vertex -0.02500000037252903 0 -0.022179000079631805
   vertex -0.013302000239491463 0 -0.012033999897539616
   vertex -0.012691999785602093 0 -0.023497000336647034
  endloop
 endfacet
 facet normal -0 1 0
  outer loop
   vertex -0.038302000612020493 0 -0.010214000009000301
   vertex -0.038894001394510269 0 0
   vertex -0.026605000719428062 0 0
  endloop
 endfacet
 facet normal 0 1 0
  outer loop
   vertex -0.038302000612020493 0 -0.010214000009000301
   vertex -0.026605000719428062 0 0
   vertex -0.026200000196695328 0 -0.011343000456690788
  endloop
 endfacet
 facet normal -0 1 0
  outer loop
   vertex -0.038894001394510269 0 0
   vertex -0.038302000612020493 0 0.010214000009000301
   vertex -0.026200000196695328 0 0.011343000456690788
  endloop
 endfacet
 facet normal 0 1 0
  outer loop
   vertex -0.038894001394510269 0 0
   vertex -0.026200000196695328 0 0.011343000456690788
   vertex -0.026605000719428062 0 0
  endloop
 endfacet
 facet normal -0 1 0
  outer loop
   vertex -0.033682998269796371 0 0.029040999710559845
   vertex -0.029794000089168549 0 0.036905001848936081
   vertex -0.020379999652504921 0 0.040417000651359558
  endloop
 endfacet
 facet normal 0 1 0
  outer loop
   vertex -0.033682998269796371 0 0.029040999710559845
   vertex -0.020379999652504921 0 0.040417000651359558
   vertex -0.023040000349283218 0 0.032019000500440598
  endloop
 endfacet
 facet normal -0 1 0
  outer loop
   vertex -0.043301001191139221 0 0.02500000037252903
   vertex -0.038302000612020493 0 0.032138999551534653
   vertex -0.029794000089168549 0 0.036905001848936081
  endloop
 endfacet
 facet normal 0 1 0
  outer loop
   vertex -0.043301001191139221 0 0.02500000037252903
   vertex -0.029794000089168549 0 0.036905001848936081
   vertex -0.033682998269796371 0 0.029040999710559845
  endloop
 endfacet
 facet normal -0 1 0
  outer loop
   vertex -0.036547999829053879 0 0.020023999735713005
   vertex -0.033682998269796371 0 0.029040999710559845
   vertex -0.023040000349283218 0 0.032019000500440598
  endloop
 endfacet
 facet normal 0 1 0
  outer loop
   vertex -0.036547999829053879 0 0.020023999735713005
   vertex -0.023040000349283218 0 0.032019000500440598
   vertex -0.02500000037252903 0 0.022179000079631805
  endloop
 endfacet
 facet normal -0 1 0
  outer loop
   vertex -0.038302000612020493 0 0.010214000009000301
   vertex -0.036547999829053879 0 0.020023999735713005
   vertex -0.02500000037252903 0 0.022179000079631805
  endloop
 endfacet
 facet normal 0 1 0
  outer loop
   vertex -0.038302000612020493 0 0.010214000009000301
   vertex -0.02500000037252903 0 0.022179000079631805
   vertex -0.026200000196695328 0 0.011343000456690788
  endloop
 endfacet
 facet normal 0 1 0
  outer loop
   vertex -0.029794000089168549 0 -0.036905001848936081
   vertex -0.033682998269796371 0 -0.029040999710559845
   vertex -0.023040000349283218 0 -0.032019000500440598
  endloop
 endfacet
 facet normal 0 1 0
  outer loop
   vertex -0.029794000089168549 0 -0.036905001848936081
   vertex -0.023040000349283218 0 -0.032019000500440598
   vertex -0.020379999652504921 0 -0.040417000651359558
  endloop
 endfacet
 facet normal 0 1 0
  outer loop
   vertex -0.02500000037252903 0 -0.043301001191139221
   vertex -0.029794000089168549 0 -0.036905001848936081
   vertex -0.020379999652504921 0 -0.040417000651359558
  endloop
 endfacet
 facet normal 0 1 0
  outer loop
   vertex -0.02500000037252903 0 -0.043301001191139221
   vertex -0.020379999652504921 0 -0.040417000651359558
   vertex -0.017100999131798744 0 -0.046985000371932983
  endloop
 endfacet
 facet normal -0 1 0
  outer loop
   vertex -0.046985000371932983 0 0.017100999131798744
   vertex -0.043301001191139221 0 0.02500000037252903
   vertex -0.033682998269796371 0 0.029040999710559845
  endloop
 endfacet
 facet normal 0 1 0
  outer loop
   vertex -0.046985000371932983 0 0.017100999131798744
   vertex -0.033682998269796371 0 0.029040999710559845
   vertex -0.036547999829053879 0 0.020023999735713005
  endloop
 endfacet
 facet normal 0 1 0
  outer loop
   vertex -0.043301001191139221 0 -0.02500000037252903
   vertex -0.046985000371932983 0 -0.017100999131798744
   vertex -0.036547999829053879 0 -0.020023999735713005
  endloop
 endfacet
 facet normal 0 1 0
  outer loop
   vertex -0.043301001191139221 0 -0.02500000037252903
   vertex -0.036547999829053879 0 -0.020023999735713005
   vertex -0.033682998269796371 0 -0.029040999710559845
  endloop
 endfacet
 facet normal -0 1 0
  outer loop
   vertex -0.049240000545978546 0 0.0086820004507899284
   vertex -0.046985000371932983 0 0.017100999131798744
   vertex -0.036547999829053879 0 0.020023999735713005
  endloop
 endfacet
 facet normal 0 1 0
  outer loop
   vertex -0.049240000545978546 0 0.0086820004507899284
   vertex -0.036547999829053879 0 0.020023999735713005
   vertex -0.038302000612020493 0 0.010214000009000301
  endloop
 endfacet
 facet normal -0 1 0
  outer loop
   vertex -0.05000000074505806 0 0
   vertex -0.049240000545978546 0 0.0086820004507899284
   vertex -0.038302000612020493 0 0.010214000009000301
  endloop
 endfacet
 facet normal 0 1 0
  outer loop
   vertex -0.05000000074505806 0 0
   vertex -0.038302000612020493 0 0.010214000009000301
   vertex -0.038894001394510269 0 0
  endloop
 endfacet
 facet normal -0 1 0
  outer loop
   vertex -0.049240000545978546 0 -0.0086820004507899284
   vertex -0.05000000074505806 0 0
   vertex -0.038894001394510269 0 0
  endloop
 endfacet
 facet normal 0 1 0
  outer loop
   vertex -0.049240000545978546 0 -0.0086820004507899284
   vertex -0.038894001394510269 0 0
   vertex -0.038302000612020493 0 -0.010214000009000301
  endloop
 endfacet
 facet normal 0 1 0
  outer loop
   vertex -0.046985000371932983 0 -0.017100999131798744
   vertex -0.049240000545978546 0 -0.0086820004507899284
   vertex -0.038302000612020493 0 -0.010214000009000301
  endloop
 endfacet
 facet normal 0 1 0
  outer loop
   vertex -0.046985000371932983 0 -0.017100999131798744
   vertex -0.038302000612020493 0 -0.010214000009000301
   vertex -0.036547999829053879 0 -0.020023999735713005
  endloop
 endfacet
 facet normal -0 1 0
  outer loop
   vertex 0.010347000323235989 0 -0.042566999793052673
   vertex 0.01169699989259243 0 -0.033842001110315323
   vertex 0.023040000349283218 0 -0.032019000500440598
  endloop
 endfacet
 facet normal 0 1 0
  outer loop
   vertex 0.010347000323235989 0 -0.042566999793052673
   vertex 0.023040000349283218 0 -0.032019000500440598
   vertex 0.020379999652504921 0 -0.040417000651359558
  endloop
 endfacet
 facet normal 0 1 0
  outer loop
   vertex -0.038302000612020493 0 -0.032138999551534653
   vertex -0.043301001191139221 0 -0.02500000037252903
   vertex -0.033682998269796371 0 -0.029040999710559845
  endloop
 endfacet
 facet normal 0 1 0
  outer loop
   vertex -0.038302000612020493 0 -0.032138999551534653
   vertex -0.033682998269796371 0 -0.029040999710559845
   vertex -0.029794000089168549 0 -0.036905001848936081
  endloop
 endfacet
 facet normal -0 1 0
  outer loop
   vertex 0.013302000239491463 0 -0.012033999897539616
   vertex 0.013507000170648098 0 0
   vertex 0.026605000719428062 0 0
  endloop
 endfacet
 facet normal 0 1 0
  outer loop
   vertex 0.013302000239491463 0 -0.012033999897539616
   vertex 0.026605000719428062 0 0
   vertex 0.026200000196695328 0 -0.011343000456690788
  endloop
 endfacet
 facet normal -0 1 0
  outer loop
   vertex 0.0086820004507899284 0 -0.049240000545978546
   vertex 0.010347000323235989 0 -0.042566999793052673
   vertex 0.020379999652504921 0 -0.040417000651359558
  endloop
 endfacet
 facet normal 0 1 0
  outer loop
   vertex 0.0086820004507899284 0 -0.049240000545978546
   vertex 0.020379999652504921 0 -0.040417000651359558
   vertex 0.017100999131798744 0 -0.046985000371932983
  endloop
 endfacet
 facet normal 0 1 0
  outer loop
   vertex 0.013507000170648098 0 0
   vertex 0.013302000239491463 0 0.012033999897539616
   vertex 0.026200000196695328 0 0.011343000456690788
  endloop
 endfacet
 facet normal 0 1 0
  outer loop
   vertex 0.013507000170648098 0 0
   vertex 0.026200000196695328 0 0.011343000456690788
   vertex 0.026605000719428062 0 0
  endloop
 endfacet
 facet normal -0 1 0
  outer loop
   vertex 0.012691999785602093 0 -0.023497000336647034
   vertex 0.013302000239491463 0 -0.012033999897539616
   vertex 0.026200000196695328 0 -0.011343000456690788
  endloop
 endfacet
 facet normal 0 1 0
  outer loop
   vertex 0.012691999785602093 0 -0.023497000336647034
   vertex 0.026200000196695328 0 -0.011343000456690788
   vertex 0.02500000037252903 0 -0.022179000079631805
  endloop
 endfacet
 facet normal 0 1 0
  outer loop
   vertex -0.017100999131798744 0 -0.046985000371932983
   vertex -0.020379999652504921 0 -0.040417000651359558
   vertex -0.010347000323235989 0 -0.042566999793052673
  endloop
 endfacet
 facet normal 0 1 0
  outer loop
   vertex -0.017100999131798744 0 -0.046985000371932983
   vertex -0.010347000323235989 0 -0.042566999793052673
   vertex -0.0086820004507899284 0 -0.049240000545978546
  endloop
 endfacet
 facet normal -0 1 0
  outer loop
   vertex -0.026605000719428062 0 0
   vertex -0.026200000196695328 0 0.011343000456690788
   vertex -0.013302000239491463 0 0.012033999897539616
  endloop
 endfacet
 facet normal 0 1 0
  outer loop
   vertex -0.026605000719428062 0 0
   vertex -0.013302000239491463 0 0.012033999897539616
   vertex -0.013507000170648098 0 0
  endloop
 endfacet
 facet normal 0 1 0
  outer loop
   vertex -0.033682998269796371 0 -0.029040999710559845
   vertex -0.036547999829053879 0 -0.020023999735713005
   vertex -0.02500000037252903 0 -0.022179000079631805
  endloop
 endfacet
 facet normal 0 1 0
  outer loop
   vertex -0.033682998269796371 0 -0.029040999710559845
   vertex -0.02500000037252903 0 -0.022179000079631805
   vertex -0.023040000349283218 0 -0.032019000500440598
  endloop
 endfacet
 facet normal 0 1 0
  outer loop
   vertex -0.020379999652504921 0 -0.040417000651359558
   vertex -0.023040000349283218 0 -0.032019000500440598
   vertex -0.01169699989259243 0 -0.033842001110315323
  endloop
 endfacet
 facet normal 0 1 0
  outer loop
   vertex -0.020379999652504921 0 -0.040417000651359558
   vertex -0.01169699989259243 0 -0.033842001110315323
   vertex -0.010347000323235989 0 -0.042566999793052673
  endloop
 endfacet
 facet normal -0 1 0
  outer loop
   vertex -0.038302000612020493 0 0.032138999551534653
   vertex -0.032138999551534653 0 0.038302000612020493
   vertex -0.02500000037252903 0 0.043301001191139221
  endloop
 endfacet
 facet normal 0 1 0
  outer loop
   vertex -0.038302000612020493 0 0.032138999551534653
   vertex -0.02500000037252903 0 0.043301001191139221
   vertex -0.029794000089168549 0 0.036905001848936081
  endloop
 endfacet
 facet normal 0 1 0
  outer loop
   vertex -0.036547999829053879 0 -0.020023999735713005
   vertex -0.038302000612020493 0 -0.010214000009000301
   vertex -0.026200000196695328 0 -0.011343000456690788
  endloop
 endfacet
 facet normal 0 1 0
  outer loop
   vertex -0.036547999829053879 0 -0.020023999735713005
   vertex -0.026200000196695328 0 -0.011343000456690788
   vertex -0.02500000037252903 0 -0.022179000079631805
  endloop
 endfacet
 facet normal -0 1 0
  outer loop
   vertex -0.02500000037252903 0 0.022179000079631805
   vertex -0.023040000349283218 0 0.032019000500440598
   vertex -0.01169699989259243 0 0.033842001110315323
  endloop
 endfacet
 facet normal 0 1 0
  outer loop
   vertex -0.02500000037252903 0 0.022179000079631805
   vertex -0.01169699989259243 0 0.033842001110315323
   vertex -0.012691999785602093 0 0.023497000336647034
  endloop
 endfacet
 facet normal -0 1 0
  outer loop
   vertex -0.023040000349283218 0 0.032019000500440598
   vertex -0.020379999652504921 0 0.040417000651359558
   vertex -0.010347000323235989 0 0.042566999793052673
  endloop
 endfacet
 facet normal 0 1 0
  outer loop
   vertex -0.023040000349283218 0 0.032019000500440598
   vertex -0.010347000323235989 0 0.042566999793052673
   vertex -0.01169699989259243 0 0.033842001110315323
  endloop
 endfacet
 facet normal 0 1 0
  outer loop
   vertex -0.010347000323235989 0 -0.042566999793052673
   vertex -0.01169699989259243 0 -0.033842001110315323
   vertex 0 0 -0.034455999732017517
  endloop
 endfacet
 facet normal 0 1 0
  outer loop
   vertex -0.010347000323235989 0 -0.042566999793052673
   vertex 0 0 -0.034455999732017517
   vertex 0 0 -0.043292000889778137
  endloop
 endfacet
 facet normal 0 1 0
  outer loop
   vertex -0.01169699989259243 0 -0.033842001110315323
   vertex -0.012691999785602093 0 -0.023497000336647034
   vertex 0 0 -0.023941999301314354
  endloop
 endfacet
 facet normal 0 1 0
  outer loop
   vertex -0.01169699989259243 0 -0.033842001110315323
   vertex 0 0 -0.023941999301314354
   vertex 0 0 -0.034455999732017517
  endloop
 endfacet
 facet normal -0 1 0
  outer loop
   vertex -0.013507000170648098 0 0
   vertex -0.013302000239491463 0 0.012033999897539616
   vertex 0 0 0.012265999801456928
  endloop
 endfacet
 facet normal 0 1 0
  outer loop
   vertex -0.013507000170648098 0 0
   vertex 0 0 0.012265999801456928
   vertex 0 0 0
  endloop
 endfacet
 facet normal -0 1 0
  outer loop
   vertex -0.013302000239491463 0 0.012033999897539616
   vertex -0.012691999785602093 0 0.023497000336647034
   vertex 0 0 0.023941999301314354
  endloop
 endfacet
 facet normal 0 1 0
  outer loop
   vertex -0.013302000239491463 0 0.012033999897539616
   vertex 0 0 0.023941999301314354
   vertex 0 0 0.012265999801456928
  endloop
 endfacet
 facet normal -0 1 0
  outer loop
   vertex -0.010347000323235989 0 0.042566999793052673
   vertex -0.0086820004507899284 0 0.049240000545978546
   vertex 0 0 0.05000000074505806
  endloop
 endfacet
 facet normal 0 1 0
  outer loop
   vertex -0.010347000323235989 0 0.042566999793052673
   vertex 0 0 0.05000000074505806
   vertex 0 0 0.043292000889778137
  endloop
 endfacet
 facet normal 0 1 0
  outer loop
   vertex -0.032138999551534653 0 -0.038302000612020493
   vertex -0.038302000612020493 0 -0.032138999551534653
   vertex -0.029794000089168549 0 -0.036905001848936081
  endloop
 endfacet
 facet normal 0 1 0
  outer loop
   vertex -0.032138999551534653 0 -0.038302000612020493
   vertex -0.029794000089168549 0 -0.036905001848936081
   vertex -0.02500000037252903 0 -0.043301001191139221
  endloop
 endfacet
 facet normal -0 1 0
  outer loop
   vertex 0 0 -0.012265999801456928
   vertex 0 0 0
   vertex 0.013507000170648098 0 0
  endloop
 endfacet
 facet normal 0 1 0
  outer loop
   vertex 0 0 -0.012265999801456928
   vertex 0.013507000170648098 0 0
   vertex 0.013302000239491463 0 -0.012033999897539616
  endloop
 endfacet
 facet normal -0 1 0
  outer loop
   vertex -0.01169699989259243 0 0.033842001110315323
   vertex -0.010347000323235989 0 0.042566999793052673
   vertex 0 0 0.043292000889778137
  endloop
 endfacet
 facet normal 0 1 0
  outer loop
   vertex -0.01169699989259243 0 0.033842001110315323
   vertex 0 0 0.043292000889778137
   vertex 0 0 0.034455999732017517
  endloop
 endfacet
 facet normal 0 1 0
  outer loop
   vertex 0 0 0.023941999301314354
   vertex 0 0 0.034455999732017517
   vertex 0.01169699989259243 0 0.033842001110315323
  endloop
 endfacet
 facet normal 0 1 0
  outer loop
   vertex 0 0 0.023941999301314354
   vertex 0.01169699989259243 0 0.033842001110315323
   vertex 0.012691999785602093 0 0.023497000336647034
  endloop
 endfacet
 facet normal -0 1 0
  outer loop
   vertex 0 0 -0.023941999301314354
   vertex 0 0 -0.012265999801456928
   vertex 0.013302000239491463 0 -0.012033999897539616
  endloop
 endfacet
 facet normal 0 1 0
  outer loop
   vertex 0 0 -0.023941999301314354
   vertex 0.013302000239491463 0 -0.012033999897539616
   vertex 0.012691999785602093 0 -0.023497000336647034
  endloop
 endfacet
 facet normal 0 1 0
  outer loop
   vertex 0.012691999785602093 0 0.023497000336647034
   vertex 0.01169699989259243 0 0.033842001110315323
   vertex 0.023040000349283218 0 0.032019000500440598
  endloop
 endfacet
 facet normal 0 1 0
  outer loop
   vertex 0.012691999785602093 0 0.023497000336647034
   vertex 0.023040000349283218 0 0.032019000500440598
   vertex 0.02500000037252903 0 0.022179000079631805
  endloop
 endfacet
 facet normal -0 1 0
  outer loop
   vertex 0 0 -0.043292000889778137
   vertex 0 0 -0.034455999732017517
   vertex 0.01169699989259243 0 -0.033842001110315323
  endloop
 endfacet
 facet normal 0 1 0
  outer loop
   vertex 0 0 -0.043292000889778137
   vertex 0.01169699989259243 0 -0.033842001110315323
   vertex 0.010347000323235989 0 -0.042566999793052673
  endloop
 endfacet
 facet normal -0 1 0
  outer loop
   vertex 0.017100999131798744 0 -0.046985000371932983
   vertex 0.020379999652504921 0 -0.040417000651359558
   vertex 0.029794000089168549 0 -0.036905001848936081
  endloop
 endfacet
 facet normal 0 1 0
  outer loop
   vertex 0.017100999131798744 0 -0.046985000371932983
   vertex 0.029794000089168549 0 -0.036905001848936081
   vertex 0.02500000037252903 0 -0.043301001191139221
  endloop
 endfacet
 facet normal 0 1 0
  outer loop
   vertex 0.013302000239491463 0 0.012033999897539616
   vertex 0.012691999785602093 0 0.023497000336647034
   vertex 0.02500000037252903 0 0.022179000079631805
  endloop
 endfacet
 facet normal 0 1 0
  outer loop
   vertex 0.013302000239491463 0 0.012033999897539616
   vertex 0.02500000037252903 0 0.022179000079631805
   vertex 0.026200000196695328 0 0.011343000456690788
  endloop
 endfacet
 facet normal -0 1 0
  outer loop
   vertex 0.020379999652504921 0 -0.040417000651359558
   vertex 0.023040000349283218 0 -0.032019000500440598
   vertex 0.033682998269796371 0 -0.029040999710559845
  endloop
 endfacet
 facet normal 0 1 0
  outer loop
   vertex 0.020379999652504921 0 -0.040417000651359558
   vertex 0.033682998269796371 0 -0.029040999710559845
   vertex 0.029794000089168549 0 -0.036905001848936081
  endloop
 endfacet
 facet normal 0 1 0
  outer loop
   vertex 0.010347000323235989 0 0.042566999793052673
   vertex 0.0086820004507899284 0 0.049240000545978546
   vertex 0.017100999131798744 0 0.046985000371932983
  endloop
 endfacet
 facet normal 0 1 0
  outer loop
   vertex 0.010347000323235989 0 0.042566999793052673
   vertex 0.017100999131798744 0 0.046985000371932983
   vertex 0.020379999652504921 0 0.040417000651359558
  endloop
 endfacet
endsolid
