solid Visualization Toolkit generated SLA File
 facet normal 0 -1 0
  outer loop
   vertex -0.038010001182556152 0.89999997615814209 -0.031893998384475708
   vertex -0.031893998384475708 0.89999997615814209 -0.038008999079465866
   vertex -0.02480899915099144 0.89999997615814209 -0.042970001697540283
  endloop
 endfacet
 facet normal 0 -1 0
  outer loop
   vertex -0.038010001182556152 0.89999997615814209 -0.031893998384475708
   vertex -0.02480899915099144 0.89999997615814209 -0.042970001697540283
   vertex -0.029565999284386635 0.89999997615814209 -0.0366239994764328
  endloop
 endfacet
 facet normal 0 -1 0
  outer loop
   vertex -0.042970001697540283 0.89999997615814209 -0.02480899915099144
   vertex -0.038010001182556152 0.89999997615814209 -0.031893998384475708
   vertex -0.029565999284386635 0.89999997615814209 -0.0366239994764328
  endloop
 endfacet
 facet normal 0 -1 0
  outer loop
   vertex -0.042970001697540283 0.89999997615814209 -0.02480899915099144
   vertex -0.029565999284386635 0.89999997615814209 -0.0366239994764328
   vertex -0.033424999564886093 0.89999997615814209 -0.028819000348448753
  endloop
 endfacet
 facet normal 0 -1 0
  outer loop
   vertex -0.036267999559640884 0.89999997615814209 -0.019871000200510025
   vertex -0.033424999564886093 0.89999997615814209 -0.028819000348448753
   vertex -0.022863000631332397 0.89999997615814209 -0.031773999333381653
  endloop
 endfacet
 facet normal 0 -1 0
  outer loop
   vertex -0.036267999559640884 0.89999997615814209 -0.019871000200510025
   vertex -0.022863000631332397 0.89999997615814209 -0.031773999333381653
   vertex -0.02480899915099144 0.89999997615814209 -0.022007999941706657
  endloop
 endfacet
 facet normal 0 -1 0
  outer loop
   vertex -0.038008999079465866 0.89999997615814209 0.010135999880731106
   vertex -0.038596000522375107 0.89999997615814209 0
   vertex -0.026399999856948853 0.89999997615814209 0
  endloop
 endfacet
 facet normal 0 -1 0
  outer loop
   vertex -0.038008999079465866 0.89999997615814209 0.010135999880731106
   vertex -0.026399999856948853 0.89999997615814209 0
   vertex -0.025999000295996666 0.89999997615814209 0.011256000027060509
  endloop
 endfacet
 facet normal 0 -1 0
  outer loop
   vertex -0.036267999559640884 0.89999997615814209 0.019872000440955162
   vertex -0.038008999079465866 0.89999997615814209 0.010135999880731106
   vertex -0.025999000295996666 0.89999997615814209 0.011256000027060509
  endloop
 endfacet
 facet normal 0 -1 0
  outer loop
   vertex -0.036267999559640884 0.89999997615814209 0.019872000440955162
   vertex -0.025999000295996666 0.89999997615814209 0.011256000027060509
   vertex -0.02480899915099144 0.89999997615814209 0.022009000182151794
  endloop
 endfacet
 facet normal 0 -1 0
  outer loop
   vertex -0.033424999564886093 0.89999997615814209 0.028819000348448753
   vertex -0.036267999559640884 0.89999997615814209 0.019872000440955162
   vertex -0.02480899915099144 0.89999997615814209 0.022009000182151794
  endloop
 endfacet
 facet normal 0 -1 0
  outer loop
   vertex -0.033424999564886093 0.89999997615814209 0.028819000348448753
   vertex -0.02480899915099144 0.89999997615814209 0.022009000182151794
   vertex -0.022863000631332397 0.89999997615814209 0.031773999333381653
  endloop
 endfacet
 facet normal 0 -1 0
  outer loop
   vertex -0.029565999284386635 0.89999997615814209 0.0366239994764328
   vertex -0.033424999564886093 0.89999997615814209 0.028819000348448753
   vertex -0.022863000631332397 0.89999997615814209 0.031773999333381653
  endloop
 endfacet
 facet normal 0 -1 0
  outer loop
   vertex -0.029565999284386635 0.89999997615814209 0.0366239994764328
   vertex -0.022863000631332397 0.89999997615814209 0.031773999333381653
   vertex -0.02022399939596653 0.89999997615814209 0.040109001100063324
  endloop
 endfacet
 facet normal 0 -1 0
  outer loop
   vertex -0.02480899915099144 0.89999997615814209 0.042971000075340271
   vertex -0.029565999284386635 0.89999997615814209 0.0366239994764328
   vertex -0.02022399939596653 0.89999997615814209 0.040109001100063324
  endloop
 endfacet
 facet normal 0 -1 0
  outer loop
   vertex -0.02480899915099144 0.89999997615814209 0.042971000075340271
   vertex -0.02022399939596653 0.89999997615814209 0.040109001100063324
   vertex -0.016969999298453331 0.89999997615814209 0.046626001596450806
  endloop
 endfacet
 facet normal 0 -1 0
  outer loop
   vertex -0.022863000631332397 0.89999997615814209 -0.031773999333381653
   vertex -0.02022399939596653 0.89999997615814209 -0.040109001100063324
   vertex -0.010267999954521656 0.89999997615814209 -0.042243000119924545
  endloop
 endfacet
 facet normal 0 -1 0
  outer loop
   vertex -0.022863000631332397 0.89999997615814209 -0.031773999333381653
   vertex -0.010267999954521656 0.89999997615814209 -0.042243000119924545
   vertex -0.011607999913394451 0.89999997615814209 -0.033583998680114746
  endloop
 endfacet
 facet normal 0 -1 0
  outer loop
   vertex -0.026399999856948853 0.89999997615814209 0
   vertex -0.025999000295996666 0.89999997615814209 -0.011256000027060509
   vertex -0.013199999928474426 0.89999997615814209 -0.011943000368773937
  endloop
 endfacet
 facet normal 0 -1 0
  outer loop
   vertex -0.026399999856948853 0.89999997615814209 0
   vertex -0.013199999928474426 0.89999997615814209 -0.011943000368773937
   vertex -0.013403999619185925 0.89999997615814209 -9.9999999747524271e-07
  endloop
 endfacet
 facet normal 0 -1 0
  outer loop
   vertex -0.02480899915099144 0.89999997615814209 0.022009000182151794
   vertex -0.025999000295996666 0.89999997615814209 0.011256000027060509
   vertex -0.013199999928474426 0.89999997615814209 0.011940999887883663
  endloop
 endfacet
 facet normal 0 -1 0
  outer loop
   vertex -0.02480899915099144 0.89999997615814209 0.022009000182151794
   vertex -0.013199999928474426 0.89999997615814209 0.011940999887883663
   vertex -0.012595999985933304 0.89999997615814209 0.023318000137805939
  endloop
 endfacet
 facet normal 0 -1 0
  outer loop
   vertex -0.016969999298453331 0.89999997615814209 0.046626001596450806
   vertex -0.02022399939596653 0.89999997615814209 0.040109001100063324
   vertex -0.010267999954521656 0.89999997615814209 0.042242001742124557
  endloop
 endfacet
 facet normal 0 -1 0
  outer loop
   vertex -0.016969999298453331 0.89999997615814209 0.046626001596450806
   vertex -0.010267999954521656 0.89999997615814209 0.042242001742124557
   vertex -0.0086160004138946533 0.89999997615814209 0.048863999545574188
  endloop
 endfacet
 facet normal 0 -1 0
  outer loop
   vertex -0.011607999913394451 0.89999997615814209 -0.033583998680114746
   vertex -0.010267999954521656 0.89999997615814209 -0.042243000119924545
   vertex 0 0.89999997615814209 -0.042961999773979187
  endloop
 endfacet
 facet normal 0 -1 0
  outer loop
   vertex -0.011607999913394451 0.89999997615814209 -0.033583998680114746
   vertex 0 0.89999997615814209 -0.042961999773979187
   vertex 0 0.89999997615814209 -0.034194000065326691
  endloop
 endfacet
 facet normal 0 -1 0
  outer loop
   vertex -0.013403999619185925 0.89999997615814209 -9.9999999747524271e-07
   vertex -0.013199999928474426 0.89999997615814209 -0.011943000368773937
   vertex 0 0.89999997615814209 -0.012174000032246113
  endloop
 endfacet
 facet normal 0 -1 0
  outer loop
   vertex -0.013403999619185925 0.89999997615814209 -9.9999999747524271e-07
   vertex 0 0.89999997615814209 -0.012174000032246113
   vertex 0 0.89999997615814209 -9.9999999747524271e-07
  endloop
 endfacet
 facet normal 0 -1 0
  outer loop
   vertex -0.012595999985933304 0.89999997615814209 0.023318000137805939
   vertex -0.013199999928474426 0.89999997615814209 0.011940999887883663
   vertex 0 0.89999997615814209 0.012171999551355839
  endloop
 endfacet
 facet normal 0 -1 0
  outer loop
   vertex -0.012595999985933304 0.89999997615814209 0.023318000137805939
   vertex 0 0.89999997615814209 0.012171999551355839
   vertex 0 0.89999997615814209 0.023757999762892723
  endloop
 endfacet
 facet normal 0 -1 0
  outer loop
   vertex -0.0086160004138946533 0.89999997615814209 0.048863999545574188
   vertex -0.010267999954521656 0.89999997615814209 0.042242001742124557
   vertex 0 0.89999997615814209 0.042961001396179199
  endloop
 endfacet
 facet normal 0 -1 0
  outer loop
   vertex -0.0086160004138946533 0.89999997615814209 0.048863999545574188
   vertex 0 0.89999997615814209 0.042961001396179199
   vertex 0 0.89999997615814209 0.04961799830198288
  endloop
 endfacet
 facet normal 0 -1 0
  outer loop
   vertex 0 0.89999997615814209 -0.034194000065326691
   vertex 0 0.89999997615814209 -0.042961999773979187
   vertex 0.010267999954521656 0.89999997615814209 -0.042243000119924545
  endloop
 endfacet
 facet normal 0 -1 0
  outer loop
   vertex 0 0.89999997615814209 -0.034194000065326691
   vertex 0.010267999954521656 0.89999997615814209 -0.042243000119924545
   vertex 0.011607999913394451 0.89999997615814209 -0.033583998680114746
  endloop
 endfacet
 facet normal 0 -1 0
  outer loop
   vertex 0 0.89999997615814209 -0.012174000032246113
   vertex 0 0.89999997615814209 -0.02375900000333786
   vertex 0.012595999985933304 0.89999997615814209 -0.023318000137805939
  endloop
 endfacet
 facet normal 0 -1 0
  outer loop
   vertex 0 0.89999997615814209 -0.012174000032246113
   vertex 0.012595999985933304 0.89999997615814209 -0.023318000137805939
   vertex 0.013199999928474426 0.89999997615814209 -0.011943000368773937
  endloop
 endfacet
 facet normal 0 -1 0
  outer loop
   vertex -0.025999000295996666 0.89999997615814209 -0.011256000027060509
   vertex -0.02480899915099144 0.89999997615814209 -0.022007999941706657
   vertex -0.012595999985933304 0.89999997615814209 -0.023318000137805939
  endloop
 endfacet
 facet normal 0 -1 0
  outer loop
   vertex -0.025999000295996666 0.89999997615814209 -0.011256000027060509
   vertex -0.012595999985933304 0.89999997615814209 -0.023318000137805939
   vertex -0.013199999928474426 0.89999997615814209 -0.011943000368773937
  endloop
 endfacet
 facet normal 0 -1 0
  outer loop
   vertex -0.02480899915099144 0.89999997615814209 -0.022007999941706657
   vertex -0.022863000631332397 0.89999997615814209 -0.031773999333381653
   vertex -0.011607999913394451 0.89999997615814209 -0.033583998680114746
  endloop
 endfacet
 facet normal 0 -1 0
  outer loop
   vertex -0.02480899915099144 0.89999997615814209 -0.022007999941706657
   vertex -0.011607999913394451 0.89999997615814209 -0.033583998680114746
   vertex -0.012595999985933304 0.89999997615814209 -0.023318000137805939
  endloop
 endfacet
 facet normal 0 -1 0
  outer loop
   vertex -0.010267999954521656 0.89999997615814209 0.042242001742124557
   vertex -0.011607999913394451 0.89999997615814209 0.033583000302314758
   vertex 0 0.89999997615814209 0.034191999584436417
  endloop
 endfacet
 facet normal 0 -1 0
  outer loop
   vertex -0.010267999954521656 0.89999997615814209 0.042242001742124557
   vertex 0 0.89999997615814209 0.034191999584436417
   vertex 0 0.89999997615814209 0.042961001396179199
  endloop
 endfacet
 facet normal 0 -1 0
  outer loop
   vertex -0.011607999913394451 0.89999997615814209 0.033583000302314758
   vertex -0.012595999985933304 0.89999997615814209 0.023318000137805939
   vertex 0 0.89999997615814209 0.023757999762892723
  endloop
 endfacet
 facet normal 0 -1 0
  outer loop
   vertex -0.011607999913394451 0.89999997615814209 0.033583000302314758
   vertex 0 0.89999997615814209 0.023757999762892723
   vertex 0 0.89999997615814209 0.034191999584436417
  endloop
 endfacet
 facet normal 0 -1 0
  outer loop
   vertex -0.010267999954521656 0.89999997615814209 -0.042243000119924545
   vertex -0.0086160004138946533 0.89999997615814209 -0.048863999545574188
   vertex 0 0.89999997615814209 -0.04961799830198288
  endloop
 endfacet
 facet normal 0 -1 0
  outer loop
   vertex -0.010267999954521656 0.89999997615814209 -0.042243000119924545
   vertex 0 0.89999997615814209 -0.04961799830198288
   vertex 0 0.89999997615814209 -0.042961999773979187
  endloop
 endfacet
 facet normal 0 -1 0
  outer loop
   vertex 0 0.89999997615814209 0.04961799830198288
   vertex 0 0.89999997615814209 0.042961001396179199
   vertex 0.010267999954521656 0.89999997615814209 0.042242001742124557
  endloop
 endfacet
 facet normal 0 -1 0
  outer loop
   vertex 0 0.89999997615814209 0.04961799830198288
   vertex 0.010267999954521656 0.89999997615814209 0.042242001742124557
   vertex 0.0086160004138946533 0.89999997615814209 0.048863999545574188
  endloop
 endfacet
 facet normal 0 -1 0
  outer loop
   vertex 0 0.89999997615814209 -9.9999999747524271e-07
   vertex 0 0.89999997615814209 -0.012174000032246113
   vertex 0.013199999928474426 0.89999997615814209 -0.011943000368773937
  endloop
 endfacet
 facet normal 0 -1 0
  outer loop
   vertex 0 0.89999997615814209 -9.9999999747524271e-07
   vertex 0.013199999928474426 0.89999997615814209 -0.011943000368773937
   vertex 0.013403999619185925 0.89999997615814209 -9.9999999747524271e-07
  endloop
 endfacet
 facet normal 0 -1 0
  outer loop
   vertex 0.011607999913394451 0.89999997615814209 -0.033583998680114746
   vertex 0.010267999954521656 0.89999997615814209 -0.042243000119924545
   vertex 0.02022399939596653 0.89999997615814209 -0.040109001100063324
  endloop
 endfacet
 facet normal 0 -1 0
  outer loop
   vertex 0.011607999913394451 0.89999997615814209 -0.033583998680114746
   vertex 0.02022399939596653 0.89999997615814209 -0.040109001100063324
   vertex 0.022863000631332397 0.89999997615814209 -0.031773999333381653
  endloop
 endfacet
 facet normal 0 -1 0
  outer loop
   vertex 0.013199999928474426 0.89999997615814209 -0.011943000368773937
   vertex 0.012595999985933304 0.89999997615814209 -0.023318000137805939
   vertex 0.02480899915099144 0.89999997615814209 -0.022007999941706657
  endloop
 endfacet
 facet normal 0 -1 0
  outer loop
   vertex 0.013199999928474426 0.89999997615814209 -0.011943000368773937
   vertex 0.02480899915099144 0.89999997615814209 -0.022007999941706657
   vertex 0.025999000295996666 0.89999997615814209 -0.011256000027060509
  endloop
 endfacet
 facet normal 0 -1 0
  outer loop
   vertex 0.013199999928474426 0.89999997615814209 0.011940999887883663
   vertex 0.013403999619185925 0.89999997615814209 -9.9999999747524271e-07
   vertex 0.026399999856948853 0.89999997615814209 0
  endloop
 endfacet
 facet normal 0 -1 0
  outer loop
   vertex 0.013199999928474426 0.89999997615814209 0.011940999887883663
   vertex 0.026399999856948853 0.89999997615814209 0
   vertex 0.025999000295996666 0.89999997615814209 0.011256000027060509
  endloop
 endfacet
 facet normal 0 -1 0
  outer loop
   vertex 0.012595999985933304 0.89999997615814209 0.023318000137805939
   vertex 0.013199999928474426 0.89999997615814209 0.011940999887883663
   vertex 0.025999000295996666 0.89999997615814209 0.011256000027060509
  endloop
 endfacet
 facet normal 0 -1 0
  outer loop
   vertex 0.012595999985933304 0.89999997615814209 0.023318000137805939
   vertex 0.025999000295996666 0.89999997615814209 0.011256000027060509
   vertex 0.02480899915099144 0.89999997615814209 0.022009000182151794
  endloop
 endfacet
 facet normal 0 -1 0
  outer loop
   vertex 0.0086160004138946533 0.89999997615814209 0.048863999545574188
   vertex 0.010267999954521656 0.89999997615814209 0.042242001742124557
   vertex 0.02022399939596653 0.89999997615814209 0.040109001100063324
  endloop
 endfacet
 facet normal 0 -1 0
  outer loop
   vertex 0.0086160004138946533 0.89999997615814209 0.048863999545574188
   vertex 0.02022399939596653 0.89999997615814209 0.040109001100063324
   vertex 0.016969999298453331 0.89999997615814209 0.046626001596450806
  endloop
 endfacet
 facet normal 0 -1 0
  outer loop
   vertex 0.022863000631332397 0.89999997615814209 -0.031773999333381653
   vertex 0.02022399939596653 0.89999997615814209 -0.040109001100063324
   vertex 0.029565999284386635 0.89999997615814209 -0.0366239994764328
  endloop
 endfacet
 facet normal 0 -1 0
  outer loop
   vertex 0.022863000631332397 0.89999997615814209 -0.031773999333381653
   vertex 0.029565999284386635 0.89999997615814209 -0.0366239994764328
   vertex 0.033424999564886093 0.89999997615814209 -0.028819000348448753
  endloop
 endfacet
 facet normal 0 -1 0
  outer loop
   vertex 0.025999000295996666 0.89999997615814209 -0.011256000027060509
   vertex 0.02480899915099144 0.89999997615814209 -0.022007999941706657
   vertex 0.036267999559640884 0.89999997615814209 -0.019871000200510025
  endloop
 endfacet
 facet normal 0 -1 0
  outer loop
   vertex 0.025999000295996666 0.89999997615814209 -0.011256000027060509
   vertex 0.036267999559640884 0.89999997615814209 -0.019871000200510025
   vertex 0.038008999079465866 0.89999997615814209 -0.010135999880731106
  endloop
 endfacet
 facet normal 0 -1 0
  outer loop
   vertex 0 0.89999997615814209 -0.042961999773979187
   vertex 0 0.89999997615814209 -0.04961799830198288
   vertex 0.0086160004138946533 0.89999997615814209 -0.048863999545574188
  endloop
 endfacet
 facet normal 0 -1 0
  outer loop
   vertex 0 0.89999997615814209 -0.042961999773979187
   vertex 0.0086160004138946533 0.89999997615814209 -0.048863999545574188
   vertex 0.010267999954521656 0.89999997615814209 -0.042243000119924545
  endloop
 endfacet
 facet normal 0 -1 0
  outer loop
   vertex 0.026399999856948853 0.89999997615814209 0
   vertex 0.025999000295996666 0.89999997615814209 -0.011256000027060509
   vertex 0.038008999079465866 0.89999997615814209 -0.010135999880731106
  endloop
 endfacet
 facet normal 0 -1 0
  outer loop
   vertex 0.026399999856948853 0.89999997615814209 0
   vertex 0.038008999079465866 0.89999997615814209 -0.010135999880731106
   vertex 0.038596000522375107 0.89999997615814209 0
  endloop
 endfacet
 facet normal 0 -1 0
  outer loop
   vertex 0.02480899915099144 0.89999997615814209 0.022009000182151794
   vertex 0.025999000295996666 0.89999997615814209 0.011256000027060509
   vertex 0.038008999079465866 0.89999997615814209 0.010135999880731106
  endloop
 endfacet
 facet normal 0 -1 0
  outer loop
   vertex 0.02480899915099144 0.89999997615814209 0.022009000182151794
   vertex 0.038008999079465866 0.89999997615814209 0.010135999880731106
   vertex 0.036267999559640884 0.89999997615814209 0.019872000440955162
  endloop
 endfacet
 facet normal 0 -1 0
  outer loop
   vertex 0.016969999298453331 0.89999997615814209 0.046626001596450806
   vertex 0.02022399939596653 0.89999997615814209 0.040109001100063324
   vertex 0.029565999284386635 0.89999997615814209 0.0366239994764328
  endloop
 endfacet
 facet normal 0 -1 0
  outer loop
   vertex 0.016969999298453331 0.89999997615814209 0.046626001596450806
   vertex 0.029565999284386635 0.89999997615814209 0.0366239994764328
   vertex 0.02480899915099144 0.89999997615814209 0.042971000075340271
  endloop
 endfacet
 facet normal 0 -1 0
  outer loop
   vertex -0.048863999545574188 0.89999997615814209 -0.0086160004138946533
   vertex -0.046626001596450806 0.89999997615814209 -0.016969999298453331
   vertex -0.036267999559640884 0.89999997615814209 -0.019871000200510025
  endloop
 endfacet
 facet normal 0 -1 0
  outer loop
   vertex -0.048863999545574188 0.89999997615814209 -0.0086160004138946533
   vertex -0.036267999559640884 0.89999997615814209 -0.019871000200510025
   vertex -0.038008999079465866 0.89999997615814209 -0.010135999880731106
  endloop
 endfacet
 facet normal 0 -1 0
  outer loop
   vertex 0.025999000295996666 0.89999997615814209 0.011256000027060509
   vertex 0.026399999856948853 0.89999997615814209 0
   vertex 0.038596000522375107 0.89999997615814209 0
  endloop
 endfacet
 facet normal 0 -1 0
  outer loop
   vertex 0.025999000295996666 0.89999997615814209 0.011256000027060509
   vertex 0.038596000522375107 0.89999997615814209 0
   vertex 0.038008999079465866 0.89999997615814209 0.010135999880731106
  endloop
 endfacet
 facet normal 0 -1 0
  outer loop
   vertex 0.033424999564886093 0.89999997615814209 -0.028819000348448753
   vertex 0.029565999284386635 0.89999997615814209 -0.0366239994764328
   vertex 0.038010001182556152 0.89999997615814209 -0.031893998384475708
  endloop
 endfacet
 facet normal 0 -1 0
  outer loop
   vertex 0.033424999564886093 0.89999997615814209 -0.028819000348448753
   vertex 0.038010001182556152 0.89999997615814209 -0.031893998384475708
   vertex 0.042970001697540283 0.89999997615814209 -0.02480899915099144
  endloop
 endfacet
 facet normal 0 -1 0
  outer loop
   vertex -0.02022399939596653 0.89999997615814209 -0.040109001100063324
   vertex -0.016969999298453331 0.89999997615814209 -0.046624999493360519
   vertex -0.0086160004138946533 0.89999997615814209 -0.048863999545574188
  endloop
 endfacet
 facet normal 0 -1 0
  outer loop
   vertex -0.02022399939596653 0.89999997615814209 -0.040109001100063324
   vertex -0.0086160004138946533 0.89999997615814209 -0.048863999545574188
   vertex -0.010267999954521656 0.89999997615814209 -0.042243000119924545
  endloop
 endfacet
 facet normal 0 -1 0
  outer loop
   vertex 0 0.89999997615814209 0.034191999584436417
   vertex 0 0.89999997615814209 0.023757999762892723
   vertex 0.012595999985933304 0.89999997615814209 0.023318000137805939
  endloop
 endfacet
 facet normal 0 -1 0
  outer loop
   vertex 0 0.89999997615814209 0.034191999584436417
   vertex 0.012595999985933304 0.89999997615814209 0.023318000137805939
   vertex 0.011607999913394451 0.89999997615814209 0.033583000302314758
  endloop
 endfacet
 facet normal 0 -1 0
  outer loop
   vertex -0.042970001697540283 0.89999997615814209 0.02480899915099144
   vertex -0.046626001596450806 0.89999997615814209 0.016970999538898468
   vertex -0.036267999559640884 0.89999997615814209 0.019872000440955162
  endloop
 endfacet
 facet normal 0 -1 0
  outer loop
   vertex -0.042970001697540283 0.89999997615814209 0.02480899915099144
   vertex -0.036267999559640884 0.89999997615814209 0.019872000440955162
   vertex -0.033424999564886093 0.89999997615814209 0.028819000348448753
  endloop
 endfacet
 facet normal 0 -1 0
  outer loop
   vertex -0.038010001182556152 0.89999997615814209 0.031893998384475708
   vertex -0.042970001697540283 0.89999997615814209 0.02480899915099144
   vertex -0.033424999564886093 0.89999997615814209 0.028819000348448753
  endloop
 endfacet
 facet normal 0 -1 0
  outer loop
   vertex -0.038010001182556152 0.89999997615814209 0.031893998384475708
   vertex -0.033424999564886093 0.89999997615814209 0.028819000348448753
   vertex -0.029565999284386635 0.89999997615814209 0.0366239994764328
  endloop
 endfacet
 facet normal 0 -1 0
  outer loop
   vertex -0.013199999928474426 0.89999997615814209 -0.011943000368773937
   vertex -0.012595999985933304 0.89999997615814209 -0.023318000137805939
   vertex 0 0.89999997615814209 -0.02375900000333786
  endloop
 endfacet
 facet normal 0 -1 0
  outer loop
   vertex -0.013199999928474426 0.89999997615814209 -0.011943000368773937
   vertex 0 0.89999997615814209 -0.02375900000333786
   vertex 0 0.89999997615814209 -0.012174000032246113
  endloop
 endfacet
 facet normal 0 -1 0
  outer loop
   vertex -0.012595999985933304 0.89999997615814209 -0.023318000137805939
   vertex -0.011607999913394451 0.89999997615814209 -0.033583998680114746
   vertex 0 0.89999997615814209 -0.034194000065326691
  endloop
 endfacet
 facet normal 0 -1 0
  outer loop
   vertex -0.012595999985933304 0.89999997615814209 -0.023318000137805939
   vertex 0 0.89999997615814209 -0.034194000065326691
   vertex 0 0.89999997615814209 -0.02375900000333786
  endloop
 endfacet
 facet normal 0 -1 0
  outer loop
   vertex 0 0.89999997615814209 -0.02375900000333786
   vertex 0 0.89999997615814209 -0.034194000065326691
   vertex 0.011607999913394451 0.89999997615814209 -0.033583998680114746
  endloop
 endfacet
 facet normal 0 -1 0
  outer loop
   vertex 0 0.89999997615814209 -0.02375900000333786
   vertex 0.011607999913394451 0.89999997615814209 -0.033583998680114746
   vertex 0.012595999985933304 0.89999997615814209 -0.023318000137805939
  endloop
 endfacet
 facet normal 0 -1 0
  outer loop
   vertex -0.025999000295996666 0.89999997615814209 0.011256000027060509
   vertex -0.026399999856948853 0.89999997615814209 0
   vertex -0.013403999619185925 0.89999997615814209 -9.9999999747524271e-07
  endloop
 endfacet
 facet normal 0 -1 0
  outer loop
   vertex -0.025999000295996666 0.89999997615814209 0.011256000027060509
   vertex -0.013403999619185925 0.89999997615814209 -9.9999999747524271e-07
   vertex -0.013199999928474426 0.89999997615814209 0.011940999887883663
  endloop
 endfacet
 facet normal 0 -1 0
  outer loop
   vertex 0.013403999619185925 0.89999997615814209 -9.9999999747524271e-07
   vertex 0.013199999928474426 0.89999997615814209 -0.011943000368773937
   vertex 0.025999000295996666 0.89999997615814209 -0.011256000027060509
  endloop
 endfacet
 facet normal 0 -1 0
  outer loop
   vertex 0.013403999619185925 0.89999997615814209 -9.9999999747524271e-07
   vertex 0.025999000295996666 0.89999997615814209 -0.011256000027060509
   vertex 0.026399999856948853 0.89999997615814209 0
  endloop
 endfacet
 facet normal 0 -1 0
  outer loop
   vertex -0.046626001596450806 0.89999997615814209 0.016970999538898468
   vertex -0.048863999545574188 0.89999997615814209 0.0086160004138946533
   vertex -0.038008999079465866 0.89999997615814209 0.010135999880731106
  endloop
 endfacet
 facet normal 0 -1 0
  outer loop
   vertex -0.046626001596450806 0.89999997615814209 0.016970999538898468
   vertex -0.038008999079465866 0.89999997615814209 0.010135999880731106
   vertex -0.036267999559640884 0.89999997615814209 0.019872000440955162
  endloop
 endfacet
 facet normal 0 -1 0
  outer loop
   vertex 0.029565999284386635 0.89999997615814209 -0.0366239994764328
   vertex 0.02480899915099144 0.89999997615814209 -0.042970001697540283
   vertex 0.031893998384475708 0.89999997615814209 -0.038008999079465866
  endloop
 endfacet
 facet normal 0 -1 0
  outer loop
   vertex 0.029565999284386635 0.89999997615814209 -0.0366239994764328
   vertex 0.031893998384475708 0.89999997615814209 -0.038008999079465866
   vertex 0.038010001182556152 0.89999997615814209 -0.031893998384475708
  endloop
 endfacet
 facet normal 0 -1 0
  outer loop
   vertex 0.038008999079465866 0.89999997615814209 0.010135999880731106
   vertex 0.038596000522375107 0.89999997615814209 0
   vertex 0.04961799830198288 0.89999997615814209 0
  endloop
 endfacet
 facet normal 0 -1 0
  outer loop
   vertex 0.038008999079465866 0.89999997615814209 0.010135999880731106
   vertex 0.04961799830198288 0.89999997615814209 0
   vertex 0.048863999545574188 0.89999997615814209 0.0086160004138946533
  endloop
 endfacet
 facet normal 0 -1 0
  outer loop
   vertex -0.046626001596450806 0.89999997615814209 -0.016969999298453331
   vertex -0.042970001697540283 0.89999997615814209 -0.02480899915099144
   vertex -0.033424999564886093 0.89999997615814209 -0.028819000348448753
  endloop
 endfacet
 facet normal 0 -1 0
  outer loop
   vertex -0.046626001596450806 0.89999997615814209 -0.016969999298453331
   vertex -0.033424999564886093 0.89999997615814209 -0.028819000348448753
   vertex -0.036267999559640884 0.89999997615814209 -0.019871000200510025
  endloop
 endfacet
 facet normal 0 -1 0
  outer loop
   vertex -0.029565999284386635 0.89999997615814209 -0.0366239994764328
   vertex -0.02480899915099144 0.89999997615814209 -0.042970001697540283
   vertex -0.016969999298453331 0.89999997615814209 -0.046624999493360519
  endloop
 endfacet
 facet normal 0 -1 0
  outer loop
   vertex -0.029565999284386635 0.89999997615814209 -0.0366239994764328
   vertex -0.016969999298453331 0.89999997615814209 -0.046624999493360519
   vertex -0.02022399939596653 0.89999997615814209 -0.040109001100063324
  endloop
 endfacet
 facet normal 0 -1 0
  outer loop
   vertex 0.036267999559640884 0.89999997615814209 -0.019871000200510025
   vertex 0.033424999564886093 0.89999997615814209 -0.028819000348448753
   vertex 0.042970001697540283 0.89999997615814209 -0.02480899915099144
  endloop
 endfacet
 facet normal 0 -1 0
  outer loop
   vertex 0.036267999559640884 0.89999997615814209 -0.019871000200510025
   vertex 0.042970001697540283 0.89999997615814209 -0.02480899915099144
   vertex 0.046626001596450806 0.89999997615814209 -0.016969999298453331
  endloop
 endfacet
 facet normal 0 -1 0
  outer loop
   vertex 0.036267999559640884 0.89999997615814209 0.019872000440955162
   vertex 0.038008999079465866 0.89999997615814209 0.010135999880731106
   vertex 0.048863999545574188 0.89999997615814209 0.0086160004138946533
  endloop
 endfacet
 facet normal 0 -1 0
  outer loop
   vertex 0.036267999559640884 0.89999997615814209 0.019872000440955162
   vertex 0.048863999545574188 0.89999997615814209 0.0086160004138946533
   vertex 0.046626001596450806 0.89999997615814209 0.016970999538898468
  endloop
 endfacet
 facet normal 0 -1 0
  outer loop
   vertex 0.012595999985933304 0.89999997615814209 -0.023318000137805939
   vertex 0.011607999913394451 0.89999997615814209 -0.033583998680114746
   vertex 0.022863000631332397 0.89999997615814209 -0.031773999333381653
  endloop
 endfacet
 facet normal 0 -1 0
  outer loop
   vertex 0.012595999985933304 0.89999997615814209 -0.023318000137805939
   vertex 0.022863000631332397 0.89999997615814209 -0.031773999333381653
   vertex 0.02480899915099144 0.89999997615814209 -0.022007999941706657
  endloop
 endfacet
 facet normal 0 -1 0
  outer loop
   vertex 0.02480899915099144 0.89999997615814209 -0.022007999941706657
   vertex 0.022863000631332397 0.89999997615814209 -0.031773999333381653
   vertex 0.033424999564886093 0.89999997615814209 -0.028819000348448753
  endloop
 endfacet
 facet normal 0 -1 0
  outer loop
   vertex 0.02480899915099144 0.89999997615814209 -0.022007999941706657
   vertex 0.033424999564886093 0.89999997615814209 -0.028819000348448753
   vertex 0.036267999559640884 0.89999997615814209 -0.019871000200510025
  endloop
 endfacet
 facet normal 0 -1 0
  outer loop
   vertex -0.013199999928474426 0.89999997615814209 0.011940999887883663
   vertex -0.013403999619185925 0.89999997615814209 -9.9999999747524271e-07
   vertex 0 0.89999997615814209 -9.9999999747524271e-07
  endloop
 endfacet
 facet normal 0 -1 0
  outer loop
   vertex -0.013199999928474426 0.89999997615814209 0.011940999887883663
   vertex 0 0.89999997615814209 -9.9999999747524271e-07
   vertex 0 0.89999997615814209 0.012171999551355839
  endloop
 endfacet
 facet normal 0 -1 0
  outer loop
   vertex 0 0.89999997615814209 0.042961001396179199
   vertex 0 0.89999997615814209 0.034191999584436417
   vertex 0.011607999913394451 0.89999997615814209 0.033583000302314758
  endloop
 endfacet
 facet normal 0 -1 0
  outer loop
   vertex 0 0.89999997615814209 0.042961001396179199
   vertex 0.011607999913394451 0.89999997615814209 0.033583000302314758
   vertex 0.010267999954521656 0.89999997615814209 0.042242001742124557
  endloop
 endfacet
 facet normal 0 -1 0
  outer loop
   vertex -0.048863999545574188 0.89999997615814209 0.0086160004138946533
   vertex -0.04961799830198288 0.89999997615814209 0
   vertex -0.038596000522375107 0.89999997615814209 0
  endloop
 endfacet
 facet normal 0 -1 0
  outer loop
   vertex -0.048863999545574188 0.89999997615814209 0.0086160004138946533
   vertex -0.038596000522375107 0.89999997615814209 0
   vertex -0.038008999079465866 0.89999997615814209 0.010135999880731106
  endloop
 endfacet
 facet normal 0 -1 0
  outer loop
   vertex 0.010267999954521656 0.89999997615814209 -0.042243000119924545
   vertex 0.0086160004138946533 0.89999997615814209 -0.048863999545574188
   vertex 0.016969999298453331 0.89999997615814209 -0.046624999493360519
  endloop
 endfacet
 facet normal 0 -1 0
  outer loop
   vertex 0.010267999954521656 0.89999997615814209 -0.042243000119924545
   vertex 0.016969999298453331 0.89999997615814209 -0.046624999493360519
   vertex 0.02022399939596653 0.89999997615814209 -0.040109001100063324
  endloop
 endfacet
 facet normal 0 -1 0
  outer loop
   vertex 0.038596000522375107 0.89999997615814209 0
   vertex 0.038008999079465866 0.89999997615814209 -0.010135999880731106
   vertex 0.048863999545574188 0.89999997615814209 -0.0086160004138946533
  endloop
 endfacet
 facet normal 0 -1 0
  outer loop
   vertex 0.038596000522375107 0.89999997615814209 0
   vertex 0.048863999545574188 0.89999997615814209 -0.0086160004138946533
   vertex 0.04961799830198288 0.89999997615814209 0
  endloop
 endfacet
 facet normal 0 -1 0
  outer loop
   vertex 0 0.89999997615814209 0.023757999762892723
   vertex 0 0.89999997615814209 0.012171999551355839
   vertex 0.013199999928474426 0.89999997615814209 0.011940999887883663
  endloop
 endfacet
 facet normal 0 -1 0
  outer loop
   vertex 0 0.89999997615814209 0.023757999762892723
   vertex 0.013199999928474426 0.89999997615814209 0.011940999887883663
   vertex 0.012595999985933304 0.89999997615814209 0.023318000137805939
  endloop
 endfacet
 facet normal 0 -1 0
  outer loop
   vertex 0 0.89999997615814209 0.012171999551355839
   vertex 0 0.89999997615814209 -9.9999999747524271e-07
   vertex 0.013403999619185925 0.89999997615814209 -9.9999999747524271e-07
  endloop
 endfacet
 facet normal 0 -1 0
  outer loop
   vertex 0 0.89999997615814209 0.012171999551355839
   vertex 0.013403999619185925 0.89999997615814209 -9.9999999747524271e-07
   vertex 0.013199999928474426 0.89999997615814209 0.011940999887883663
  endloop
 endfacet
 facet normal 0 -1 0
  outer loop
   vertex -0.033424999564886093 0.89999997615814209 -0.028819000348448753
   vertex -0.029565999284386635 0.89999997615814209 -0.0366239994764328
   vertex -0.02022399939596653 0.89999997615814209 -0.040109001100063324
  endloop
 endfacet
 facet normal 0 -1 0
  outer loop
   vertex -0.033424999564886093 0.89999997615814209 -0.028819000348448753
   vertex -0.02022399939596653 0.89999997615814209 -0.040109001100063324
   vertex -0.022863000631332397 0.89999997615814209 -0.031773999333381653
  endloop
 endfacet
 facet normal 0 -1 0
  outer loop
   vertex 0.02022399939596653 0.89999997615814209 -0.040109001100063324
   vertex 0.016969999298453331 0.89999997615814209 -0.046624999493360519
   vertex 0.02480899915099144 0.89999997615814209 -0.042970001697540283
  endloop
 endfacet
 facet normal 0 -1 0
  outer loop
   vertex 0.02022399939596653 0.89999997615814209 -0.040109001100063324
   vertex 0.02480899915099144 0.89999997615814209 -0.042970001697540283
   vertex 0.029565999284386635 0.89999997615814209 -0.0366239994764328
  endloop
 endfacet
 facet normal 0 -1 0
  outer loop
   vertex 0.029565999284386635 0.89999997615814209 0.0366239994764328
   vertex 0.033424999564886093 0.89999997615814209 0.028819000348448753
   vertex 0.042970001697540283 0.89999997615814209 0.02480899915099144
  endloop
 endfacet
 facet normal 0 -1 0
  outer loop
   vertex 0.029565999284386635 0.89999997615814209 0.0366239994764328
   vertex 0.042970001697540283 0.89999997615814209 0.02480899915099144
   vertex 0.038010001182556152 0.89999997615814209 0.031893998384475708
  endloop
 endfacet
 facet normal 0 -1 0
  outer loop
   vertex -0.04961799830198288 0.89999997615814209 0
   vertex -0.048863999545574188 0.89999997615814209 -0.0086160004138946533
   vertex -0.038008999079465866 0.89999997615814209 -0.010135999880731106
  endloop
 endfacet
 facet normal 0 -1 0
  outer loop
   vertex -0.04961799830198288 0.89999997615814209 0
   vertex -0.038008999079465866 0.89999997615814209 -0.010135999880731106
   vertex -0.038596000522375107 0.89999997615814209 0
  endloop
 endfacet
 facet normal 0 -1 0
  outer loop
   vertex -0.038596000522375107 0.89999997615814209 0
   vertex -0.038008999079465866 0.89999997615814209 -0.010135999880731106
   vertex -0.025999000295996666 0.89999997615814209 -0.011256000027060509
  endloop
 endfacet
 facet normal 0 -1 0
  outer loop
   vertex -0.038596000522375107 0.89999997615814209 0
   vertex -0.025999000295996666 0.89999997615814209 -0.011256000027060509
   vertex -0.026399999856948853 0.89999997615814209 0
  endloop
 endfacet
 facet normal 0 -1 0
  outer loop
   vertex -0.038008999079465866 0.89999997615814209 -0.010135999880731106
   vertex -0.036267999559640884 0.89999997615814209 -0.019871000200510025
   vertex -0.02480899915099144 0.89999997615814209 -0.022007999941706657
  endloop
 endfacet
 facet normal 0 -1 0
  outer loop
   vertex -0.038008999079465866 0.89999997615814209 -0.010135999880731106
   vertex -0.02480899915099144 0.89999997615814209 -0.022007999941706657
   vertex -0.025999000295996666 0.89999997615814209 -0.011256000027060509
  endloop
 endfacet
 facet normal 0 -1 0
  outer loop
   vertex 0.02022399939596653 0.89999997615814209 0.040109001100063324
   vertex 0.022863000631332397 0.89999997615814209 0.031773999333381653
   vertex 0.033424999564886093 0.89999997615814209 0.028819000348448753
  endloop
 endfacet
 facet normal 0 -1 0
  outer loop
   vertex 0.02022399939596653 0.89999997615814209 0.040109001100063324
   vertex 0.033424999564886093 0.89999997615814209 0.028819000348448753
   vertex 0.029565999284386635 0.89999997615814209 0.0366239994764328
  endloop
 endfacet
 facet normal 0 -1 0
  outer loop
   vertex 0.022863000631332397 0.89999997615814209 0.031773999333381653
   vertex 0.02480899915099144 0.89999997615814209 0.022009000182151794
   vertex 0.036267999559640884 0.89999997615814209 0.019872000440955162
  endloop
 endfacet
 facet normal 0 -1 0
  outer loop
   vertex 0.022863000631332397 0.89999997615814209 0.031773999333381653
   vertex 0.036267999559640884 0.89999997615814209 0.019872000440955162
   vertex 0.033424999564886093 0.89999997615814209 0.028819000348448753
  endloop
 endfacet
 facet normal 0 -1 0
  outer loop
   vertex 0.010267999954521656 0.89999997615814209 0.042242001742124557
   vertex 0.011607999913394451 0.89999997615814209 0.033583000302314758
   vertex 0.022863000631332397 0.89999997615814209 0.031773999333381653
  endloop
 endfacet
 facet normal 0 -1 0
  outer loop
   vertex 0.010267999954521656 0.89999997615814209 0.042242001742124557
   vertex 0.022863000631332397 0.89999997615814209 0.031773999333381653
   vertex 0.02022399939596653 0.89999997615814209 0.040109001100063324
  endloop
 endfacet
 facet normal 0 -1 0
  outer loop
   vertex 0.011607999913394451 0.89999997615814209 0.033583000302314758
   vertex 0.012595999985933304 0.89999997615814209 0.023318000137805939
   vertex 0.02480899915099144 0.89999997615814209 0.022009000182151794
  endloop
 endfacet
 facet normal 0 -1 0
  outer loop
   vertex 0.011607999913394451 0.89999997615814209 0.033583000302314758
   vertex 0.02480899915099144 0.89999997615814209 0.022009000182151794
   vertex 0.022863000631332397 0.89999997615814209 0.031773999333381653
  endloop
 endfacet
 facet normal 0 -1 0
  outer loop
   vertex -0.031893998384475708 0.89999997615814209 0.038010001182556152
   vertex -0.038010001182556152 0.89999997615814209 0.031893998384475708
   vertex -0.029565999284386635 0.89999997615814209 0.0366239994764328
  endloop
 endfacet
 facet normal 0 -1 0
  outer loop
   vertex -0.031893998384475708 0.89999997615814209 0.038010001182556152
   vertex -0.029565999284386635 0.89999997615814209 0.0366239994764328
   vertex -0.02480899915099144 0.89999997615814209 0.042971000075340271
  endloop
 endfacet
 facet normal 0 -1 0
  outer loop
   vertex 0.038008999079465866 0.89999997615814209 -0.010135999880731106
   vertex 0.036267999559640884 0.89999997615814209 -0.019871000200510025
   vertex 0.046626001596450806 0.89999997615814209 -0.016969999298453331
  endloop
 endfacet
 facet normal 0 -1 0
  outer loop
   vertex 0.038008999079465866 0.89999997615814209 -0.010135999880731106
   vertex 0.046626001596450806 0.89999997615814209 -0.016969999298453331
   vertex 0.048863999545574188 0.89999997615814209 -0.0086160004138946533
  endloop
 endfacet
 facet normal 0 -1 0
  outer loop
   vertex 0.033424999564886093 0.89999997615814209 0.028819000348448753
   vertex 0.036267999559640884 0.89999997615814209 0.019872000440955162
   vertex 0.046626001596450806 0.89999997615814209 0.016970999538898468
  endloop
 endfacet
 facet normal 0 -1 0
  outer loop
   vertex 0.033424999564886093 0.89999997615814209 0.028819000348448753
   vertex 0.046626001596450806 0.89999997615814209 0.016970999538898468
   vertex 0.042970001697540283 0.89999997615814209 0.02480899915099144
  endloop
 endfacet
 facet normal 0 -1 0
  outer loop
   vertex 0.02480899915099144 0.89999997615814209 0.042971000075340271
   vertex 0.029565999284386635 0.89999997615814209 0.0366239994764328
   vertex 0.038010001182556152 0.89999997615814209 0.031893998384475708
  endloop
 endfacet
 facet normal 0 -1 0
  outer loop
   vertex 0.02480899915099144 0.89999997615814209 0.042971000075340271
   vertex 0.038010001182556152 0.89999997615814209 0.031893998384475708
   vertex 0.031893998384475708 0.89999997615814209 0.038010001182556152
  endloop
 endfacet
 facet normal 0 -1 0
  outer loop
   vertex -0.02022399939596653 0.89999997615814209 0.040109001100063324
   vertex -0.022863000631332397 0.89999997615814209 0.031773999333381653
   vertex -0.011607999913394451 0.89999997615814209 0.033583000302314758
  endloop
 endfacet
 facet normal 0 -1 0
  outer loop
   vertex -0.02022399939596653 0.89999997615814209 0.040109001100063324
   vertex -0.011607999913394451 0.89999997615814209 0.033583000302314758
   vertex -0.010267999954521656 0.89999997615814209 0.042242001742124557
  endloop
 endfacet
 facet normal 0 -1 0
  outer loop
   vertex -0.022863000631332397 0.89999997615814209 0.031773999333381653
   vertex -0.02480899915099144 0.89999997615814209 0.022009000182151794
   vertex -0.012595999985933304 0.89999997615814209 0.023318000137805939
  endloop
 endfacet
 facet normal 0 -1 0
  outer loop
   vertex -0.022863000631332397 0.89999997615814209 0.031773999333381653
   vertex -0.012595999985933304 0.89999997615814209 0.023318000137805939
   vertex -0.011607999913394451 0.89999997615814209 0.033583000302314758
  endloop
 endfacet
endsolid
