solid Visualization Toolkit generated SLA File
 facet normal 0 0 -1
  outer loop
   vertex -0.12990400195121765 0.60000002384185791 0.25
   vertex -0.12990400195121765 0.57999998331069946 0.25
   vertex -0.14095400273799896 0.57999998331069946 0.25
  endloop
 endfacet
 facet normal 0 0 -1
  outer loop
   vertex -0.12990400195121765 0.60000002384185791 0.25
   vertex -0.14095400273799896 0.57999998331069946 0.25
   vertex -0.14095400273799896 0.60000002384185791 0.25
  endloop
 endfacet
 facet normal 0 0 -1
  outer loop
   vertex -0.11490699648857117 0.62000000476837158 0.25
   vertex -0.11490699648857117 0.60000002384185791 0.25
   vertex -0.12990400195121765 0.60000002384185791 0.25
  endloop
 endfacet
 facet normal 0 0 -1
  outer loop
   vertex -0.11490699648857117 0.62000000476837158 0.25
   vertex -0.12990400195121765 0.60000002384185791 0.25
   vertex -0.12990400195121765 0.62000000476837158 0.25
  endloop
 endfacet
 facet normal 0 0 -1
  outer loop
   vertex -0.11490699648857117 0.77999997138977051 0.25
   vertex -0.11490699648857117 0.75999999046325684 0.25
   vertex -0.12990400195121765 0.75999999046325684 0.25
  endloop
 endfacet
 facet normal 0 0 -1
  outer loop
   vertex -0.11490699648857117 0.77999997138977051 0.25
   vertex -0.12990400195121765 0.75999999046325684 0.25
   vertex -0.12990400195121765 0.77999997138977051 0.25
  endloop
 endfacet
 facet normal 0 0 -1
  outer loop
   vertex -0.14095400273799896 0.60000002384185791 0.25
   vertex -0.14095400273799896 0.57999998331069946 0.25
   vertex -0.15000000596046448 0.57999998331069946 0.25
  endloop
 endfacet
 facet normal 0 0 -1
  outer loop
   vertex -0.14095400273799896 0.60000002384185791 0.25
   vertex -0.15000000596046448 0.57999998331069946 0.25
   vertex -0.15000000596046448 0.60000002384185791 0.25
  endloop
 endfacet
 facet normal 0 0 -1
  outer loop
   vertex -0.14095400273799896 0.63999998569488525 0.25
   vertex -0.14095400273799896 0.62000000476837158 0.25
   vertex -0.15000000596046448 0.62000000476837158 0.25
  endloop
 endfacet
 facet normal 0 0 -1
  outer loop
   vertex -0.14095400273799896 0.63999998569488525 0.25
   vertex -0.15000000596046448 0.62000000476837158 0.25
   vertex -0.15000000596046448 0.63999998569488525 0.25
  endloop
 endfacet
 facet normal 0 0 -1
  outer loop
   vertex -0.14095400273799896 0.62000000476837158 0.25
   vertex -0.14095400273799896 0.60000002384185791 0.25
   vertex -0.15000000596046448 0.60000002384185791 0.25
  endloop
 endfacet
 facet normal 0 0 -1
  outer loop
   vertex -0.14095400273799896 0.62000000476837158 0.25
   vertex -0.15000000596046448 0.60000002384185791 0.25
   vertex -0.15000000596046448 0.62000000476837158 0.25
  endloop
 endfacet
 facet normal 0 0 -1
  outer loop
   vertex -0.14095400273799896 0.68000000715255737 0.25
   vertex -0.14095400273799896 0.6600000262260437 0.25
   vertex -0.15000000596046448 0.6600000262260437 0.25
  endloop
 endfacet
 facet normal 0 0 -1
  outer loop
   vertex -0.14095400273799896 0.68000000715255737 0.25
   vertex -0.15000000596046448 0.6600000262260437 0.25
   vertex -0.15000000596046448 0.68000000715255737 0.25
  endloop
 endfacet
 facet normal 0 0 -1
  outer loop
   vertex -0.14095400273799896 0.6600000262260437 0.25
   vertex -0.14095400273799896 0.63999998569488525 0.25
   vertex -0.15000000596046448 0.63999998569488525 0.25
  endloop
 endfacet
 facet normal 0 0 -1
  outer loop
   vertex -0.14095400273799896 0.6600000262260437 0.25
   vertex -0.15000000596046448 0.63999998569488525 0.25
   vertex -0.15000000596046448 0.6600000262260437 0.25
  endloop
 endfacet
 facet normal 0 0 -1
  outer loop
   vertex -0.14095400273799896 0.72000002861022949 0.25
   vertex -0.14095400273799896 0.69999998807907104 0.25
   vertex -0.15000000596046448 0.69999998807907104 0.25
  endloop
 endfacet
 facet normal 0 0 -1
  outer loop
   vertex -0.14095400273799896 0.72000002861022949 0.25
   vertex -0.15000000596046448 0.69999998807907104 0.25
   vertex -0.15000000596046448 0.72000002861022949 0.25
  endloop
 endfacet
 facet normal 0 0 -1
  outer loop
   vertex -0.14095400273799896 0.69999998807907104 0.25
   vertex -0.14095400273799896 0.68000000715255737 0.25
   vertex -0.15000000596046448 0.68000000715255737 0.25
  endloop
 endfacet
 facet normal 0 0 -1
  outer loop
   vertex -0.14095400273799896 0.69999998807907104 0.25
   vertex -0.15000000596046448 0.68000000715255737 0.25
   vertex -0.15000000596046448 0.69999998807907104 0.25
  endloop
 endfacet
 facet normal 0 0 -1
  outer loop
   vertex -0.14095400273799896 0.75999999046325684 0.25
   vertex -0.14095400273799896 0.74000000953674316 0.25
   vertex -0.15000000596046448 0.74000000953674316 0.25
  endloop
 endfacet
 facet normal 0 0 -1
  outer loop
   vertex -0.14095400273799896 0.75999999046325684 0.25
   vertex -0.15000000596046448 0.74000000953674316 0.25
   vertex -0.15000000596046448 0.75999999046325684 0.25
  endloop
 endfacet
 facet normal 0 0 -1
  outer loop
   vertex -0.14095400273799896 0.74000000953674316 0.25
   vertex -0.14095400273799896 0.72000002861022949 0.25
   vertex -0.15000000596046448 0.72000002861022949 0.25
  endloop
 endfacet
 facet normal 0 0 -1
  outer loop
   vertex -0.14095400273799896 0.74000000953674316 0.25
   vertex -0.15000000596046448 0.72000002861022949 0.25
   vertex -0.15000000596046448 0.74000000953674316 0.25
  endloop
 endfacet
 facet normal 0 0 -1
  outer loop
   vertex -0.14095400273799896 0.77999997138977051 0.25
   vertex -0.14095400273799896 0.75999999046325684 0.25
   vertex -0.15000000596046448 0.75999999046325684 0.25
  endloop
 endfacet
 facet normal 0 0 -1
  outer loop
   vertex -0.14095400273799896 0.77999997138977051 0.25
   vertex -0.15000000596046448 0.75999999046325684 0.25
   vertex -0.15000000596046448 0.77999997138977051 0.25
  endloop
 endfacet
 facet normal 0 0 -1
  outer loop
   vertex -0.096418000757694244 0.60000002384185791 0.25
   vertex -0.096418000757694244 0.57999998331069946 0.25
   vertex -0.11490699648857117 0.57999998331069946 0.25
  endloop
 endfacet
 facet normal 0 0 -1
  outer loop
   vertex -0.096418000757694244 0.60000002384185791 0.25
   vertex -0.11490699648857117 0.57999998331069946 0.25
   vertex -0.11490699648857117 0.60000002384185791 0.25
  endloop
 endfacet
 facet normal 0 0 -1
  outer loop
   vertex -0.12990400195121765 0.62000000476837158 0.25
   vertex -0.12990400195121765 0.60000002384185791 0.25
   vertex -0.14095400273799896 0.60000002384185791 0.25
  endloop
 endfacet
 facet normal 0 0 -1
  outer loop
   vertex -0.12990400195121765 0.62000000476837158 0.25
   vertex -0.14095400273799896 0.60000002384185791 0.25
   vertex -0.14095400273799896 0.62000000476837158 0.25
  endloop
 endfacet
 facet normal 0 0 -1
  outer loop
   vertex -0.12990400195121765 0.6600000262260437 0.25
   vertex -0.12990400195121765 0.63999998569488525 0.25
   vertex -0.14095400273799896 0.63999998569488525 0.25
  endloop
 endfacet
 facet normal 0 0 -1
  outer loop
   vertex -0.12990400195121765 0.6600000262260437 0.25
   vertex -0.14095400273799896 0.63999998569488525 0.25
   vertex -0.14095400273799896 0.6600000262260437 0.25
  endloop
 endfacet
 facet normal 0 0 -1
  outer loop
   vertex -0.12990400195121765 0.63999998569488525 0.25
   vertex -0.12990400195121765 0.62000000476837158 0.25
   vertex -0.14095400273799896 0.62000000476837158 0.25
  endloop
 endfacet
 facet normal 0 0 -1
  outer loop
   vertex -0.12990400195121765 0.63999998569488525 0.25
   vertex -0.14095400273799896 0.62000000476837158 0.25
   vertex -0.14095400273799896 0.63999998569488525 0.25
  endloop
 endfacet
 facet normal 0 0 -1
  outer loop
   vertex -0.12990400195121765 0.69999998807907104 0.25
   vertex -0.12990400195121765 0.68000000715255737 0.25
   vertex -0.14095400273799896 0.68000000715255737 0.25
  endloop
 endfacet
 facet normal 0 0 -1
  outer loop
   vertex -0.12990400195121765 0.69999998807907104 0.25
   vertex -0.14095400273799896 0.68000000715255737 0.25
   vertex -0.14095400273799896 0.69999998807907104 0.25
  endloop
 endfacet
 facet normal 0 0 -1
  outer loop
   vertex -0.12990400195121765 0.68000000715255737 0.25
   vertex -0.12990400195121765 0.6600000262260437 0.25
   vertex -0.14095400273799896 0.6600000262260437 0.25
  endloop
 endfacet
 facet normal 0 0 -1
  outer loop
   vertex -0.12990400195121765 0.68000000715255737 0.25
   vertex -0.14095400273799896 0.6600000262260437 0.25
   vertex -0.14095400273799896 0.68000000715255737 0.25
  endloop
 endfacet
 facet normal 0 0 -1
  outer loop
   vertex -0.12990400195121765 0.74000000953674316 0.25
   vertex -0.12990400195121765 0.72000002861022949 0.25
   vertex -0.14095400273799896 0.72000002861022949 0.25
  endloop
 endfacet
 facet normal 0 0 -1
  outer loop
   vertex -0.12990400195121765 0.74000000953674316 0.25
   vertex -0.14095400273799896 0.72000002861022949 0.25
   vertex -0.14095400273799896 0.74000000953674316 0.25
  endloop
 endfacet
 facet normal 0 0 -1
  outer loop
   vertex -0.12990400195121765 0.72000002861022949 0.25
   vertex -0.12990400195121765 0.69999998807907104 0.25
   vertex -0.14095400273799896 0.69999998807907104 0.25
  endloop
 endfacet
 facet normal 0 0 -1
  outer loop
   vertex -0.12990400195121765 0.72000002861022949 0.25
   vertex -0.14095400273799896 0.69999998807907104 0.25
   vertex -0.14095400273799896 0.72000002861022949 0.25
  endloop
 endfacet
 facet normal 0 0 -1
  outer loop
   vertex -0.12990400195121765 0.77999997138977051 0.25
   vertex -0.12990400195121765 0.75999999046325684 0.25
   vertex -0.14095400273799896 0.75999999046325684 0.25
  endloop
 endfacet
 facet normal 0 0 -1
  outer loop
   vertex -0.12990400195121765 0.77999997138977051 0.25
   vertex -0.14095400273799896 0.75999999046325684 0.25
   vertex -0.14095400273799896 0.77999997138977051 0.25
  endloop
 endfacet
 facet normal 0 0 -1
  outer loop
   vertex -0.12990400195121765 0.75999999046325684 0.25
   vertex -0.12990400195121765 0.74000000953674316 0.25
   vertex -0.14095400273799896 0.74000000953674316 0.25
  endloop
 endfacet
 facet normal 0 0 -1
  outer loop
   vertex -0.12990400195121765 0.75999999046325684 0.25
   vertex -0.14095400273799896 0.74000000953674316 0.25
   vertex -0.14095400273799896 0.75999999046325684 0.25
  endloop
 endfacet
 facet normal 0 0 -1
  outer loop
   vertex -0.11490699648857117 0.60000002384185791 0.25
   vertex -0.11490699648857117 0.57999998331069946 0.25
   vertex -0.12990400195121765 0.57999998331069946 0.25
  endloop
 endfacet
 facet normal 0 0 -1
  outer loop
   vertex -0.11490699648857117 0.60000002384185791 0.25
   vertex -0.12990400195121765 0.57999998331069946 0.25
   vertex -0.12990400195121765 0.60000002384185791 0.25
  endloop
 endfacet
 facet normal 0 0 -1
  outer loop
   vertex -0.075000002980232239 0.75999999046325684 0.25
   vertex -0.075000002980232239 0.74000000953674316 0.25
   vertex -0.096418000757694244 0.74000000953674316 0.25
  endloop
 endfacet
 facet normal 0 0 -1
  outer loop
   vertex -0.075000002980232239 0.75999999046325684 0.25
   vertex -0.096418000757694244 0.74000000953674316 0.25
   vertex -0.096418000757694244 0.75999999046325684 0.25
  endloop
 endfacet
 facet normal 0 0 -1
  outer loop
   vertex -0.075000002980232239 0.74000000953674316 0.25
   vertex -0.075000002980232239 0.72000002861022949 0.25
   vertex -0.096418000757694244 0.72000002861022949 0.25
  endloop
 endfacet
 facet normal 0 0 -1
  outer loop
   vertex -0.075000002980232239 0.74000000953674316 0.25
   vertex -0.096418000757694244 0.72000002861022949 0.25
   vertex -0.096418000757694244 0.74000000953674316 0.25
  endloop
 endfacet
 facet normal 0 0 -1
  outer loop
   vertex -0.049995999783277512 0.60000002384185791 0.25
   vertex -0.049995999783277512 0.57999998331069946 0.25
   vertex -0.075000002980232239 0.57999998331069946 0.25
  endloop
 endfacet
 facet normal 0 0 -1
  outer loop
   vertex -0.049995999783277512 0.60000002384185791 0.25
   vertex -0.075000002980232239 0.57999998331069946 0.25
   vertex -0.075000002980232239 0.60000002384185791 0.25
  endloop
 endfacet
 facet normal 0 0 -1
  outer loop
   vertex -0.11490699648857117 0.63999998569488525 0.25
   vertex -0.11490699648857117 0.62000000476837158 0.25
   vertex -0.12990400195121765 0.62000000476837158 0.25
  endloop
 endfacet
 facet normal 0 0 -1
  outer loop
   vertex -0.11490699648857117 0.63999998569488525 0.25
   vertex -0.12990400195121765 0.62000000476837158 0.25
   vertex -0.12990400195121765 0.63999998569488525 0.25
  endloop
 endfacet
 facet normal 0 0 -1
  outer loop
   vertex -0.11490699648857117 0.68000000715255737 0.25
   vertex -0.11490699648857117 0.6600000262260437 0.25
   vertex -0.12990400195121765 0.6600000262260437 0.25
  endloop
 endfacet
 facet normal 0 0 -1
  outer loop
   vertex -0.11490699648857117 0.68000000715255737 0.25
   vertex -0.12990400195121765 0.6600000262260437 0.25
   vertex -0.12990400195121765 0.68000000715255737 0.25
  endloop
 endfacet
 facet normal 0 0 -1
  outer loop
   vertex -0.11490699648857117 0.6600000262260437 0.25
   vertex -0.11490699648857117 0.63999998569488525 0.25
   vertex -0.12990400195121765 0.63999998569488525 0.25
  endloop
 endfacet
 facet normal 0 0 -1
  outer loop
   vertex -0.11490699648857117 0.6600000262260437 0.25
   vertex -0.12990400195121765 0.63999998569488525 0.25
   vertex -0.12990400195121765 0.6600000262260437 0.25
  endloop
 endfacet
 facet normal 0 0 -1
  outer loop
   vertex -0.11490699648857117 0.72000002861022949 0.25
   vertex -0.11490699648857117 0.69999998807907104 0.25
   vertex -0.12990400195121765 0.69999998807907104 0.25
  endloop
 endfacet
 facet normal 0 0 -1
  outer loop
   vertex -0.11490699648857117 0.72000002861022949 0.25
   vertex -0.12990400195121765 0.69999998807907104 0.25
   vertex -0.12990400195121765 0.72000002861022949 0.25
  endloop
 endfacet
 facet normal 0 0 -1
  outer loop
   vertex -0.11490699648857117 0.69999998807907104 0.25
   vertex -0.11490699648857117 0.68000000715255737 0.25
   vertex -0.12990400195121765 0.68000000715255737 0.25
  endloop
 endfacet
 facet normal 0 0 -1
  outer loop
   vertex -0.11490699648857117 0.69999998807907104 0.25
   vertex -0.12990400195121765 0.68000000715255737 0.25
   vertex -0.12990400195121765 0.69999998807907104 0.25
  endloop
 endfacet
 facet normal 0 0 -1
  outer loop
   vertex -0.11490699648857117 0.75999999046325684 0.25
   vertex -0.11490699648857117 0.74000000953674316 0.25
   vertex -0.12990400195121765 0.74000000953674316 0.25
  endloop
 endfacet
 facet normal 0 0 -1
  outer loop
   vertex -0.11490699648857117 0.75999999046325684 0.25
   vertex -0.12990400195121765 0.74000000953674316 0.25
   vertex -0.12990400195121765 0.75999999046325684 0.25
  endloop
 endfacet
 facet normal 0 0 -1
  outer loop
   vertex -0.11490699648857117 0.74000000953674316 0.25
   vertex -0.11490699648857117 0.72000002861022949 0.25
   vertex -0.12990400195121765 0.72000002861022949 0.25
  endloop
 endfacet
 facet normal 0 0 -1
  outer loop
   vertex -0.11490699648857117 0.74000000953674316 0.25
   vertex -0.12990400195121765 0.72000002861022949 0.25
   vertex -0.12990400195121765 0.74000000953674316 0.25
  endloop
 endfacet
 facet normal 0 0 -1
  outer loop
   vertex -0.049995999783277512 0.77999997138977051 0.25
   vertex -0.049995999783277512 0.75999999046325684 0.25
   vertex -0.075000002980232239 0.75999999046325684 0.25
  endloop
 endfacet
 facet normal 0 0 -1
  outer loop
   vertex -0.049995999783277512 0.77999997138977051 0.25
   vertex -0.075000002980232239 0.75999999046325684 0.25
   vertex -0.075000002980232239 0.77999997138977051 0.25
  endloop
 endfacet
 facet normal 0 0 -1
  outer loop
   vertex -0.075000002980232239 0.72000002861022949 0.25
   vertex -0.075000002980232239 0.69999998807907104 0.25
   vertex -0.096418000757694244 0.69999998807907104 0.25
  endloop
 endfacet
 facet normal 0 0 -1
  outer loop
   vertex -0.075000002980232239 0.72000002861022949 0.25
   vertex -0.096418000757694244 0.69999998807907104 0.25
   vertex -0.096418000757694244 0.72000002861022949 0.25
  endloop
 endfacet
 facet normal 0 0 -1
  outer loop
   vertex -0.075000002980232239 0.69999998807907104 0.25
   vertex -0.075000002980232239 0.68000000715255737 0.25
   vertex -0.096418000757694244 0.68000000715255737 0.25
  endloop
 endfacet
 facet normal 0 0 -1
  outer loop
   vertex -0.075000002980232239 0.69999998807907104 0.25
   vertex -0.096418000757694244 0.68000000715255737 0.25
   vertex -0.096418000757694244 0.69999998807907104 0.25
  endloop
 endfacet
 facet normal 0 0 -1
  outer loop
   vertex -0.075000002980232239 0.6600000262260437 0.25
   vertex -0.075000002980232239 0.63999998569488525 0.25
   vertex -0.096418000757694244 0.63999998569488525 0.25
  endloop
 endfacet
 facet normal 0 0 -1
  outer loop
   vertex -0.075000002980232239 0.6600000262260437 0.25
   vertex -0.096418000757694244 0.63999998569488525 0.25
   vertex -0.096418000757694244 0.6600000262260437 0.25
  endloop
 endfacet
 facet normal 0 0 -1
  outer loop
   vertex -0.075000002980232239 0.68000000715255737 0.25
   vertex -0.075000002980232239 0.6600000262260437 0.25
   vertex -0.096418000757694244 0.6600000262260437 0.25
  endloop
 endfacet
 facet normal 0 0 -1
  outer loop
   vertex -0.075000002980232239 0.68000000715255737 0.25
   vertex -0.096418000757694244 0.6600000262260437 0.25
   vertex -0.096418000757694244 0.68000000715255737 0.25
  endloop
 endfacet
 facet normal 0 0 -1
  outer loop
   vertex -0.096418000757694244 0.62000000476837158 0.25
   vertex -0.096418000757694244 0.60000002384185791 0.25
   vertex -0.11490699648857117 0.60000002384185791 0.25
  endloop
 endfacet
 facet normal 0 0 -1
  outer loop
   vertex -0.096418000757694244 0.62000000476837158 0.25
   vertex -0.11490699648857117 0.60000002384185791 0.25
   vertex -0.11490699648857117 0.62000000476837158 0.25
  endloop
 endfacet
 facet normal 0 0 -1
  outer loop
   vertex -0.096418000757694244 0.6600000262260437 0.25
   vertex -0.096418000757694244 0.63999998569488525 0.25
   vertex -0.11490699648857117 0.63999998569488525 0.25
  endloop
 endfacet
 facet normal 0 0 -1
  outer loop
   vertex -0.096418000757694244 0.6600000262260437 0.25
   vertex -0.11490699648857117 0.63999998569488525 0.25
   vertex -0.11490699648857117 0.6600000262260437 0.25
  endloop
 endfacet
 facet normal 0 0 -1
  outer loop
   vertex -0.096418000757694244 0.63999998569488525 0.25
   vertex -0.096418000757694244 0.62000000476837158 0.25
   vertex -0.11490699648857117 0.62000000476837158 0.25
  endloop
 endfacet
 facet normal 0 0 -1
  outer loop
   vertex -0.096418000757694244 0.63999998569488525 0.25
   vertex -0.11490699648857117 0.62000000476837158 0.25
   vertex -0.11490699648857117 0.63999998569488525 0.25
  endloop
 endfacet
 facet normal 0 0 -1
  outer loop
   vertex -0.096418000757694244 0.69999998807907104 0.25
   vertex -0.096418000757694244 0.68000000715255737 0.25
   vertex -0.11490699648857117 0.68000000715255737 0.25
  endloop
 endfacet
 facet normal 0 0 -1
  outer loop
   vertex -0.096418000757694244 0.69999998807907104 0.25
   vertex -0.11490699648857117 0.68000000715255737 0.25
   vertex -0.11490699648857117 0.69999998807907104 0.25
  endloop
 endfacet
 facet normal 0 0 -1
  outer loop
   vertex -0.096418000757694244 0.68000000715255737 0.25
   vertex -0.096418000757694244 0.6600000262260437 0.25
   vertex -0.11490699648857117 0.6600000262260437 0.25
  endloop
 endfacet
 facet normal 0 0 -1
  outer loop
   vertex -0.096418000757694244 0.68000000715255737 0.25
   vertex -0.11490699648857117 0.6600000262260437 0.25
   vertex -0.11490699648857117 0.68000000715255737 0.25
  endloop
 endfacet
 facet normal 0 0 -1
  outer loop
   vertex -0.096418000757694244 0.74000000953674316 0.25
   vertex -0.096418000757694244 0.72000002861022949 0.25
   vertex -0.11490699648857117 0.72000002861022949 0.25
  endloop
 endfacet
 facet normal 0 0 -1
  outer loop
   vertex -0.096418000757694244 0.74000000953674316 0.25
   vertex -0.11490699648857117 0.72000002861022949 0.25
   vertex -0.11490699648857117 0.74000000953674316 0.25
  endloop
 endfacet
 facet normal 0 0 -1
  outer loop
   vertex -0.096418000757694244 0.72000002861022949 0.25
   vertex -0.096418000757694244 0.69999998807907104 0.25
   vertex -0.11490699648857117 0.69999998807907104 0.25
  endloop
 endfacet
 facet normal 0 0 -1
  outer loop
   vertex -0.096418000757694244 0.72000002861022949 0.25
   vertex -0.11490699648857117 0.69999998807907104 0.25
   vertex -0.11490699648857117 0.72000002861022949 0.25
  endloop
 endfacet
 facet normal 0 0 -1
  outer loop
   vertex -0.096418000757694244 0.77999997138977051 0.25
   vertex -0.096418000757694244 0.75999999046325684 0.25
   vertex -0.11490699648857117 0.75999999046325684 0.25
  endloop
 endfacet
 facet normal 0 0 -1
  outer loop
   vertex -0.096418000757694244 0.77999997138977051 0.25
   vertex -0.11490699648857117 0.75999999046325684 0.25
   vertex -0.11490699648857117 0.77999997138977051 0.25
  endloop
 endfacet
 facet normal 0 0 -1
  outer loop
   vertex -0.096418000757694244 0.75999999046325684 0.25
   vertex -0.096418000757694244 0.74000000953674316 0.25
   vertex -0.11490699648857117 0.74000000953674316 0.25
  endloop
 endfacet
 facet normal 0 0 -1
  outer loop
   vertex -0.096418000757694244 0.75999999046325684 0.25
   vertex -0.11490699648857117 0.74000000953674316 0.25
   vertex -0.11490699648857117 0.75999999046325684 0.25
  endloop
 endfacet
 facet normal 0 0 -1
  outer loop
   vertex -0.075000002980232239 0.62000000476837158 0.25
   vertex -0.075000002980232239 0.60000002384185791 0.25
   vertex -0.096418000757694244 0.60000002384185791 0.25
  endloop
 endfacet
 facet normal 0 0 -1
  outer loop
   vertex -0.075000002980232239 0.62000000476837158 0.25
   vertex -0.096418000757694244 0.60000002384185791 0.25
   vertex -0.096418000757694244 0.62000000476837158 0.25
  endloop
 endfacet
 facet normal 0 0 -1
  outer loop
   vertex -0.075000002980232239 0.60000002384185791 0.25
   vertex -0.075000002980232239 0.57999998331069946 0.25
   vertex -0.096418000757694244 0.57999998331069946 0.25
  endloop
 endfacet
 facet normal 0 0 -1
  outer loop
   vertex -0.075000002980232239 0.60000002384185791 0.25
   vertex -0.096418000757694244 0.57999998331069946 0.25
   vertex -0.096418000757694244 0.60000002384185791 0.25
  endloop
 endfacet
 facet normal 0 0 -1
  outer loop
   vertex -0.075000002980232239 0.63999998569488525 0.25
   vertex -0.075000002980232239 0.62000000476837158 0.25
   vertex -0.096418000757694244 0.62000000476837158 0.25
  endloop
 endfacet
 facet normal 0 0 -1
  outer loop
   vertex -0.075000002980232239 0.63999998569488525 0.25
   vertex -0.096418000757694244 0.62000000476837158 0.25
   vertex -0.096418000757694244 0.63999998569488525 0.25
  endloop
 endfacet
 facet normal 0 0 -1
  outer loop
   vertex -0.075000002980232239 0.77999997138977051 0.25
   vertex -0.075000002980232239 0.75999999046325684 0.25
   vertex -0.096418000757694244 0.75999999046325684 0.25
  endloop
 endfacet
 facet normal 0 0 -1
  outer loop
   vertex -0.075000002980232239 0.77999997138977051 0.25
   vertex -0.096418000757694244 0.75999999046325684 0.25
   vertex -0.096418000757694244 0.77999997138977051 0.25
  endloop
 endfacet
 facet normal 0 0 -1
  outer loop
   vertex -0.049995999783277512 0.63999998569488525 0.25
   vertex -0.049995999783277512 0.62000000476837158 0.25
   vertex -0.075000002980232239 0.62000000476837158 0.25
  endloop
 endfacet
 facet normal 0 0 -1
  outer loop
   vertex -0.049995999783277512 0.63999998569488525 0.25
   vertex -0.075000002980232239 0.62000000476837158 0.25
   vertex -0.075000002980232239 0.63999998569488525 0.25
  endloop
 endfacet
 facet normal 0 0 -1
  outer loop
   vertex -0.049995999783277512 0.62000000476837158 0.25
   vertex -0.049995999783277512 0.60000002384185791 0.25
   vertex -0.075000002980232239 0.60000002384185791 0.25
  endloop
 endfacet
 facet normal 0 0 -1
  outer loop
   vertex -0.049995999783277512 0.62000000476837158 0.25
   vertex -0.075000002980232239 0.60000002384185791 0.25
   vertex -0.075000002980232239 0.62000000476837158 0.25
  endloop
 endfacet
 facet normal 0 0 -1
  outer loop
   vertex -0.049995999783277512 0.68000000715255737 0.25
   vertex -0.049995999783277512 0.6600000262260437 0.25
   vertex -0.075000002980232239 0.6600000262260437 0.25
  endloop
 endfacet
 facet normal 0 0 -1
  outer loop
   vertex -0.049995999783277512 0.68000000715255737 0.25
   vertex -0.075000002980232239 0.6600000262260437 0.25
   vertex -0.075000002980232239 0.68000000715255737 0.25
  endloop
 endfacet
 facet normal 0 0 -1
  outer loop
   vertex -0.049995999783277512 0.6600000262260437 0.25
   vertex -0.049995999783277512 0.63999998569488525 0.25
   vertex -0.075000002980232239 0.63999998569488525 0.25
  endloop
 endfacet
 facet normal 0 0 -1
  outer loop
   vertex -0.049995999783277512 0.6600000262260437 0.25
   vertex -0.075000002980232239 0.63999998569488525 0.25
   vertex -0.075000002980232239 0.6600000262260437 0.25
  endloop
 endfacet
 facet normal 0 0 -1
  outer loop
   vertex -0.049995999783277512 0.72000002861022949 0.25
   vertex -0.049995999783277512 0.69999998807907104 0.25
   vertex -0.075000002980232239 0.69999998807907104 0.25
  endloop
 endfacet
 facet normal 0 0 -1
  outer loop
   vertex -0.049995999783277512 0.72000002861022949 0.25
   vertex -0.075000002980232239 0.69999998807907104 0.25
   vertex -0.075000002980232239 0.72000002861022949 0.25
  endloop
 endfacet
 facet normal 0 0 -1
  outer loop
   vertex -0.049995999783277512 0.69999998807907104 0.25
   vertex -0.049995999783277512 0.68000000715255737 0.25
   vertex -0.075000002980232239 0.68000000715255737 0.25
  endloop
 endfacet
 facet normal 0 0 -1
  outer loop
   vertex -0.049995999783277512 0.69999998807907104 0.25
   vertex -0.075000002980232239 0.68000000715255737 0.25
   vertex -0.075000002980232239 0.69999998807907104 0.25
  endloop
 endfacet
 facet normal 0 0 -1
  outer loop
   vertex -0.049995999783277512 0.75999999046325684 0.25
   vertex -0.049995999783277512 0.74000000953674316 0.25
   vertex -0.075000002980232239 0.74000000953674316 0.25
  endloop
 endfacet
 facet normal 0 0 -1
  outer loop
   vertex -0.049995999783277512 0.75999999046325684 0.25
   vertex -0.075000002980232239 0.74000000953674316 0.25
   vertex -0.075000002980232239 0.75999999046325684 0.25
  endloop
 endfacet
 facet normal 0 0 -1
  outer loop
   vertex -0.049995999783277512 0.74000000953674316 0.25
   vertex -0.049995999783277512 0.72000002861022949 0.25
   vertex -0.075000002980232239 0.72000002861022949 0.25
  endloop
 endfacet
 facet normal 0 0 -1
  outer loop
   vertex -0.049995999783277512 0.74000000953674316 0.25
   vertex -0.075000002980232239 0.72000002861022949 0.25
   vertex -0.075000002980232239 0.74000000953674316 0.25
  endloop
 endfacet
endsolid
