<?xml version="1.0" encoding="UTF-8" standalone="no"?>
<svg
   fill="#000000"
   height="24"
   viewBox="0 0 24 24"
   width="24"
   version="1.1"
   id="svg18"
   sodipodi:docname="pic.svg"
   inkscape:version="1.2.1 (9c6d41e410, 2022-07-14)"
   xmlns:inkscape="http://www.inkscape.org/namespaces/inkscape"
   xmlns:sodipodi="http://sodipodi.sourceforge.net/DTD/sodipodi-0.dtd"
   xmlns="http://www.w3.org/2000/svg"
   xmlns:svg="http://www.w3.org/2000/svg">
  <defs
     id="defs22" />
  <sodipodi:namedview
     id="namedview20"
     pagecolor="#ffffff"
     bordercolor="#666666"
     borderopacity="1.0"
     inkscape:showpageshadow="2"
     inkscape:pageopacity="0.0"
     inkscape:pagecheckerboard="0"
     inkscape:deskcolor="#d1d1d1"
     showgrid="false"
     inkscape:zoom="37.5"
     inkscape:cx="12"
     inkscape:cy="12.013333"
     inkscape:window-width="2560"
     inkscape:window-height="1413"
     inkscape:window-x="0"
     inkscape:window-y="0"
     inkscape:window-maximized="1"
     inkscape:current-layer="svg18" />
  <circle
     cx="9.5229273"
     cy="12.769694"
     r="1.3075795"
     id="circle2" />
  <circle
     cx="4.8222389"
     cy="14.863179"
     r="1.3075795"
     id="circle4" />
  <circle
     cx="11.498991"
     cy="16.356821"
     r="1.3075795"
     id="circle6" />
  <circle
     cx="15.644082"
     cy="17.452572"
     r="1.3075795"
     id="circle8" />
  <circle
     cx="12.258474"
     cy="10.018468"
     r="1.3075795"
     id="circle10" />
  <circle
     cx="18.121109"
     cy="14.292263"
     r="1.3075795"
     id="circle12" />
  <circle
     cx="16.156279"
     cy="7.3255792"
     r="1.3075795"
     id="circle14" />
  <path
     d="M 9.678699,6.0434432 C 8.0869617,4.7988288 5.2505577,7.0924753 4.7119999,10.132891 0.40353808,10.328473 -1.3437826,16.764908 2.0790511,22.632376 H 21.826168 C 24.243694,17.79616 24.088111,14.293459 21.275642,10.648518 19.731777,0.17597495 13.628122,-1.2997822 9.6906671,6.0434432 Z m 10.483924,5.4940848 c 2.381621,3.413798 2.932148,5.565204 1.029244,9.316828 H 2.5098972 C 0.03253164,15.644754 1.7798523,11.73311 5.5018846,11.73311 6.5071924,7.8925848 8.278449,6.8435525 10.229225,7.8214639 c 4.476013,-8.05443375 8.664795,-4.3561506 9.98127,3.7338431 z"
     id="path16"
     style="stroke-width:1.45874" />
  <circle
     cx="7.2653975"
     cy="17.809973"
     r="1.3075795"
     id="circle4-3" />
</svg>
