<svg xmlns="http://www.w3.org/2000/svg"  viewBox="0 0 48 48" width="48px" height="48px"><path d="M 12.5 4 C 10.019 4 8 6.019 8 8.5 L 8 39.5 C 8 41.981 10.019 44 12.5 44 L 18.050781 44 L 16.025391 41.974609 C 15.738391 41.687609 15.519609 41.355 15.349609 41 L 12.5 41 C 11.673 41 11 40.327 11 39.5 L 11 8.5 C 11 7.673 11.673 7 12.5 7 L 24 7 L 24 15.5 C 24 17.981 26.019 20 28.5 20 L 37 20 L 37 39.5 C 37 40.327 36.327 41 35.5 41 L 31.650391 41 C 31.480391 41.356 31.260609 41.689563 30.974609 41.976562 L 28.949219 44 L 35.5 44 C 37.981 44 40 41.981 40 39.5 L 40 18.5 C 40 18.0855 39.832047 17.710828 39.560547 17.439453 L 26.560547 4.4394531 C 26.289047 4.1680781 25.914 4 25.5 4 L 12.5 4 z M 27 9.1210938 L 34.878906 17 L 28.5 17 C 27.673 17 27 16.327 27 15.5 L 27 9.1210938 z M 23.476562 28.978516 A 1.50015 1.50015 0 0 0 22 30.5 L 22 40.878906 L 19.560547 38.439453 A 1.50015 1.50015 0 1 0 17.439453 40.560547 L 22.310547 45.431641 A 1.50015 1.50015 0 0 0 24.697266 45.423828 L 29.560547 40.560547 A 1.50015 1.50015 0 1 0 27.439453 38.439453 L 25 40.878906 L 25 30.5 A 1.50015 1.50015 0 0 0 23.476562 28.978516 z"/></svg>