solid Visualization Toolkit generated SLA File
 facet normal -0.098017299014720033 -0.99518471104306006 -0
  outer loop
   vertex 0.009754515253007412 0.051039259880781174 0.099999994039535522
   vertex 0 0.051999997347593307 0.099999994039535522
   vertex 0 0.051999997347593307 7.4505805969238281e-09
  endloop
 endfacet
 facet normal -0.098017299014720033 -0.99518471104306006 0
  outer loop
   vertex 0 0.051999997347593307 7.4505805969238281e-09
   vertex 0.009754515253007412 0.051039259880781174 7.4505805969238281e-09
   vertex 0.009754515253007412 0.051039259880781174 0.099999994039535522
  endloop
 endfacet
 facet normal -0.29028465535685921 -0.95694034237477388 -0
  outer loop
   vertex 0.019134171307086945 0.048193972557783127 0.099999994039535522
   vertex 0.009754515253007412 0.051039259880781174 0.099999994039535522
   vertex 0.009754515253007412 0.051039259880781174 7.4505805969238281e-09
  endloop
 endfacet
 facet normal -0.29028465535685921 -0.95694034237477388 0
  outer loop
   vertex 0.009754515253007412 0.051039259880781174 7.4505805969238281e-09
   vertex 0.019134171307086945 0.048193972557783127 7.4505805969238281e-09
   vertex 0.019134171307086945 0.048193972557783127 0.099999994039535522
  endloop
 endfacet
 facet normal -0.47139680721536426 -0.88192122672445117 -0
  outer loop
   vertex 0.027778510004281998 0.043573476374149323 0.099999994039535522
   vertex 0.019134171307086945 0.048193972557783127 0.099999994039535522
   vertex 0.019134171307086945 0.048193972557783127 7.4505805969238281e-09
  endloop
 endfacet
 facet normal -0.47139680721536426 -0.88192122672445117 0
  outer loop
   vertex 0.019134171307086945 0.048193972557783127 7.4505805969238281e-09
   vertex 0.027778510004281998 0.043573476374149323 7.4505805969238281e-09
   vertex 0.027778510004281998 0.043573476374149323 0.099999994039535522
  endloop
 endfacet
 facet normal -0.6343931558033008 -0.77301055870533164 -0
  outer loop
   vertex 0.035355336964130402 0.037355337291955948 0.099999994039535522
   vertex 0.027778510004281998 0.043573476374149323 0.099999994039535522
   vertex 0.027778510004281998 0.043573476374149323 7.4505805969238281e-09
  endloop
 endfacet
 facet normal -0.6343931558033008 -0.77301055870533164 0
  outer loop
   vertex 0.027778510004281998 0.043573476374149323 7.4505805969238281e-09
   vertex 0.035355336964130402 0.037355337291955948 7.4505805969238281e-09
   vertex 0.035355336964130402 0.037355337291955948 0.099999994039535522
  endloop
 endfacet
 facet normal -0.77301044880368808 -0.63439328971886233 -0
  outer loop
   vertex 0.041573479771614075 0.029778508469462395 0.099999994039535522
   vertex 0.035355336964130402 0.037355337291955948 0.099999994039535522
   vertex 0.035355336964130402 0.037355337291955948 7.4505805969238281e-09
  endloop
 endfacet
 facet normal -0.77301044880368808 -0.63439328971886233 0
  outer loop
   vertex 0.035355336964130402 0.037355337291955948 7.4505805969238281e-09
   vertex 0.041573479771614075 0.029778508469462395 7.4505805969238281e-09
   vertex 0.041573479771614075 0.029778508469462395 0.099999994039535522
  endloop
 endfacet
 facet normal -0.88192138473079207 -0.47139651160622947 -0
  outer loop
   vertex 0.046193972229957581 0.021134169772267342 0.099999994039535522
   vertex 0.041573479771614075 0.029778508469462395 0.099999994039535522
   vertex 0.041573479771614075 0.029778508469462395 7.4505805969238281e-09
  endloop
 endfacet
 facet normal -0.88192138473079207 -0.47139651160622947 0
  outer loop
   vertex 0.041573479771614075 0.029778508469462395 7.4505805969238281e-09
   vertex 0.046193972229957581 0.021134169772267342 7.4505805969238281e-09
   vertex 0.046193972229957581 0.021134169772267342 0.099999994039535522
  endloop
 endfacet
 facet normal -0.95694031034849603 -0.29028476093333616 -0
  outer loop
   vertex 0.049039259552955627 0.011754517443478107 0.099999994039535522
   vertex 0.046193972229957581 0.021134169772267342 0.099999994039535522
   vertex 0.046193972229957581 0.021134169772267342 7.4505805969238281e-09
  endloop
 endfacet
 facet normal -0.95694031034849603 -0.29028476093333616 0
  outer loop
   vertex 0.046193972229957581 0.021134169772267342 7.4505805969238281e-09
   vertex 0.049039259552955627 0.011754517443478107 7.4505805969238281e-09
   vertex 0.049039259552955627 0.011754517443478107 0.099999994039535522
  endloop
 endfacet
 facet normal -0.99518470944555681 -0.098017315234414898 -0
  outer loop
   vertex 0.049999997019767761 0.0020000038202852011 0.099999994039535522
   vertex 0.049039259552955627 0.011754517443478107 0.099999994039535522
   vertex 0.049039259552955627 0.011754517443478107 7.4505805969238281e-09
  endloop
 endfacet
 facet normal -0.99518470944555681 -0.098017315234414898 0
  outer loop
   vertex 0.049039259552955627 0.011754517443478107 7.4505805969238281e-09
   vertex 0.049999997019767761 0.0020000038202852011 7.4505805969238281e-09
   vertex 0.049999997019767761 0.0020000038202852011 0.099999994039535522
  endloop
 endfacet
 facet normal -0.99518474651908129 0.098016938820551611 0
  outer loop
   vertex 0.049039263278245926 -0.0077545098029077053 0.099999994039535522
   vertex 0.049999997019767761 0.0020000038202852011 0.099999994039535522
   vertex 0.049999997019767761 0.0020000038202852011 7.4505805969238281e-09
  endloop
 endfacet
 facet normal -0.99518474651908129 0.098016938820551611 0
  outer loop
   vertex 0.049999997019767761 0.0020000038202852011 7.4505805969238281e-09
   vertex 0.049039263278245926 -0.0077545098029077053 7.4505805969238281e-09
   vertex 0.049039263278245926 -0.0077545098029077053 0.099999994039535522
  endloop
 endfacet
 facet normal -0.95694030634520888 0.29028477413040094 0
  outer loop
   vertex 0.046193975955247879 -0.017134161666035652 0.099999994039535522
   vertex 0.049039263278245926 -0.0077545098029077053 0.099999994039535522
   vertex 0.049039263278245926 -0.0077545098029077053 7.4505805969238281e-09
  endloop
 endfacet
 facet normal -0.95694030634520888 0.29028477413040094 0
  outer loop
   vertex 0.049039263278245926 -0.0077545098029077053 7.4505805969238281e-09
   vertex 0.046193975955247879 -0.017134161666035652 7.4505805969238281e-09
   vertex 0.046193975955247879 -0.017134161666035652 0.099999994039535522
  endloop
 endfacet
 facet normal -0.88192139563663408 0.47139649120282129 0
  outer loop
   vertex 0.041573479771614075 -0.025778507813811302 0.099999994039535522
   vertex 0.046193975955247879 -0.017134161666035652 0.099999994039535522
   vertex 0.046193975955247879 -0.017134161666035652 7.4505805969238281e-09
  endloop
 endfacet
 facet normal -0.88192139563663408 0.47139649120282129 0
  outer loop
   vertex 0.046193975955247879 -0.017134161666035652 7.4505805969238281e-09
   vertex 0.041573479771614075 -0.025778507813811302 7.4505805969238281e-09
   vertex 0.041573479771614075 -0.025778507813811302 0.099999994039535522
  endloop
 endfacet
 facet normal -0.77301044880368808 0.63439328971886233 0
  outer loop
   vertex 0.035355336964130402 -0.033355336636304855 0.099999994039535522
   vertex 0.041573479771614075 -0.025778507813811302 0.099999994039535522
   vertex 0.041573479771614075 -0.025778507813811302 7.4505805969238281e-09
  endloop
 endfacet
 facet normal -0.77301044880368808 0.63439328971886233 0
  outer loop
   vertex 0.041573479771614075 -0.025778507813811302 7.4505805969238281e-09
   vertex 0.035355336964130402 -0.033355336636304855 7.4505805969238281e-09
   vertex 0.035355336964130402 -0.033355336636304855 0.099999994039535522
  endloop
 endfacet
 facet normal -0.63439328971886233 0.77301044880368808 0
  outer loop
   vertex 0.027778508141636848 -0.039573479443788528 0.099999994039535522
   vertex 0.035355336964130402 -0.033355336636304855 0.099999994039535522
   vertex 0.035355336964130402 -0.033355336636304855 7.4505805969238281e-09
  endloop
 endfacet
 facet normal -0.63439328971886233 0.77301044880368808 0
  outer loop
   vertex 0.035355336964130402 -0.033355336636304855 7.4505805969238281e-09
   vertex 0.027778508141636848 -0.039573479443788528 7.4505805969238281e-09
   vertex 0.027778508141636848 -0.039573479443788528 0.099999994039535522
  endloop
 endfacet
 facet normal -0.47139678681171215 0.88192123763043206 0
  outer loop
   vertex 0.019134161993861198 -0.044193979352712631 0.099999994039535522
   vertex 0.027778508141636848 -0.039573479443788528 0.099999994039535522
   vertex 0.027778508141636848 -0.039573479443788528 7.4505805969238281e-09
  endloop
 endfacet
 facet normal -0.47139678681171215 0.88192123763043206 0
  outer loop
   vertex 0.027778508141636848 -0.039573479443788528 7.4505805969238281e-09
   vertex 0.019134161993861198 -0.044193979352712631 7.4505805969238281e-09
   vertex 0.019134161993861198 -0.044193979352712631 0.099999994039535522
  endloop
 endfacet
 facet normal -0.2902842545297325 0.9569404639642517 0
  outer loop
   vertex 0.0097545040771365166 -0.04703926295042038 0.099999994039535522
   vertex 0.019134161993861198 -0.044193979352712631 0.099999994039535522
   vertex 0.019134161993861198 -0.044193979352712631 7.4505805969238281e-09
  endloop
 endfacet
 facet normal -0.2902842545297325 0.9569404639642517 0
  outer loop
   vertex 0.019134161993861198 -0.044193979352712631 7.4505805969238281e-09
   vertex 0.0097545040771365166 -0.04703926295042038 7.4505805969238281e-09
   vertex 0.0097545040771365166 -0.04703926295042038 0.099999994039535522
  endloop
 endfacet
 facet normal -0.098016871685437088 0.99518475313129706 0
  outer loop
   vertex -1.6292068139023286e-08 -0.047999996691942215 0.099999994039535522
   vertex 0.0097545040771365166 -0.04703926295042038 0.099999994039535522
   vertex 0.0097545040771365166 -0.04703926295042038 7.4505805969238281e-09
  endloop
 endfacet
 facet normal -0.098016871685437088 0.99518475313129706 0
  outer loop
   vertex 0.0097545040771365166 -0.04703926295042038 7.4505805969238281e-09
   vertex -1.6292068139023286e-08 -0.047999996691942215 7.4505805969238281e-09
   vertex -1.6292068139023286e-08 -0.047999996691942215 0.099999994039535522
  endloop
 endfacet
 facet normal 0.098017633660084008 0.99518467808325783 0
  outer loop
   vertex -0.0097545357421040535 -0.047039255499839783 0.099999994039535522
   vertex -1.6292068139023286e-08 -0.047999996691942215 0.099999994039535522
   vertex -1.6292068139023286e-08 -0.047999996691942215 7.4505805969238281e-09
  endloop
 endfacet
 facet normal 0.098017633660084008 0.99518467808325783 -0
  outer loop
   vertex -1.6292068139023286e-08 -0.047999996691942215 7.4505805969238281e-09
   vertex -0.0097545357421040535 -0.047039255499839783 7.4505805969238281e-09
   vertex -0.0097545357421040535 -0.047039255499839783 0.099999994039535522
  endloop
 endfacet
 facet normal 0.29028500339571134 0.95694023679828211 0
  outer loop
   vertex -0.019134191796183586 -0.044193964451551437 0.099999994039535522
   vertex -0.0097545357421040535 -0.047039255499839783 0.099999994039535522
   vertex -0.0097545357421040535 -0.047039255499839783 7.4505805969238281e-09
  endloop
 endfacet
 facet normal 0.29028500339571134 0.95694023679828211 -0
  outer loop
   vertex -0.0097545357421040535 -0.047039255499839783 7.4505805969238281e-09
   vertex -0.019134191796183586 -0.044193964451551437 7.4505805969238281e-09
   vertex -0.019134191796183586 -0.044193964451551437 0.099999994039535522
  endloop
 endfacet
 facet normal 0.47139724042675529 0.88192099516795719 0
  outer loop
   vertex -0.027778534218668938 -0.039573460817337036 0.099999994039535522
   vertex -0.019134191796183586 -0.044193964451551437 0.099999994039535522
   vertex -0.019134191796183586 -0.044193964451551437 7.4505805969238281e-09
  endloop
 endfacet
 facet normal 0.47139724042675529 0.88192099516795719 -0
  outer loop
   vertex -0.019134191796183586 -0.044193964451551437 7.4505805969238281e-09
   vertex -0.027778534218668938 -0.039573460817337036 7.4505805969238281e-09
   vertex -0.027778534218668938 -0.039573460817337036 0.099999994039535522
  endloop
 endfacet
 facet normal 0.63439370320599797 0.77301010946337578 0
  outer loop
   vertex -0.035355359315872192 -0.033355314284563065 0.099999994039535522
   vertex -0.027778534218668938 -0.039573460817337036 0.099999994039535522
   vertex -0.027778534218668938 -0.039573460817337036 7.4505805969238281e-09
  endloop
 endfacet
 facet normal 0.63439370320599797 0.77301010946337578 -0
  outer loop
   vertex -0.027778534218668938 -0.039573460817337036 7.4505805969238281e-09
   vertex -0.035355359315872192 -0.033355314284563065 7.4505805969238281e-09
   vertex -0.035355359315872192 -0.033355314284563065 0.099999994039535522
  endloop
 endfacet
 facet normal 0.77301086462314694 0.63439278304105462 0
  outer loop
   vertex -0.041573498398065567 -0.025778479874134064 0.099999994039535522
   vertex -0.035355359315872192 -0.033355314284563065 0.099999994039535522
   vertex -0.035355359315872192 -0.033355314284563065 7.4505805969238281e-09
  endloop
 endfacet
 facet normal 0.77301086462314694 0.63439278304105462 -0
  outer loop
   vertex -0.035355359315872192 -0.033355314284563065 7.4505805969238281e-09
   vertex -0.041573498398065567 -0.025778479874134064 7.4505805969238281e-09
   vertex -0.041573498398065567 -0.025778479874134064 0.099999994039535522
  endloop
 endfacet
 facet normal 0.88192159587074082 0.47139611659071368 0
  outer loop
   vertex -0.046193990856409073 -0.017134131863713264 0.099999994039535522
   vertex -0.041573498398065567 -0.025778479874134064 0.099999994039535522
   vertex -0.041573498398065567 -0.025778479874134064 7.4505805969238281e-09
  endloop
 endfacet
 facet normal 0.88192159587074082 0.47139611659071368 -0
  outer loop
   vertex -0.041573498398065567 -0.025778479874134064 7.4505805969238281e-09
   vertex -0.046193990856409073 -0.017134131863713264 7.4505805969238281e-09
   vertex -0.046193990856409073 -0.017134131863713264 0.099999994039535522
  endloop
 endfacet
 facet normal 0.95694068712640235 0.29028351886052561 0
  outer loop
   vertex -0.049039267003536224 -0.0077544725500047207 0.099999994039535522
   vertex -0.046193990856409073 -0.017134131863713264 0.099999994039535522
   vertex -0.046193990856409073 -0.017134131863713264 7.4505805969238281e-09
  endloop
 endfacet
 facet normal 0.95694068712640235 0.29028351886052561 -0
  outer loop
   vertex -0.046193990856409073 -0.017134131863713264 7.4505805969238281e-09
   vertex -0.049039267003536224 -0.0077544725500047207 7.4505805969238281e-09
   vertex -0.049039267003536224 -0.0077544725500047207 0.099999994039535522
  endloop
 endfacet
 facet normal 0.99518479066700949 0.098016490577150561 0
  outer loop
   vertex -0.049999997019767761 0.002000048290938139 0.099999994039535522
   vertex -0.049039267003536224 -0.0077544725500047207 0.099999994039535522
   vertex -0.049039267003536224 -0.0077544725500047207 7.4505805969238281e-09
  endloop
 endfacet
 facet normal 0.99518479066700949 0.098016490577150561 -0
  outer loop
   vertex -0.049039267003536224 -0.0077544725500047207 7.4505805969238281e-09
   vertex -0.049999997019767761 0.002000048290938139 7.4505805969238281e-09
   vertex -0.049999997019767761 0.002000048290938139 0.099999994039535522
  endloop
 endfacet
 facet normal 0.99518464100354131 -0.098018010134121841 0
  outer loop
   vertex -0.049039252102375031 0.011754567734897137 0.099999994039535522
   vertex -0.049999997019767761 0.002000048290938139 0.099999994039535522
   vertex -0.049999997019767761 0.002000048290938139 7.4505805969238281e-09
  endloop
 endfacet
 facet normal 0.99518464100354131 -0.098018010134121841 0
  outer loop
   vertex -0.049999997019767761 0.002000048290938139 7.4505805969238281e-09
   vertex -0.049039252102375031 0.011754567734897137 7.4505805969238281e-09
   vertex -0.049039252102375031 0.011754567734897137 0.099999994039535522
  endloop
 endfacet
 facet normal 0.95693990405490525 -0.29028610030001228 0
  outer loop
   vertex -0.04619394987821579 0.02113422192633152 0.099999994039535522
   vertex -0.049039252102375031 0.011754567734897137 0.099999994039535522
   vertex -0.049039252102375031 0.011754567734897137 7.4505805969238281e-09
  endloop
 endfacet
 facet normal 0.95693990405490525 -0.29028610030001228 0
  outer loop
   vertex -0.049039252102375031 0.011754567734897137 7.4505805969238281e-09
   vertex -0.04619394987821579 0.02113422192633152 7.4505805969238281e-09
   vertex -0.04619394987821579 0.02113422192633152 0.099999994039535522
  endloop
 endfacet
 facet normal 0.8819209529398101 -0.47139731942994489 0
  outer loop
   vertex -0.041573446244001389 0.029778562486171722 0.099999994039535522
   vertex -0.04619394987821579 0.02113422192633152 0.099999994039535522
   vertex -0.04619394987821579 0.02113422192633152 7.4505805969238281e-09
  endloop
 endfacet
 facet normal 0.8819209529398101 -0.47139731942994489 0
  outer loop
   vertex -0.04619394987821579 0.02113422192633152 7.4505805969238281e-09
   vertex -0.041573446244001389 0.029778562486171722 7.4505805969238281e-09
   vertex -0.041573446244001389 0.029778562486171722 0.099999994039535522
  endloop
 endfacet
 facet normal 0.77300950726179829 -0.63439443698922193 0
  outer loop
   vertex -0.03535529226064682 0.037355381995439529 0.099999994039535522
   vertex -0.041573446244001389 0.029778562486171722 0.099999994039535522
   vertex -0.041573446244001389 0.029778562486171722 7.4505805969238281e-09
  endloop
 endfacet
 facet normal 0.77300950726179829 -0.63439443698922193 0
  outer loop
   vertex -0.041573446244001389 0.029778562486171722 7.4505805969238281e-09
   vertex -0.03535529226064682 0.037355381995439529 7.4505805969238281e-09
   vertex -0.03535529226064682 0.037355381995439529 0.099999994039535522
  endloop
 endfacet
 facet normal 0.63439236955366807 -0.77301120396284195 0
  outer loop
   vertex -0.027778454124927521 0.043573517352342606 0.099999994039535522
   vertex -0.03535529226064682 0.037355381995439529 0.099999994039535522
   vertex -0.03535529226064682 0.037355381995439529 7.4505805969238281e-09
  endloop
 endfacet
 facet normal 0.63439236955366807 -0.77301120396284195 0
  outer loop
   vertex -0.03535529226064682 0.037355381995439529 7.4505805969238281e-09
   vertex -0.027778454124927521 0.043573517352342606 7.4505805969238281e-09
   vertex -0.027778454124927521 0.043573517352342606 0.099999994039535522
  endloop
 endfacet
 facet normal 0.47139536736621734 -0.88192199633849067 0
  outer loop
   vertex -0.019134102389216423 0.048194002360105515 0.099999994039535522
   vertex -0.027778454124927521 0.043573517352342606 0.099999994039535522
   vertex -0.027778454124927521 0.043573517352342606 7.4505805969238281e-09
  endloop
 endfacet
 facet normal 0.47139536736621734 -0.88192199633849067 0
  outer loop
   vertex -0.027778454124927521 0.043573517352342606 7.4505805969238281e-09
   vertex -0.019134102389216423 0.048194002360105515 7.4505805969238281e-09
   vertex -0.019134102389216423 0.048194002360105515 0.099999994039535522
  endloop
 endfacet
 facet normal -0 -0 -1
  outer loop
   vertex 0 0.051999997347593307 0.099999994039535522
   vertex 0.009754515253007412 0.051039259880781174 0.099999994039535522
   vertex 0.019134171307086945 0.048193972557783127 0.099999994039535522
  endloop
 endfacet
 facet normal 0 -0 -1
  outer loop
   vertex -0.019134102389216423 0.048194002360105515 0.099999994039535522
   vertex -0.0097544407472014427 0.051039274781942368 0.099999994039535522
   vertex 0 0.051999997347593307 0.099999994039535522
  endloop
 endfacet
 facet normal 0 -0 -1
  outer loop
   vertex -0.03535529226064682 0.037355381995439529 0.099999994039535522
   vertex -0.027778454124927521 0.043573517352342606 0.099999994039535522
   vertex -0.019134102389216423 0.048194002360105515 0.099999994039535522
  endloop
 endfacet
 facet normal 0 -0 -1
  outer loop
   vertex -0.04619394987821579 0.02113422192633152 0.099999994039535522
   vertex -0.041573446244001389 0.029778562486171722 0.099999994039535522
   vertex -0.03535529226064682 0.037355381995439529 0.099999994039535522
  endloop
 endfacet
 facet normal 0 -0 -1
  outer loop
   vertex -0.049999997019767761 0.002000048290938139 0.099999994039535522
   vertex -0.049039252102375031 0.011754567734897137 0.099999994039535522
   vertex -0.04619394987821579 0.02113422192633152 0.099999994039535522
  endloop
 endfacet
 facet normal 0 0 -1
  outer loop
   vertex -0.046193990856409073 -0.017134131863713264 0.099999994039535522
   vertex -0.049039267003536224 -0.0077544725500047207 0.099999994039535522
   vertex -0.049999997019767761 0.002000048290938139 0.099999994039535522
  endloop
 endfacet
 facet normal 0 0 -1
  outer loop
   vertex -0.035355359315872192 -0.033355314284563065 0.099999994039535522
   vertex -0.041573498398065567 -0.025778479874134064 0.099999994039535522
   vertex -0.046193990856409073 -0.017134131863713264 0.099999994039535522
  endloop
 endfacet
 facet normal 0 0 -1
  outer loop
   vertex -0.019134191796183586 -0.044193964451551437 0.099999994039535522
   vertex -0.027778534218668938 -0.039573460817337036 0.099999994039535522
   vertex -0.035355359315872192 -0.033355314284563065 0.099999994039535522
  endloop
 endfacet
 facet normal 0 0 -1
  outer loop
   vertex -1.6292068139023286e-08 -0.047999996691942215 0.099999994039535522
   vertex -0.0097545357421040535 -0.047039255499839783 0.099999994039535522
   vertex -0.019134191796183586 -0.044193964451551437 0.099999994039535522
  endloop
 endfacet
 facet normal -0 0 -1
  outer loop
   vertex 0.019134161993861198 -0.044193979352712631 0.099999994039535522
   vertex 0.0097545040771365166 -0.04703926295042038 0.099999994039535522
   vertex -1.6292068139023286e-08 -0.047999996691942215 0.099999994039535522
  endloop
 endfacet
 facet normal -0 0 -1
  outer loop
   vertex 0.035355336964130402 -0.033355336636304855 0.099999994039535522
   vertex 0.027778508141636848 -0.039573479443788528 0.099999994039535522
   vertex 0.019134161993861198 -0.044193979352712631 0.099999994039535522
  endloop
 endfacet
 facet normal -0 0 -1
  outer loop
   vertex 0.046193975955247879 -0.017134161666035652 0.099999994039535522
   vertex 0.041573479771614075 -0.025778507813811302 0.099999994039535522
   vertex 0.035355336964130402 -0.033355336636304855 0.099999994039535522
  endloop
 endfacet
 facet normal -0 0 -1
  outer loop
   vertex 0.049999997019767761 0.0020000038202852011 0.099999994039535522
   vertex 0.049039263278245926 -0.0077545098029077053 0.099999994039535522
   vertex 0.046193975955247879 -0.017134161666035652 0.099999994039535522
  endloop
 endfacet
 facet normal -0 -0 -1
  outer loop
   vertex 0.046193972229957581 0.021134169772267342 0.099999994039535522
   vertex 0.049039259552955627 0.011754517443478107 0.099999994039535522
   vertex 0.049999997019767761 0.0020000038202852011 0.099999994039535522
  endloop
 endfacet
 facet normal -0 -0 -1
  outer loop
   vertex 0.035355336964130402 0.037355337291955948 0.099999994039535522
   vertex 0.041573479771614075 0.029778508469462395 0.099999994039535522
   vertex 0.046193972229957581 0.021134169772267342 0.099999994039535522
  endloop
 endfacet
 facet normal -0 -0 -1
  outer loop
   vertex 0.019134171307086945 0.048193972557783127 0.099999994039535522
   vertex 0.027778510004281998 0.043573476374149323 0.099999994039535522
   vertex 0.035355336964130402 0.037355337291955948 0.099999994039535522
  endloop
 endfacet
 facet normal 0 -0 -1
  outer loop
   vertex -0.019134102389216423 0.048194002360105515 0.099999994039535522
   vertex 0 0.051999997347593307 0.099999994039535522
   vertex 0.019134171307086945 0.048193972557783127 0.099999994039535522
  endloop
 endfacet
 facet normal 0 -0 -1
  outer loop
   vertex -0.04619394987821579 0.02113422192633152 0.099999994039535522
   vertex -0.03535529226064682 0.037355381995439529 0.099999994039535522
   vertex -0.019134102389216423 0.048194002360105515 0.099999994039535522
  endloop
 endfacet
 facet normal 0 0 -1
  outer loop
   vertex -0.046193990856409073 -0.017134131863713264 0.099999994039535522
   vertex -0.049999997019767761 0.002000048290938139 0.099999994039535522
   vertex -0.04619394987821579 0.02113422192633152 0.099999994039535522
  endloop
 endfacet
 facet normal 0 0 -1
  outer loop
   vertex -0.019134191796183586 -0.044193964451551437 0.099999994039535522
   vertex -0.035355359315872192 -0.033355314284563065 0.099999994039535522
   vertex -0.046193990856409073 -0.017134131863713264 0.099999994039535522
  endloop
 endfacet
 facet normal 0 0 -1
  outer loop
   vertex 0.019134161993861198 -0.044193979352712631 0.099999994039535522
   vertex -1.6292068139023286e-08 -0.047999996691942215 0.099999994039535522
   vertex -0.019134191796183586 -0.044193964451551437 0.099999994039535522
  endloop
 endfacet
 facet normal -0 0 -1
  outer loop
   vertex 0.046193975955247879 -0.017134161666035652 0.099999994039535522
   vertex 0.035355336964130402 -0.033355336636304855 0.099999994039535522
   vertex 0.019134161993861198 -0.044193979352712631 0.099999994039535522
  endloop
 endfacet
 facet normal -0 0 -1
  outer loop
   vertex 0.046193972229957581 0.021134169772267342 0.099999994039535522
   vertex 0.049999997019767761 0.0020000038202852011 0.099999994039535522
   vertex 0.046193975955247879 -0.017134161666035652 0.099999994039535522
  endloop
 endfacet
 facet normal -0 -0 -1
  outer loop
   vertex 0.019134171307086945 0.048193972557783127 0.099999994039535522
   vertex 0.035355336964130402 0.037355337291955948 0.099999994039535522
   vertex 0.046193972229957581 0.021134169772267342 0.099999994039535522
  endloop
 endfacet
 facet normal 0 -0 -1
  outer loop
   vertex -0.04619394987821579 0.02113422192633152 0.099999994039535522
   vertex -0.019134102389216423 0.048194002360105515 0.099999994039535522
   vertex 0.019134171307086945 0.048193972557783127 0.099999994039535522
  endloop
 endfacet
 facet normal 0 0 -1
  outer loop
   vertex -0.019134191796183586 -0.044193964451551437 0.099999994039535522
   vertex -0.046193990856409073 -0.017134131863713264 0.099999994039535522
   vertex -0.04619394987821579 0.02113422192633152 0.099999994039535522
  endloop
 endfacet
 facet normal 0 0 -1
  outer loop
   vertex 0.046193975955247879 -0.017134161666035652 0.099999994039535522
   vertex 0.019134161993861198 -0.044193979352712631 0.099999994039535522
   vertex -0.019134191796183586 -0.044193964451551437 0.099999994039535522
  endloop
 endfacet
 facet normal -0 -0 -1
  outer loop
   vertex 0.019134171307086945 0.048193972557783127 0.099999994039535522
   vertex 0.046193972229957581 0.021134169772267342 0.099999994039535522
   vertex 0.046193975955247879 -0.017134161666035652 0.099999994039535522
  endloop
 endfacet
 facet normal 0 0 -1
  outer loop
   vertex -0.019134191796183586 -0.044193964451551437 0.099999994039535522
   vertex -0.04619394987821579 0.02113422192633152 0.099999994039535522
   vertex 0.019134171307086945 0.048193972557783127 0.099999994039535522
  endloop
 endfacet
 facet normal -0 0 -1
  outer loop
   vertex 0.019134171307086945 0.048193972557783127 0.099999994039535522
   vertex 0.046193975955247879 -0.017134161666035652 0.099999994039535522
   vertex -0.019134191796183586 -0.044193964451551437 0.099999994039535522
  endloop
 endfacet
 facet normal 0.29028310483634051 -0.95694081271862064 0
  outer loop
   vertex -0.0097544407472014427 0.051039274781942368 0.099999994039535522
   vertex -0.019134102389216423 0.048194002360105515 0.099999994039535522
   vertex -0.019134102389216423 0.048194002360105515 7.4505805969238281e-09
  endloop
 endfacet
 facet normal 0.29028310483634051 -0.95694081271862064 0
  outer loop
   vertex -0.019134102389216423 0.048194002360105515 7.4505805969238281e-09
   vertex -0.0097544407472014427 0.051039274781942368 7.4505805969238281e-09
   vertex -0.0097544407472014427 0.051039274781942368 0.099999994039535522
  endloop
 endfacet
 facet normal 0.098016534825314777 -0.99518478630897378 0
  outer loop
   vertex -0.0097544407472014427 0.051039274781942368 7.4505805969238281e-09
   vertex 0 0.051999997347593307 7.4505805969238281e-09
   vertex 0 0.051999997347593307 0.099999994039535522
  endloop
 endfacet
 facet normal 0.098016534825314777 -0.99518478630897378 0
  outer loop
   vertex 0 0.051999997347593307 0.099999994039535522
   vertex -0.0097544407472014427 0.051039274781942368 0.099999994039535522
   vertex -0.0097544407472014427 0.051039274781942368 7.4505805969238281e-09
  endloop
 endfacet
 facet normal 0 0 1
  outer loop
   vertex 0.009754515253007412 0.051039259880781174 7.4505805969238281e-09
   vertex 0 0.051999997347593307 7.4505805969238281e-09
   vertex -0.0097544407472014427 0.051039274781942368 7.4505805969238281e-09
  endloop
 endfacet
 facet normal 0 0 1
  outer loop
   vertex 0.027778510004281998 0.043573476374149323 7.4505805969238281e-09
   vertex 0.019134171307086945 0.048193972557783127 7.4505805969238281e-09
   vertex 0.009754515253007412 0.051039259880781174 7.4505805969238281e-09
  endloop
 endfacet
 facet normal 0 0 1
  outer loop
   vertex 0.041573479771614075 0.029778508469462395 7.4505805969238281e-09
   vertex 0.035355336964130402 0.037355337291955948 7.4505805969238281e-09
   vertex 0.027778510004281998 0.043573476374149323 7.4505805969238281e-09
  endloop
 endfacet
 facet normal 0 0 1
  outer loop
   vertex 0.049039259552955627 0.011754517443478107 7.4505805969238281e-09
   vertex 0.046193972229957581 0.021134169772267342 7.4505805969238281e-09
   vertex 0.041573479771614075 0.029778508469462395 7.4505805969238281e-09
  endloop
 endfacet
 facet normal 0 0 1
  outer loop
   vertex 0.049039263278245926 -0.0077545098029077053 7.4505805969238281e-09
   vertex 0.049999997019767761 0.0020000038202852011 7.4505805969238281e-09
   vertex 0.049039259552955627 0.011754517443478107 7.4505805969238281e-09
  endloop
 endfacet
 facet normal 0 -0 1
  outer loop
   vertex 0.041573479771614075 -0.025778507813811302 7.4505805969238281e-09
   vertex 0.046193975955247879 -0.017134161666035652 7.4505805969238281e-09
   vertex 0.049039263278245926 -0.0077545098029077053 7.4505805969238281e-09
  endloop
 endfacet
 facet normal 0 -0 1
  outer loop
   vertex 0.027778508141636848 -0.039573479443788528 7.4505805969238281e-09
   vertex 0.035355336964130402 -0.033355336636304855 7.4505805969238281e-09
   vertex 0.041573479771614075 -0.025778507813811302 7.4505805969238281e-09
  endloop
 endfacet
 facet normal 0 -0 1
  outer loop
   vertex 0.0097545040771365166 -0.04703926295042038 7.4505805969238281e-09
   vertex 0.019134161993861198 -0.044193979352712631 7.4505805969238281e-09
   vertex 0.027778508141636848 -0.039573479443788528 7.4505805969238281e-09
  endloop
 endfacet
 facet normal 0 -0 1
  outer loop
   vertex -0.0097545357421040535 -0.047039255499839783 7.4505805969238281e-09
   vertex -1.6292068139023286e-08 -0.047999996691942215 7.4505805969238281e-09
   vertex 0.0097545040771365166 -0.04703926295042038 7.4505805969238281e-09
  endloop
 endfacet
 facet normal -0 -0 1
  outer loop
   vertex -0.027778534218668938 -0.039573460817337036 7.4505805969238281e-09
   vertex -0.019134191796183586 -0.044193964451551437 7.4505805969238281e-09
   vertex -0.0097545357421040535 -0.047039255499839783 7.4505805969238281e-09
  endloop
 endfacet
 facet normal -0 -0 1
  outer loop
   vertex -0.041573498398065567 -0.025778479874134064 7.4505805969238281e-09
   vertex -0.035355359315872192 -0.033355314284563065 7.4505805969238281e-09
   vertex -0.027778534218668938 -0.039573460817337036 7.4505805969238281e-09
  endloop
 endfacet
 facet normal -0 -0 1
  outer loop
   vertex -0.049039267003536224 -0.0077544725500047207 7.4505805969238281e-09
   vertex -0.046193990856409073 -0.017134131863713264 7.4505805969238281e-09
   vertex -0.041573498398065567 -0.025778479874134064 7.4505805969238281e-09
  endloop
 endfacet
 facet normal -0 0 1
  outer loop
   vertex -0.049039252102375031 0.011754567734897137 7.4505805969238281e-09
   vertex -0.049999997019767761 0.002000048290938139 7.4505805969238281e-09
   vertex -0.049039267003536224 -0.0077544725500047207 7.4505805969238281e-09
  endloop
 endfacet
 facet normal -0 0 1
  outer loop
   vertex -0.041573446244001389 0.029778562486171722 7.4505805969238281e-09
   vertex -0.04619394987821579 0.02113422192633152 7.4505805969238281e-09
   vertex -0.049039252102375031 0.011754567734897137 7.4505805969238281e-09
  endloop
 endfacet
 facet normal -0 0 1
  outer loop
   vertex -0.027778454124927521 0.043573517352342606 7.4505805969238281e-09
   vertex -0.03535529226064682 0.037355381995439529 7.4505805969238281e-09
   vertex -0.041573446244001389 0.029778562486171722 7.4505805969238281e-09
  endloop
 endfacet
 facet normal -0 0 1
  outer loop
   vertex -0.0097544407472014427 0.051039274781942368 7.4505805969238281e-09
   vertex -0.019134102389216423 0.048194002360105515 7.4505805969238281e-09
   vertex -0.027778454124927521 0.043573517352342606 7.4505805969238281e-09
  endloop
 endfacet
 facet normal 0 0 1
  outer loop
   vertex 0.027778510004281998 0.043573476374149323 7.4505805969238281e-09
   vertex 0.009754515253007412 0.051039259880781174 7.4505805969238281e-09
   vertex -0.0097544407472014427 0.051039274781942368 7.4505805969238281e-09
  endloop
 endfacet
 facet normal 0 0 1
  outer loop
   vertex 0.049039259552955627 0.011754517443478107 7.4505805969238281e-09
   vertex 0.041573479771614075 0.029778508469462395 7.4505805969238281e-09
   vertex 0.027778510004281998 0.043573476374149323 7.4505805969238281e-09
  endloop
 endfacet
 facet normal 0 0 1
  outer loop
   vertex 0.041573479771614075 -0.025778507813811302 7.4505805969238281e-09
   vertex 0.049039263278245926 -0.0077545098029077053 7.4505805969238281e-09
   vertex 0.049039259552955627 0.011754517443478107 7.4505805969238281e-09
  endloop
 endfacet
 facet normal 0 -0 1
  outer loop
   vertex 0.0097545040771365166 -0.04703926295042038 7.4505805969238281e-09
   vertex 0.027778508141636848 -0.039573479443788528 7.4505805969238281e-09
   vertex 0.041573479771614075 -0.025778507813811302 7.4505805969238281e-09
  endloop
 endfacet
 facet normal -0 -0 1
  outer loop
   vertex -0.027778534218668938 -0.039573460817337036 7.4505805969238281e-09
   vertex -0.0097545357421040535 -0.047039255499839783 7.4505805969238281e-09
   vertex 0.0097545040771365166 -0.04703926295042038 7.4505805969238281e-09
  endloop
 endfacet
 facet normal -0 -0 1
  outer loop
   vertex -0.049039267003536224 -0.0077544725500047207 7.4505805969238281e-09
   vertex -0.041573498398065567 -0.025778479874134064 7.4505805969238281e-09
   vertex -0.027778534218668938 -0.039573460817337036 7.4505805969238281e-09
  endloop
 endfacet
 facet normal -0 0 1
  outer loop
   vertex -0.041573446244001389 0.029778562486171722 7.4505805969238281e-09
   vertex -0.049039252102375031 0.011754567734897137 7.4505805969238281e-09
   vertex -0.049039267003536224 -0.0077544725500047207 7.4505805969238281e-09
  endloop
 endfacet
 facet normal -0 0 1
  outer loop
   vertex -0.0097544407472014427 0.051039274781942368 7.4505805969238281e-09
   vertex -0.027778454124927521 0.043573517352342606 7.4505805969238281e-09
   vertex -0.041573446244001389 0.029778562486171722 7.4505805969238281e-09
  endloop
 endfacet
 facet normal 0 0 1
  outer loop
   vertex 0.049039259552955627 0.011754517443478107 7.4505805969238281e-09
   vertex 0.027778510004281998 0.043573476374149323 7.4505805969238281e-09
   vertex -0.0097544407472014427 0.051039274781942368 7.4505805969238281e-09
  endloop
 endfacet
 facet normal 0 -0 1
  outer loop
   vertex 0.0097545040771365166 -0.04703926295042038 7.4505805969238281e-09
   vertex 0.041573479771614075 -0.025778507813811302 7.4505805969238281e-09
   vertex 0.049039259552955627 0.011754517443478107 7.4505805969238281e-09
  endloop
 endfacet
 facet normal -0 -0 1
  outer loop
   vertex -0.049039267003536224 -0.0077544725500047207 7.4505805969238281e-09
   vertex -0.027778534218668938 -0.039573460817337036 7.4505805969238281e-09
   vertex 0.0097545040771365166 -0.04703926295042038 7.4505805969238281e-09
  endloop
 endfacet
 facet normal -0 0 1
  outer loop
   vertex -0.0097544407472014427 0.051039274781942368 7.4505805969238281e-09
   vertex -0.041573446244001389 0.029778562486171722 7.4505805969238281e-09
   vertex -0.049039267003536224 -0.0077544725500047207 7.4505805969238281e-09
  endloop
 endfacet
 facet normal 0 0 1
  outer loop
   vertex 0.0097545040771365166 -0.04703926295042038 7.4505805969238281e-09
   vertex 0.049039259552955627 0.011754517443478107 7.4505805969238281e-09
   vertex -0.0097544407472014427 0.051039274781942368 7.4505805969238281e-09
  endloop
 endfacet
 facet normal -0 0 1
  outer loop
   vertex -0.0097544407472014427 0.051039274781942368 7.4505805969238281e-09
   vertex -0.049039267003536224 -0.0077544725500047207 7.4505805969238281e-09
   vertex 0.0097545040771365166 -0.04703926295042038 7.4505805969238281e-09
  endloop
 endfacet
endsolid
